<?xml version="1.0" encoding="utf-8"?>
<!-- Generator: Adobe Illustrator 24.3.0, SVG Export Plug-In . SVG Version: 6.00 Build 0)  -->
<svg version="1.1" id="Layer_1" xmlns="http://www.w3.org/2000/svg" xmlns:xlink="http://www.w3.org/1999/xlink" x="0px" y="0px"
	 viewBox="0 0 32 32" style="enable-background:new 0 0 32 32;" xml:space="preserve">
<style type="text/css">
	.st0{fill:#BFE9FF;}
	.st1{fill:#56B4FC;}
	.st2{fill:#1652F0;}
</style>
<g>
	<g>
		<path class="st0" d="M8.2,20.1l-7.7,7.7c-0.4,0.4-0.4,1,0,1.4l2.3,2.3c0.4,0.4,1,0.4,1.4,0l7.7-7.7C10.4,22.9,9.1,21.6,8.2,20.1z"
			/>
		<path class="st1" d="M27.9,4.1c-5.2-5.2-13.6-5.2-18.8,0c-5.2,5.2-5.2,13.6,0,18.8c5.2,5.2,13.6,5.2,18.8,0
			C33.1,17.7,33.1,9.3,27.9,4.1z M18.5,22.3c-4.9,0-8.8-4-8.8-8.8s4-8.8,8.8-8.8s8.8,4,8.8,8.8S23.4,22.3,18.5,22.3z"/>
		<path class="st2" d="M10.7,17.5l-3.2,3.3c0.5,0.7,1.1,1.4,1.7,2.1c0.7,0.7,1.3,1.2,2.1,1.7l3.3-3.3C12.8,20.5,11.5,19.2,10.7,17.5
			z"/>
		<path class="st2" d="M18.5,7.5l1.4,4.6l4.6,1.4l-4.6,1.5l-1.4,4.6l-1.4-4.6l-4.6-1.5l4.6-1.4L18.5,7.5z"/>
	</g>
</g>
</svg>
