<?xml version="1.0" encoding="utf-8"?>
<!-- Generator: Adobe Illustrator 24.3.0, SVG Export Plug-In . SVG Version: 6.00 Build 0)  -->
<svg version="1.1" id="Layer_1" xmlns="http://www.w3.org/2000/svg" xmlns:xlink="http://www.w3.org/1999/xlink" x="0px" y="0px"
	 viewBox="0 0 1444 392" style="enable-background:new 0 0 1444 392;" xml:space="preserve">
<style type="text/css">
	.st0{fill:#1652F0;}
	.st1{fill:url(#SVGID_1_);}
	.st2{fill:url(#SVGID_2_);}
	.st3{fill:#FFFFFF;}
</style>
<rect class="st0" width="1444" height="392"/>
<linearGradient id="SVGID_1_" gradientUnits="userSpaceOnUse" x1="20.9" y1="78" x2="486" y2="78" gradientTransform="matrix(1 0 0 -1 0 274)">
	<stop  offset="0" style="stop-color:#FFFFFF"/>
	<stop  offset="1" style="stop-color:#FFFFFF;stop-opacity:0"/>
</linearGradient>
<path class="st1" d="M484,392v-2h2v2H484z M459.6,392v-2h2v2H459.6z M435.3,392v-2h2v2H435.3z M410.9,392v-2h2v2H410.9z M386.5,392
	v-2h2v2H386.5z M362.1,392v-2h2v2H362.1z M337.8,392v-2h2v2H337.8z M313.4,392v-2h2v2H313.4z M289,392v-2h2v2H289z M264.6,392v-2h2
	v2H264.6z M240.3,392v-2h2v2H240.3z M215.9,392v-2h2v2H215.9z M191.5,392v-2h2v2H191.5z M167.2,392v-2h2v2H167.2z M142.8,392v-2h2v2
	H142.8z M118.4,392v-2h2v2H118.4L118.4,392z M94,392v-2h2v2H94L94,392z M69.7,392v-2h2v2H69.7z M45.3,392v-2h2v2H45.3z M20.9,392v-2
	h2v2H20.9z M484,367.6v-2h2v2H484z M459.6,367.6v-2h2v2H459.6z M435.3,367.6v-2h2v2H435.3z M410.9,367.6v-2h2v2H410.9z M386.5,367.6
	v-2h2v2H386.5z M362.1,367.6v-2h2v2H362.1z M337.8,367.6v-2h2v2H337.8z M313.4,367.6v-2h2v2H313.4z M289,367.6v-2h2v2H289z
	 M264.6,367.6v-2h2v2H264.6z M240.3,367.6v-2h2v2H240.3z M215.9,367.6v-2h2v2H215.9z M191.5,367.6v-2h2v2H191.5z M167.2,367.6v-2h2
	v2H167.2z M142.8,367.6v-2h2v2H142.8z M118.4,367.6v-2h2v2H118.4L118.4,367.6z M94,367.6v-2h2v2H94L94,367.6z M69.7,367.6v-2h2v2
	H69.7z M45.3,367.6v-2h2v2H45.3z M20.9,367.6v-2h2v2H20.9L20.9,367.6z M484,343.3v-2h2v2H484z M459.6,343.3v-2h2v2H459.6z
	 M435.3,343.3v-2h2v2H435.3z M410.9,343.3v-2h2v2H410.9z M386.5,343.3v-2h2v2H386.5z M362.1,343.3v-2h2v2H362.1z M337.8,343.3v-2h2
	v2H337.8z M313.4,343.3v-2h2v2H313.4z M289,343.3v-2h2v2H289z M264.6,343.3v-2h2v2H264.6z M240.3,343.3v-2h2v2H240.3z M215.9,343.3
	v-2h2v2H215.9z M191.5,343.3v-2h2v2H191.5z M167.2,343.3v-2h2v2H167.2z M142.8,343.3v-2h2v2H142.8z M118.4,343.3v-2h2v2H118.4
	L118.4,343.3z M94,343.3v-2h2v2H94L94,343.3z M69.7,343.3v-2h2v2H69.7z M45.3,343.3v-2h2v2H45.3z M20.9,343.3v-2h2v2H20.9
	L20.9,343.3z M484,318.9v-2h2v2H484z M459.6,318.9v-2h2v2H459.6z M435.3,318.9v-2h2v2H435.3z M410.9,318.9v-2h2v2H410.9z
	 M386.5,318.9v-2h2v2H386.5z M362.1,318.9v-2h2v2H362.1z M337.8,318.9v-2h2v2H337.8z M313.4,318.9v-2h2v2H313.4z M289,318.9v-2h2v2
	H289z M264.6,318.9v-2h2v2H264.6z M240.3,318.9v-2h2v2H240.3z M215.9,318.9v-2h2v2H215.9z M191.5,318.9v-2h2v2H191.5z M167.2,318.9
	v-2h2v2H167.2z M142.8,318.9v-2h2v2H142.8z M118.4,318.9v-2h2v2H118.4L118.4,318.9z M94,318.9v-2h2v2H94L94,318.9z M69.7,318.9v-2h2
	v2H69.7z M45.3,318.9v-2h2v2H45.3z M20.9,318.9v-2h2v2H20.9L20.9,318.9z M484,294.5v-2h2v2H484z M459.6,294.5v-2h2v2H459.6z
	 M435.3,294.5v-2h2v2H435.3z M410.9,294.5v-2h2v2H410.9z M386.5,294.5v-2h2v2H386.5z M362.1,294.5v-2h2v2H362.1z M337.8,294.5v-2h2
	v2H337.8z M313.4,294.5v-2h2v2H313.4z M289,294.5v-2h2v2H289z M264.6,294.5v-2h2v2H264.6z M240.3,294.5v-2h2v2H240.3z M215.9,294.5
	v-2h2v2H215.9z M191.5,294.5v-2h2v2H191.5z M167.2,294.5v-2h2v2H167.2z M142.8,294.5v-2h2v2H142.8z M118.4,294.5v-2h2v2H118.4
	L118.4,294.5z M94,294.5v-2h2v2H94L94,294.5z M69.7,294.5v-2h2v2H69.7z M45.3,294.5v-2h2v2H45.3z M20.9,294.5v-2h2v2H20.9
	L20.9,294.5z M484,270.1v-2h2v2H484z M459.6,270.1v-2h2v2H459.6z M435.3,270.1v-2h2v2H435.3z M410.9,270.1v-2h2v2H410.9z
	 M386.5,270.1v-2h2v2H386.5z M362.1,270.1v-2h2v2H362.1z M337.8,270.1v-2h2v2H337.8z M313.4,270.1v-2h2v2H313.4z M289,270.1v-2h2v2
	H289z M264.6,270.1v-2h2v2H264.6z M240.3,270.1v-2h2v2H240.3z M215.9,270.1v-2h2v2H215.9z M191.5,270.1v-2h2v2H191.5z M167.2,270.1
	v-2h2v2H167.2z M142.8,270.1v-2h2v2H142.8z M118.4,270.1v-2h2v2H118.4L118.4,270.1z M94,270.1v-2h2v2H94L94,270.1z M69.7,270.1v-2h2
	v2H69.7z M45.3,270.1v-2h2v2H45.3z M20.9,270.1v-2h2v2H20.9L20.9,270.1z M484,245.8v-2h2v2H484z M459.6,245.8v-2h2v2H459.6z
	 M435.3,245.8v-2h2v2H435.3z M410.9,245.8v-2h2v2H410.9z M386.5,245.8v-2h2v2H386.5z M362.1,245.8v-2h2v2H362.1z M337.8,245.8v-2h2
	v2H337.8z M313.4,245.8v-2h2v2H313.4z M289,245.8v-2h2v2H289z M264.6,245.8v-2h2v2H264.6z M240.3,245.8v-2h2v2H240.3z M215.9,245.8
	v-2h2v2H215.9z M191.5,245.8v-2h2v2H191.5z M167.2,245.8v-2h2v2H167.2z M142.8,245.8v-2h2v2H142.8z M118.4,245.8v-2h2v2H118.4
	L118.4,245.8z M94,245.8v-2h2v2H94L94,245.8z M69.7,245.8v-2h2v2H69.7z M45.3,245.8v-2h2v2H45.3z M20.9,245.8v-2h2v2H20.9
	L20.9,245.8z M484,221.4v-2h2v2H484z M459.6,221.4v-2h2v2H459.6z M435.3,221.4v-2h2v2H435.3z M410.9,221.4v-2h2v2H410.9z
	 M386.5,221.4v-2h2v2H386.5z M362.1,221.4v-2h2v2H362.1z M337.8,221.4v-2h2v2H337.8z M313.4,221.4v-2h2v2H313.4z M289,221.4v-2h2v2
	H289z M264.6,221.4v-2h2v2H264.6z M240.3,221.4v-2h2v2H240.3z M215.9,221.4v-2h2v2H215.9z M191.5,221.4v-2h2v2H191.5z M167.2,221.4
	v-2h2v2H167.2z M142.8,221.4v-2h2v2H142.8z M118.4,221.4v-2h2v2H118.4L118.4,221.4z M94,221.4v-2h2v2H94L94,221.4z M69.7,221.4v-2h2
	v2H69.7z M45.3,221.4v-2h2v2H45.3z M20.9,221.4v-2h2v2H20.9L20.9,221.4z M484,197v-2h2v2H484z M459.6,197v-2h2v2H459.6z M435.3,197
	v-2h2v2H435.3z M410.9,197v-2h2v2H410.9z M386.5,197v-2h2v2H386.5z M362.1,197v-2h2v2H362.1z M337.8,197v-2h2v2H337.8z M313.4,197
	v-2h2v2H313.4z M289,197v-2h2v2H289z M264.6,197v-2h2v2H264.6z M240.3,197v-2h2v2H240.3z M215.9,197v-2h2v2H215.9z M191.5,197v-2h2
	v2H191.5z M167.2,197v-2h2v2H167.2z M142.8,197v-2h2v2H142.8z M118.4,197v-2h2v2H118.4L118.4,197z M94,197v-2h2v2H94L94,197z
	 M69.7,197v-2h2v2H69.7z M45.3,197v-2h2v2H45.3z M20.9,197v-2h2v2H20.9L20.9,197z M484,172.6v-2h2v2H484z M459.6,172.6v-2h2v2H459.6
	z M435.3,172.6v-2h2v2H435.3z M410.9,172.6v-2h2v2H410.9z M386.5,172.6v-2h2v2H386.5z M362.1,172.6v-2h2v2H362.1z M337.8,172.6v-2h2
	v2H337.8z M313.4,172.6v-2h2v2H313.4z M289,172.6v-2h2v2H289z M264.6,172.6v-2h2v2H264.6z M240.3,172.6v-2h2v2H240.3z M215.9,172.6
	v-2h2v2H215.9z M191.5,172.6v-2h2v2H191.5z M167.2,172.6v-2h2v2H167.2z M142.8,172.6v-2h2v2H142.8z M118.4,172.6v-2h2v2H118.4
	L118.4,172.6z M94,172.6v-2h2v2H94L94,172.6z M69.7,172.6v-2h2v2H69.7z M45.3,172.6v-2h2v2H45.3z M20.9,172.6v-2h2v2H20.9
	L20.9,172.6z M484,148.3v-2h2v2H484z M459.6,148.3v-2h2v2H459.6z M435.3,148.3v-2h2v2H435.3z M410.9,148.3v-2h2v2H410.9z
	 M386.5,148.3v-2h2v2H386.5z M362.1,148.3v-2h2v2H362.1z M337.8,148.3v-2h2v2H337.8z M313.4,148.3v-2h2v2H313.4z M289,148.3v-2h2v2
	H289z M264.6,148.3v-2h2v2H264.6z M240.3,148.3v-2h2v2H240.3z M215.9,148.3v-2h2v2H215.9z M191.5,148.3v-2h2v2H191.5z M167.2,148.3
	v-2h2v2H167.2z M142.8,148.3v-2h2v2H142.8z M118.4,148.3v-2h2v2H118.4L118.4,148.3z M94,148.3v-2h2v2H94L94,148.3z M69.7,148.3v-2h2
	v2H69.7z M45.3,148.3v-2h2v2H45.3z M20.9,148.3v-2h2v2H20.9L20.9,148.3z M484,123.9v-2h2v2H484z M459.6,123.9v-2h2v2H459.6z
	 M435.3,123.9v-2h2v2H435.3z M410.9,123.9v-2h2v2H410.9z M386.5,123.9v-2h2v2H386.5z M362.1,123.9v-2h2v2H362.1z M337.8,123.9v-2h2
	v2H337.8z M313.4,123.9v-2h2v2H313.4z M289,123.9v-2h2v2H289z M264.6,123.9v-2h2v2H264.6z M240.3,123.9v-2h2v2H240.3z M215.9,123.9
	v-2h2v2H215.9z M191.5,123.9v-2h2v2H191.5z M167.2,123.9v-2h2v2H167.2z M142.8,123.9v-2h2v2H142.8z M118.4,123.9v-2h2v2H118.4
	L118.4,123.9z M94,123.9v-2h2v2H94L94,123.9z M69.7,123.9v-2h2v2H69.7z M45.3,123.9v-2h2v2H45.3z M20.9,123.9v-2h2v2H20.9
	L20.9,123.9z M484,99.5v-2h2v2H484z M459.6,99.5v-2h2v2H459.6z M435.3,99.5v-2h2v2H435.3z M410.9,99.5v-2h2v2H410.9z M386.5,99.5v-2
	h2v2H386.5z M362.1,99.5v-2h2v2H362.1z M337.8,99.5v-2h2v2H337.8z M313.4,99.5v-2h2v2H313.4z M289,99.5v-2h2v2H289z M264.6,99.5v-2
	h2v2H264.6z M240.3,99.5v-2h2v2H240.3z M215.9,99.5v-2h2v2H215.9z M191.5,99.5v-2h2v2H191.5z M167.2,99.5v-2h2v2H167.2z M142.8,99.5
	v-2h2v2H142.8z M118.4,99.5v-2h2v2H118.4L118.4,99.5z M94,99.5v-2h2v2H94L94,99.5z M69.7,99.5v-2h2v2H69.7z M45.3,99.5v-2h2v2H45.3z
	 M20.9,99.5v-2h2v2H20.9L20.9,99.5z M484,75.2v-2h2v2H484z M459.6,75.2v-2h2v2H459.6z M435.3,75.2v-2h2v2H435.3z M410.9,75.2v-2h2v2
	H410.9z M386.5,75.2v-2h2v2H386.5z M362.1,75.2v-2h2v2H362.1z M337.8,75.2v-2h2v2H337.8z M313.4,75.2v-2h2v2H313.4z M289,75.2v-2h2
	v2H289z M264.6,75.2v-2h2v2H264.6z M240.3,75.2v-2h2v2H240.3z M215.9,75.2v-2h2v2H215.9z M191.5,75.2v-2h2v2H191.5z M167.2,75.2v-2
	h2v2H167.2z M142.8,75.2v-2h2v2H142.8z M118.4,75.2v-2h2v2H118.4L118.4,75.2z M94,75.2v-2h2v2H94L94,75.2z M69.7,75.2v-2h2v2H69.7z
	 M45.3,75.2v-2h2v2H45.3z M20.9,75.2v-2h2v2H20.9L20.9,75.2z M484,50.8v-2h2v2H484z M459.6,50.8v-2h2v2H459.6z M435.3,50.8v-2h2v2
	H435.3z M410.9,50.8v-2h2v2H410.9z M386.5,50.8v-2h2v2H386.5z M362.1,50.8v-2h2v2H362.1z M337.8,50.8v-2h2v2H337.8z M313.4,50.8v-2
	h2v2H313.4z M289,50.8v-2h2v2H289z M264.6,50.8v-2h2v2H264.6z M240.3,50.8v-2h2v2H240.3z M215.9,50.8v-2h2v2H215.9z M191.5,50.8v-2
	h2v2H191.5z M167.2,50.8v-2h2v2H167.2z M142.8,50.8v-2h2v2H142.8z M118.4,50.8v-2h2v2H118.4L118.4,50.8z M94,50.8v-2h2v2H94L94,50.8
	z M69.7,50.8v-2h2v2H69.7z M45.3,50.8v-2h2v2H45.3z M20.9,50.8v-2h2v2H20.9L20.9,50.8z M484,26.4v-2h2v2H484z M459.6,26.4v-2h2v2
	H459.6z M435.3,26.4v-2h2v2H435.3z M410.9,26.4v-2h2v2H410.9z M386.5,26.4v-2h2v2H386.5z M362.1,26.4v-2h2v2H362.1z M337.8,26.4v-2
	h2v2H337.8z M313.4,26.4v-2h2v2H313.4z M289,26.4v-2h2v2H289z M264.6,26.4v-2h2v2H264.6z M240.3,26.4v-2h2v2H240.3z M215.9,26.4v-2
	h2v2H215.9z M191.5,26.4v-2h2v2H191.5z M167.2,26.4v-2h2v2H167.2z M142.8,26.4v-2h2v2H142.8z M118.4,26.4v-2h2v2H118.4L118.4,26.4z
	 M94,26.4v-2h2v2H94L94,26.4z M69.7,26.4v-2h2v2H69.7z M45.3,26.4v-2h2v2H45.3z M20.9,26.4v-2h2v2H20.9L20.9,26.4z M484,2V0h2v2H484
	z M459.6,2V0h2v2H459.6z M435.3,2V0h2v2H435.3z M386.5,2V0h2v2H386.5z M362.1,2V0h2v2H362.1z M337.8,2V0h2v2H337.8z M313.4,2V0h2v2
	H313.4z M289,2V0h2v2H289z M264.6,2V0h2v2H264.6z M240.3,2V0h2v2H240.3z M215.9,2V0h2v2H215.9z M191.5,2V0h2v2H191.5z M167.2,2V0h2
	v2H167.2z M142.8,2V0h2v2H142.8z M118.4,2V0h2v2H118.4L118.4,2z M94,2V0h2v2H94L94,2z M69.7,2V0h2v2H69.7z M45.3,2V0h2v2H45.3z
	 M20.9,2V0h2v2H20.9L20.9,2z"/>
<g>
	
		<linearGradient id="SVGID_2_" gradientUnits="userSpaceOnUse" x1="1423" y1="78" x2="957.9" y2="78" gradientTransform="matrix(1 0 0 -1 0 274)">
		<stop  offset="0" style="stop-color:#FFFFFF"/>
		<stop  offset="1" style="stop-color:#FFFFFF;stop-opacity:0"/>
	</linearGradient>
	<path class="st2" d="M957.9,392v-2h2v2H957.9z M982.3,392v-2h2v2H982.3z M1006.6,392v-2h2v2H1006.6z M1031,392v-2h2v2H1031z
		 M1055.4,392v-2h2v2H1055.4z M1079.8,392v-2h2v2H1079.8z M1104.1,392v-2h2v2H1104.1z M1128.5,392v-2h2v2H1128.5z M1152.9,392v-2h2
		v2H1152.9z M1177.2,392v-2h2v2H1177.2z M1201.6,392v-2h2v2H1201.6z M1226,392v-2h2v2H1226z M1250.4,392v-2h2v2H1250.4z M1274.7,392
		v-2h2v2H1274.7z M1299.1,392v-2h2v2H1299.1z M1323.5,392v-2h2v2H1323.5z M1347.8,392v-2h2v2H1347.8z M1372.2,392v-2h2v2H1372.2z
		 M1396.6,392v-2h2v2H1396.6z M1421,392v-2h2v2H1421z M957.9,367.6v-2h2v2H957.9z M982.3,367.6v-2h2v2H982.3z M1006.6,367.6v-2h2v2
		H1006.6z M1031,367.6v-2h2v2H1031z M1055.4,367.6v-2h2v2H1055.4z M1079.8,367.6v-2h2v2H1079.8z M1104.1,367.6v-2h2v2H1104.1z
		 M1128.5,367.6v-2h2v2H1128.5z M1152.9,367.6v-2h2v2H1152.9z M1177.2,367.6v-2h2v2H1177.2z M1201.6,367.6v-2h2v2H1201.6z
		 M1226,367.6v-2h2v2H1226z M1250.4,367.6v-2h2v2H1250.4z M1274.7,367.6v-2h2v2H1274.7z M1299.1,367.6v-2h2v2H1299.1z M1323.5,367.6
		v-2h2v2H1323.5z M1347.8,367.6v-2h2v2H1347.8z M1372.2,367.6v-2h2v2H1372.2z M1396.6,367.6v-2h2v2H1396.6z M1421,367.6v-2h2v2H1421
		z M957.9,343.3v-2h2v2H957.9z M982.3,343.3v-2h2v2H982.3z M1006.6,343.3v-2h2v2H1006.6z M1031,343.3v-2h2v2H1031z M1055.4,343.3v-2
		h2v2H1055.4z M1079.8,343.3v-2h2v2H1079.8z M1104.1,343.3v-2h2v2H1104.1z M1128.5,343.3v-2h2v2H1128.5z M1152.9,343.3v-2h2v2
		H1152.9z M1177.2,343.3v-2h2v2H1177.2z M1201.6,343.3v-2h2v2H1201.6z M1226,343.3v-2h2v2H1226z M1250.4,343.3v-2h2v2H1250.4z
		 M1274.7,343.3v-2h2v2H1274.7z M1299.1,343.3v-2h2v2H1299.1z M1323.5,343.3v-2h2v2H1323.5z M1347.8,343.3v-2h2v2H1347.8z
		 M1372.2,343.3v-2h2v2H1372.2z M1396.6,343.3v-2h2v2H1396.6z M1421,343.3v-2h2v2H1421z M957.9,318.9v-2h2v2H957.9z M982.3,318.9v-2
		h2v2H982.3z M1006.6,318.9v-2h2v2H1006.6z M1031,318.9v-2h2v2H1031z M1055.4,318.9v-2h2v2H1055.4z M1079.8,318.9v-2h2v2H1079.8z
		 M1104.1,318.9v-2h2v2H1104.1z M1128.5,318.9v-2h2v2H1128.5z M1152.9,318.9v-2h2v2H1152.9z M1177.2,318.9v-2h2v2H1177.2z
		 M1201.6,318.9v-2h2v2H1201.6z M1226,318.9v-2h2v2H1226z M1250.4,318.9v-2h2v2H1250.4z M1274.7,318.9v-2h2v2H1274.7z M1299.1,318.9
		v-2h2v2H1299.1z M1323.5,318.9v-2h2v2H1323.5z M1347.8,318.9v-2h2v2H1347.8z M1372.2,318.9v-2h2v2H1372.2z M1396.6,318.9v-2h2v2
		H1396.6z M1421,318.9v-2h2v2H1421z M957.9,294.5v-2h2v2H957.9z M982.3,294.5v-2h2v2H982.3z M1006.6,294.5v-2h2v2H1006.6z
		 M1031,294.5v-2h2v2H1031z M1055.4,294.5v-2h2v2H1055.4z M1079.8,294.5v-2h2v2H1079.8z M1104.1,294.5v-2h2v2H1104.1z M1128.5,294.5
		v-2h2v2H1128.5z M1152.9,294.5v-2h2v2H1152.9z M1177.2,294.5v-2h2v2H1177.2z M1201.6,294.5v-2h2v2H1201.6z M1226,294.5v-2h2v2H1226
		z M1250.4,294.5v-2h2v2H1250.4z M1274.7,294.5v-2h2v2H1274.7z M1299.1,294.5v-2h2v2H1299.1z M1323.5,294.5v-2h2v2H1323.5z
		 M1347.8,294.5v-2h2v2H1347.8z M1372.2,294.5v-2h2v2H1372.2z M1396.6,294.5v-2h2v2H1396.6z M1421,294.5v-2h2v2H1421z M957.9,270.1
		v-2h2v2H957.9z M982.3,270.1v-2h2v2H982.3z M1006.6,270.1v-2h2v2H1006.6z M1031,270.1v-2h2v2H1031z M1055.4,270.1v-2h2v2H1055.4z
		 M1079.8,270.1v-2h2v2H1079.8z M1104.1,270.1v-2h2v2H1104.1z M1128.5,270.1v-2h2v2H1128.5z M1152.9,270.1v-2h2v2H1152.9z
		 M1177.2,270.1v-2h2v2H1177.2z M1201.6,270.1v-2h2v2H1201.6z M1226,270.1v-2h2v2H1226z M1250.4,270.1v-2h2v2H1250.4z M1274.7,270.1
		v-2h2v2H1274.7z M1299.1,270.1v-2h2v2H1299.1z M1323.5,270.1v-2h2v2H1323.5z M1347.8,270.1v-2h2v2H1347.8z M1372.2,270.1v-2h2v2
		H1372.2z M1396.6,270.1v-2h2v2H1396.6z M1421,270.1v-2h2v2H1421z M957.9,245.8v-2h2v2H957.9z M982.3,245.8v-2h2v2H982.3z
		 M1006.6,245.8v-2h2v2H1006.6z M1031,245.8v-2h2v2H1031z M1055.4,245.8v-2h2v2H1055.4z M1079.8,245.8v-2h2v2H1079.8z M1104.1,245.8
		v-2h2v2H1104.1z M1128.5,245.8v-2h2v2H1128.5z M1152.9,245.8v-2h2v2H1152.9z M1177.2,245.8v-2h2v2H1177.2z M1201.6,245.8v-2h2v2
		H1201.6z M1226,245.8v-2h2v2H1226z M1250.4,245.8v-2h2v2H1250.4z M1274.7,245.8v-2h2v2H1274.7z M1299.1,245.8v-2h2v2H1299.1z
		 M1323.5,245.8v-2h2v2H1323.5z M1347.8,245.8v-2h2v2H1347.8z M1372.2,245.8v-2h2v2H1372.2z M1396.6,245.8v-2h2v2H1396.6z
		 M1421,245.8v-2h2v2H1421z M957.9,221.4v-2h2v2H957.9z M982.3,221.4v-2h2v2H982.3z M1006.6,221.4v-2h2v2H1006.6z M1031,221.4v-2h2
		v2H1031z M1055.4,221.4v-2h2v2H1055.4z M1079.8,221.4v-2h2v2H1079.8z M1104.1,221.4v-2h2v2H1104.1z M1128.5,221.4v-2h2v2H1128.5z
		 M1152.9,221.4v-2h2v2H1152.9z M1177.2,221.4v-2h2v2H1177.2z M1201.6,221.4v-2h2v2H1201.6z M1226,221.4v-2h2v2H1226z M1250.4,221.4
		v-2h2v2H1250.4z M1274.7,221.4v-2h2v2H1274.7z M1299.1,221.4v-2h2v2H1299.1z M1323.5,221.4v-2h2v2H1323.5z M1347.8,221.4v-2h2v2
		H1347.8z M1372.2,221.4v-2h2v2H1372.2z M1396.6,221.4v-2h2v2H1396.6z M1421,221.4v-2h2v2H1421z M957.9,197v-2h2v2H957.9z
		 M982.3,197v-2h2v2H982.3z M1006.6,197v-2h2v2H1006.6z M1031,197v-2h2v2H1031z M1055.4,197v-2h2v2H1055.4z M1079.8,197v-2h2v2
		H1079.8z M1104.1,197v-2h2v2H1104.1z M1128.5,197v-2h2v2H1128.5z M1152.9,197v-2h2v2H1152.9z M1177.2,197v-2h2v2H1177.2z
		 M1201.6,197v-2h2v2H1201.6z M1226,197v-2h2v2H1226z M1250.4,197v-2h2v2H1250.4z M1274.7,197v-2h2v2H1274.7z M1299.1,197v-2h2v2
		H1299.1z M1323.5,197v-2h2v2H1323.5z M1347.8,197v-2h2v2H1347.8z M1372.2,197v-2h2v2H1372.2z M1396.6,197v-2h2v2H1396.6z M1421,197
		v-2h2v2H1421z M957.9,172.6v-2h2v2H957.9z M982.3,172.6v-2h2v2H982.3z M1006.6,172.6v-2h2v2H1006.6z M1031,172.6v-2h2v2H1031z
		 M1055.4,172.6v-2h2v2H1055.4z M1079.8,172.6v-2h2v2H1079.8z M1104.1,172.6v-2h2v2H1104.1z M1128.5,172.6v-2h2v2H1128.5z
		 M1152.9,172.6v-2h2v2H1152.9z M1177.2,172.6v-2h2v2H1177.2z M1201.6,172.6v-2h2v2H1201.6z M1226,172.6v-2h2v2H1226z M1250.4,172.6
		v-2h2v2H1250.4z M1274.7,172.6v-2h2v2H1274.7z M1299.1,172.6v-2h2v2H1299.1z M1323.5,172.6v-2h2v2H1323.5z M1347.8,172.6v-2h2v2
		H1347.8z M1372.2,172.6v-2h2v2H1372.2z M1396.6,172.6v-2h2v2H1396.6z M1421,172.6v-2h2v2H1421z M957.9,148.3v-2h2v2H957.9z
		 M982.3,148.3v-2h2v2H982.3z M1006.6,148.3v-2h2v2H1006.6z M1031,148.3v-2h2v2H1031z M1055.4,148.3v-2h2v2H1055.4z M1079.8,148.3
		v-2h2v2H1079.8z M1104.1,148.3v-2h2v2H1104.1z M1128.5,148.3v-2h2v2H1128.5z M1152.9,148.3v-2h2v2H1152.9z M1177.2,148.3v-2h2v2
		H1177.2z M1201.6,148.3v-2h2v2H1201.6z M1226,148.3v-2h2v2H1226z M1250.4,148.3v-2h2v2H1250.4z M1274.7,148.3v-2h2v2H1274.7z
		 M1299.1,148.3v-2h2v2H1299.1z M1323.5,148.3v-2h2v2H1323.5z M1347.8,148.3v-2h2v2H1347.8z M1372.2,148.3v-2h2v2H1372.2z
		 M1396.6,148.3v-2h2v2H1396.6z M1421,148.3v-2h2v2H1421z M957.9,123.9v-2h2v2H957.9z M982.3,123.9v-2h2v2H982.3z M1006.6,123.9v-2
		h2v2H1006.6z M1031,123.9v-2h2v2H1031z M1055.4,123.9v-2h2v2H1055.4z M1079.8,123.9v-2h2v2H1079.8z M1104.1,123.9v-2h2v2H1104.1z
		 M1128.5,123.9v-2h2v2H1128.5z M1152.9,123.9v-2h2v2H1152.9z M1177.2,123.9v-2h2v2H1177.2z M1201.6,123.9v-2h2v2H1201.6z
		 M1226,123.9v-2h2v2H1226z M1250.4,123.9v-2h2v2H1250.4z M1274.7,123.9v-2h2v2H1274.7z M1299.1,123.9v-2h2v2H1299.1z M1323.5,123.9
		v-2h2v2H1323.5z M1347.8,123.9v-2h2v2H1347.8z M1372.2,123.9v-2h2v2H1372.2z M1396.6,123.9v-2h2v2H1396.6z M1421,123.9v-2h2v2H1421
		z M957.9,99.5v-2h2v2H957.9z M982.3,99.5v-2h2v2H982.3z M1006.6,99.5v-2h2v2H1006.6z M1031,99.5v-2h2v2H1031z M1055.4,99.5v-2h2v2
		H1055.4z M1079.8,99.5v-2h2v2H1079.8z M1104.1,99.5v-2h2v2H1104.1z M1128.5,99.5v-2h2v2H1128.5z M1152.9,99.5v-2h2v2H1152.9z
		 M1177.2,99.5v-2h2v2H1177.2z M1201.6,99.5v-2h2v2H1201.6z M1226,99.5v-2h2v2H1226z M1250.4,99.5v-2h2v2H1250.4z M1274.7,99.5v-2h2
		v2H1274.7z M1299.1,99.5v-2h2v2H1299.1z M1323.5,99.5v-2h2v2H1323.5z M1347.8,99.5v-2h2v2H1347.8z M1372.2,99.5v-2h2v2H1372.2z
		 M1396.6,99.5v-2h2v2H1396.6z M1421,99.5v-2h2v2H1421z M957.9,75.2v-2h2v2H957.9z M982.3,75.2v-2h2v2H982.3z M1006.6,75.2v-2h2v2
		H1006.6z M1031,75.2v-2h2v2H1031z M1055.4,75.2v-2h2v2H1055.4z M1079.8,75.2v-2h2v2H1079.8z M1104.1,75.2v-2h2v2H1104.1z
		 M1128.5,75.2v-2h2v2H1128.5z M1152.9,75.2v-2h2v2H1152.9z M1177.2,75.2v-2h2v2H1177.2z M1201.6,75.2v-2h2v2H1201.6z M1226,75.2v-2
		h2v2H1226z M1250.4,75.2v-2h2v2H1250.4z M1274.7,75.2v-2h2v2H1274.7z M1299.1,75.2v-2h2v2H1299.1z M1347.8,75.2v-2h2v2H1347.8z
		 M1372.2,75.2v-2h2v2H1372.2z M1396.6,75.2v-2h2v2H1396.6z M1421,75.2v-2h2v2H1421z M957.9,50.8v-2h2v2H957.9z M982.3,50.8v-2h2v2
		H982.3z M1006.6,50.8v-2h2v2H1006.6z M1031,50.8v-2h2v2H1031z M1055.4,50.8v-2h2v2H1055.4z M1079.8,50.8v-2h2v2H1079.8z
		 M1104.1,50.8v-2h2v2H1104.1z M1128.5,50.8v-2h2v2H1128.5z M1152.9,50.8v-2h2v2H1152.9z M1177.2,50.8v-2h2v2H1177.2z M1201.6,50.8
		v-2h2v2H1201.6z M1226,50.8v-2h2v2H1226z M1250.4,50.8v-2h2v2H1250.4z M1274.7,50.8v-2h2v2H1274.7z M1299.1,50.8v-2h2v2H1299.1z
		 M1323.5,50.8v-2h2v2H1323.5z M1347.8,50.8v-2h2v2H1347.8z M1372.2,50.8v-2h2v2H1372.2z M1396.6,50.8v-2h2v2H1396.6z M1421,50.8v-2
		h2v2H1421z M957.9,26.4v-2h2v2H957.9z M982.3,26.4v-2h2v2H982.3z M1006.6,26.4v-2h2v2H1006.6z M1031,26.4v-2h2v2H1031z
		 M1055.4,26.4v-2h2v2H1055.4z M1079.8,26.4v-2h2v2H1079.8z M1104.1,26.4v-2h2v2H1104.1z M1128.5,26.4v-2h2v2H1128.5z M1152.9,26.4
		v-2h2v2H1152.9z M1177.2,26.4v-2h2v2H1177.2z M1201.6,26.4v-2h2v2H1201.6z M1226,26.4v-2h2v2H1226z M1250.4,26.4v-2h2v2H1250.4z
		 M1274.7,26.4v-2h2v2H1274.7z M1299.1,26.4v-2h2v2H1299.1z M1323.5,26.4v-2h2v2H1323.5z M1347.8,26.4v-2h2v2H1347.8z M1372.2,26.4
		v-2h2v2H1372.2z M1396.6,26.4v-2h2v2H1396.6z M1421,26.4v-2h2v2H1421z M957.9,2V0h2v2H957.9z M982.3,2V0h2v2H982.3z M1006.6,2V0h2
		v2H1006.6z M1031,2V0h2v2H1031z M1055.4,2V0h2v2H1055.4z M1079.8,2V0h2v2H1079.8z M1104.1,2V0h2v2H1104.1z M1128.5,2V0h2v2H1128.5z
		 M1152.9,2V0h2v2H1152.9z M1177.2,2V0h2v2H1177.2z M1201.6,2V0h2v2H1201.6z M1226,2V0h2v2H1226z M1250.4,2V0h2v2H1250.4z M1274.7,2
		V0h2v2H1274.7z M1299.1,2V0h2v2H1299.1z M1323.5,2V0h2v2H1323.5z M1347.8,2V0h2v2H1347.8z M1372.2,2V0h2v2H1372.2z M1396.6,2V0h2v2
		H1396.6z M1421,2V0h2v2H1421z"/>
	<rect x="1323.7" y="73.2" class="st3" width="2" height="2"/>
</g>
</svg>
