<?xml version="1.0" encoding="utf-8"?>
<!-- Generator: Adobe Illustrator 24.3.0, SVG Export Plug-In . SVG Version: 6.00 Build 0)  -->
<svg version="1.1" id="Layer_1" xmlns="http://www.w3.org/2000/svg" xmlns:xlink="http://www.w3.org/1999/xlink" x="0px" y="0px"
	 viewBox="0 0 1444 392" style="enable-background:new 0 0 1444 392;" xml:space="preserve">
<style type="text/css">
	.st0{fill:#1652F0;}
	.st1{fill:url(#SVGID_1_);}
	.st2{fill:url(#SVGID_2_);}
	.st3{fill:#1752F0;}
	.st4{opacity:0.3;fill:#FFFFFF;enable-background:new    ;}
	.st5{opacity:0.7;fill:#FFFFFF;enable-background:new    ;}
	.st6{opacity:0.6;fill:#FFFFFF;enable-background:new    ;}
</style>
<rect class="st0" width="1444" height="392"/>
<linearGradient id="SVGID_1_" gradientUnits="userSpaceOnUse" x1="0.9" y1="78" x2="466" y2="78" gradientTransform="matrix(1 0 0 -1 0 274)">
	<stop  offset="0" style="stop-color:#FFFFFF"/>
	<stop  offset="1" style="stop-color:#FFFFFF;stop-opacity:0"/>
</linearGradient>
<path class="st1" d="M464,392v-2h2v2H464z M439.6,392v-2h2v2H439.6z M415.3,392v-2h2v2H415.3z M390.9,392v-2h2v2H390.9z M366.5,392
	v-2h2v2H366.5z M342.1,392v-2h2v2H342.1z M317.8,392v-2h2v2H317.8z M293.4,392v-2h2v2H293.4z M269,392v-2h2v2H269z M244.6,392v-2h2
	v2H244.6z M220.3,392v-2h2v2H220.3z M195.9,392v-2h2v2H195.9z M171.5,392v-2h2v2H171.5z M147.2,392v-2h2v2H147.2z M122.8,392v-2h2v2
	H122.8z M98.4,392v-2h2v2H98.4L98.4,392z M74,392v-2h2v2H74L74,392z M49.7,392v-2h2v2H49.7z M25.3,392v-2h2v2H25.3z M0.9,392v-2h2v2
	H0.9z M464,367.6v-2h2v2H464z M439.6,367.6v-2h2v2H439.6z M415.3,367.6v-2h2v2H415.3z M390.9,367.6v-2h2v2H390.9z M366.5,367.6v-2h2
	v2H366.5z M342.1,367.6v-2h2v2H342.1z M317.8,367.6v-2h2v2H317.8z M293.4,367.6v-2h2v2H293.4z M269,367.6v-2h2v2H269z M244.6,367.6
	v-2h2v2H244.6z M220.3,367.6v-2h2v2H220.3z M195.9,367.6v-2h2v2H195.9z M171.5,367.6v-2h2v2H171.5z M147.2,367.6v-2h2v2H147.2z
	 M122.8,367.6v-2h2v2H122.8z M98.4,367.6v-2h2v2H98.4L98.4,367.6z M74,367.6v-2h2v2H74L74,367.6z M49.7,367.6v-2h2v2H49.7z
	 M25.3,367.6v-2h2v2H25.3z M0.9,367.6v-2h2v2H0.9L0.9,367.6z M464,343.3v-2h2v2H464z M439.6,343.3v-2h2v2H439.6z M415.3,343.3v-2h2
	v2H415.3z M390.9,343.3v-2h2v2H390.9z M366.5,343.3v-2h2v2H366.5z M342.1,343.3v-2h2v2H342.1z M317.8,343.3v-2h2v2H317.8z
	 M293.4,343.3v-2h2v2H293.4z M269,343.3v-2h2v2H269z M244.6,343.3v-2h2v2H244.6z M220.3,343.3v-2h2v2H220.3z M195.9,343.3v-2h2v2
	H195.9z M171.5,343.3v-2h2v2H171.5z M147.2,343.3v-2h2v2H147.2z M122.8,343.3v-2h2v2H122.8z M98.4,343.3v-2h2v2H98.4L98.4,343.3z
	 M74,343.3v-2h2v2H74L74,343.3z M49.7,343.3v-2h2v2H49.7z M25.3,343.3v-2h2v2H25.3z M0.9,343.3v-2h2v2H0.9L0.9,343.3z M464,318.9v-2
	h2v2H464z M439.6,318.9v-2h2v2H439.6z M415.3,318.9v-2h2v2H415.3z M390.9,318.9v-2h2v2H390.9z M366.5,318.9v-2h2v2H366.5z
	 M342.1,318.9v-2h2v2H342.1z M317.8,318.9v-2h2v2H317.8z M293.4,318.9v-2h2v2H293.4z M269,318.9v-2h2v2H269z M244.6,318.9v-2h2v2
	H244.6z M220.3,318.9v-2h2v2H220.3z M195.9,318.9v-2h2v2H195.9z M171.5,318.9v-2h2v2H171.5z M147.2,318.9v-2h2v2H147.2z
	 M122.8,318.9v-2h2v2H122.8z M98.4,318.9v-2h2v2H98.4L98.4,318.9z M74,318.9v-2h2v2H74L74,318.9z M49.7,318.9v-2h2v2H49.7z
	 M25.3,318.9v-2h2v2H25.3z M0.9,318.9v-2h2v2H0.9L0.9,318.9z M464,294.5v-2h2v2H464z M439.6,294.5v-2h2v2H439.6z M415.3,294.5v-2h2
	v2H415.3z M390.9,294.5v-2h2v2H390.9z M366.5,294.5v-2h2v2H366.5z M342.1,294.5v-2h2v2H342.1z M317.8,294.5v-2h2v2H317.8z
	 M293.4,294.5v-2h2v2H293.4z M269,294.5v-2h2v2H269z M244.6,294.5v-2h2v2H244.6z M220.3,294.5v-2h2v2H220.3z M195.9,294.5v-2h2v2
	H195.9z M171.5,294.5v-2h2v2H171.5z M147.2,294.5v-2h2v2H147.2z M122.8,294.5v-2h2v2H122.8z M98.4,294.5v-2h2v2H98.4L98.4,294.5z
	 M74,294.5v-2h2v2H74L74,294.5z M49.7,294.5v-2h2v2H49.7z M25.3,294.5v-2h2v2H25.3z M0.9,294.5v-2h2v2H0.9L0.9,294.5z M464,270.1v-2
	h2v2H464z M439.6,270.1v-2h2v2H439.6z M415.3,270.1v-2h2v2H415.3z M390.9,270.1v-2h2v2H390.9z M366.5,270.1v-2h2v2H366.5z
	 M342.1,270.1v-2h2v2H342.1z M317.8,270.1v-2h2v2H317.8z M293.4,270.1v-2h2v2H293.4z M269,270.1v-2h2v2H269z M244.6,270.1v-2h2v2
	H244.6z M220.3,270.1v-2h2v2H220.3z M195.9,270.1v-2h2v2H195.9z M171.5,270.1v-2h2v2H171.5z M147.2,270.1v-2h2v2H147.2z
	 M122.8,270.1v-2h2v2H122.8z M98.4,270.1v-2h2v2H98.4L98.4,270.1z M74,270.1v-2h2v2H74L74,270.1z M49.7,270.1v-2h2v2H49.7z
	 M25.3,270.1v-2h2v2H25.3z M0.9,270.1v-2h2v2H0.9L0.9,270.1z M464,245.8v-2h2v2H464z M439.6,245.8v-2h2v2H439.6z M415.3,245.8v-2h2
	v2H415.3z M390.9,245.8v-2h2v2H390.9z M366.5,245.8v-2h2v2H366.5z M342.1,245.8v-2h2v2H342.1z M317.8,245.8v-2h2v2H317.8z
	 M293.4,245.8v-2h2v2H293.4z M269,245.8v-2h2v2H269z M244.6,245.8v-2h2v2H244.6z M220.3,245.8v-2h2v2H220.3z M195.9,245.8v-2h2v2
	H195.9z M171.5,245.8v-2h2v2H171.5z M147.2,245.8v-2h2v2H147.2z M122.8,245.8v-2h2v2H122.8z M98.4,245.8v-2h2v2H98.4L98.4,245.8z
	 M74,245.8v-2h2v2H74L74,245.8z M49.7,245.8v-2h2v2H49.7z M25.3,245.8v-2h2v2H25.3z M0.9,245.8v-2h2v2H0.9L0.9,245.8z M464,221.4v-2
	h2v2H464z M439.6,221.4v-2h2v2H439.6z M415.3,221.4v-2h2v2H415.3z M390.9,221.4v-2h2v2H390.9z M366.5,221.4v-2h2v2H366.5z
	 M342.1,221.4v-2h2v2H342.1z M317.8,221.4v-2h2v2H317.8z M293.4,221.4v-2h2v2H293.4z M269,221.4v-2h2v2H269z M244.6,221.4v-2h2v2
	H244.6z M220.3,221.4v-2h2v2H220.3z M195.9,221.4v-2h2v2H195.9z M171.5,221.4v-2h2v2H171.5z M147.2,221.4v-2h2v2H147.2z
	 M122.8,221.4v-2h2v2H122.8z M98.4,221.4v-2h2v2H98.4L98.4,221.4z M74,221.4v-2h2v2H74L74,221.4z M49.7,221.4v-2h2v2H49.7z
	 M25.3,221.4v-2h2v2H25.3z M0.9,221.4v-2h2v2H0.9L0.9,221.4z M464,197v-2h2v2H464z M439.6,197v-2h2v2H439.6z M415.3,197v-2h2v2
	H415.3z M390.9,197v-2h2v2H390.9z M366.5,197v-2h2v2H366.5z M342.1,197v-2h2v2H342.1z M317.8,197v-2h2v2H317.8z M293.4,197v-2h2v2
	H293.4z M269,197v-2h2v2H269z M244.6,197v-2h2v2H244.6z M220.3,197v-2h2v2H220.3z M195.9,197v-2h2v2H195.9z M171.5,197v-2h2v2H171.5
	z M147.2,197v-2h2v2H147.2z M122.8,197v-2h2v2H122.8z M98.4,197v-2h2v2H98.4L98.4,197z M74,197v-2h2v2H74L74,197z M49.7,197v-2h2v2
	H49.7z M25.3,197v-2h2v2H25.3z M0.9,197v-2h2v2H0.9L0.9,197z M464,172.6v-2h2v2H464z M439.6,172.6v-2h2v2H439.6z M415.3,172.6v-2h2
	v2H415.3z M390.9,172.6v-2h2v2H390.9z M366.5,172.6v-2h2v2H366.5z M342.1,172.6v-2h2v2H342.1z M317.8,172.6v-2h2v2H317.8z
	 M293.4,172.6v-2h2v2H293.4z M269,172.6v-2h2v2H269z M244.6,172.6v-2h2v2H244.6z M220.3,172.6v-2h2v2H220.3z M195.9,172.6v-2h2v2
	H195.9z M171.5,172.6v-2h2v2H171.5z M147.2,172.6v-2h2v2H147.2z M122.8,172.6v-2h2v2H122.8z M98.4,172.6v-2h2v2H98.4L98.4,172.6z
	 M74,172.6v-2h2v2H74L74,172.6z M49.7,172.6v-2h2v2H49.7z M25.3,172.6v-2h2v2H25.3z M0.9,172.6v-2h2v2H0.9L0.9,172.6z M464,148.3v-2
	h2v2H464z M439.6,148.3v-2h2v2H439.6z M415.3,148.3v-2h2v2H415.3z M390.9,148.3v-2h2v2H390.9z M366.5,148.3v-2h2v2H366.5z
	 M342.1,148.3v-2h2v2H342.1z M317.8,148.3v-2h2v2H317.8z M293.4,148.3v-2h2v2H293.4z M269,148.3v-2h2v2H269z M244.6,148.3v-2h2v2
	H244.6z M220.3,148.3v-2h2v2H220.3z M195.9,148.3v-2h2v2H195.9z M171.5,148.3v-2h2v2H171.5z M147.2,148.3v-2h2v2H147.2z
	 M122.8,148.3v-2h2v2H122.8z M98.4,148.3v-2h2v2H98.4L98.4,148.3z M74,148.3v-2h2v2H74L74,148.3z M49.7,148.3v-2h2v2H49.7z
	 M25.3,148.3v-2h2v2H25.3z M0.9,148.3v-2h2v2H0.9L0.9,148.3z M464,123.9v-2h2v2H464z M439.6,123.9v-2h2v2H439.6z M415.3,123.9v-2h2
	v2H415.3z M390.9,123.9v-2h2v2H390.9z M366.5,123.9v-2h2v2H366.5z M342.1,123.9v-2h2v2H342.1z M317.8,123.9v-2h2v2H317.8z
	 M293.4,123.9v-2h2v2H293.4z M269,123.9v-2h2v2H269z M244.6,123.9v-2h2v2H244.6z M220.3,123.9v-2h2v2H220.3z M195.9,123.9v-2h2v2
	H195.9z M171.5,123.9v-2h2v2H171.5z M147.2,123.9v-2h2v2H147.2z M122.8,123.9v-2h2v2H122.8z M98.4,123.9v-2h2v2H98.4L98.4,123.9z
	 M74,123.9v-2h2v2H74L74,123.9z M49.7,123.9v-2h2v2H49.7z M25.3,123.9v-2h2v2H25.3z M0.9,123.9v-2h2v2H0.9L0.9,123.9z M464,99.5v-2
	h2v2H464z M439.6,99.5v-2h2v2H439.6z M415.3,99.5v-2h2v2H415.3z M390.9,99.5v-2h2v2H390.9z M366.5,99.5v-2h2v2H366.5z M342.1,99.5
	v-2h2v2H342.1z M317.8,99.5v-2h2v2H317.8z M293.4,99.5v-2h2v2H293.4z M269,99.5v-2h2v2H269z M244.6,99.5v-2h2v2H244.6z M220.3,99.5
	v-2h2v2H220.3z M195.9,99.5v-2h2v2H195.9z M171.5,99.5v-2h2v2H171.5z M147.2,99.5v-2h2v2H147.2z M122.8,99.5v-2h2v2H122.8z
	 M98.4,99.5v-2h2v2H98.4L98.4,99.5z M74,99.5v-2h2v2H74L74,99.5z M49.7,99.5v-2h2v2H49.7z M25.3,99.5v-2h2v2H25.3z M0.9,99.5v-2h2v2
	H0.9L0.9,99.5z M464,75.2v-2h2v2H464z M439.6,75.2v-2h2v2H439.6z M415.3,75.2v-2h2v2H415.3z M390.9,75.2v-2h2v2H390.9z M366.5,75.2
	v-2h2v2H366.5z M342.1,75.2v-2h2v2H342.1z M317.8,75.2v-2h2v2H317.8z M293.4,75.2v-2h2v2H293.4z M269,75.2v-2h2v2H269z M244.6,75.2
	v-2h2v2H244.6z M220.3,75.2v-2h2v2H220.3z M195.9,75.2v-2h2v2H195.9z M171.5,75.2v-2h2v2H171.5z M147.2,75.2v-2h2v2H147.2z
	 M122.8,75.2v-2h2v2H122.8z M98.4,75.2v-2h2v2H98.4L98.4,75.2z M74,75.2v-2h2v2H74L74,75.2z M49.7,75.2v-2h2v2H49.7z M25.3,75.2v-2
	h2v2H25.3z M0.9,75.2v-2h2v2H0.9L0.9,75.2z M464,50.8v-2h2v2H464z M439.6,50.8v-2h2v2H439.6z M415.3,50.8v-2h2v2H415.3z M390.9,50.8
	v-2h2v2H390.9z M366.5,50.8v-2h2v2H366.5z M342.1,50.8v-2h2v2H342.1z M317.8,50.8v-2h2v2H317.8z M293.4,50.8v-2h2v2H293.4z
	 M269,50.8v-2h2v2H269z M244.6,50.8v-2h2v2H244.6z M220.3,50.8v-2h2v2H220.3z M195.9,50.8v-2h2v2H195.9z M171.5,50.8v-2h2v2H171.5z
	 M147.2,50.8v-2h2v2H147.2z M122.8,50.8v-2h2v2H122.8z M98.4,50.8v-2h2v2H98.4L98.4,50.8z M74,50.8v-2h2v2H74L74,50.8z M49.7,50.8
	v-2h2v2H49.7z M25.3,50.8v-2h2v2H25.3z M0.9,50.8v-2h2v2H0.9L0.9,50.8z M464,26.4v-2h2v2H464z M439.6,26.4v-2h2v2H439.6z
	 M415.3,26.4v-2h2v2H415.3z M390.9,26.4v-2h2v2H390.9z M366.5,26.4v-2h2v2H366.5z M342.1,26.4v-2h2v2H342.1z M317.8,26.4v-2h2v2
	H317.8z M293.4,26.4v-2h2v2H293.4z M269,26.4v-2h2v2H269z M244.6,26.4v-2h2v2H244.6z M220.3,26.4v-2h2v2H220.3z M195.9,26.4v-2h2v2
	H195.9z M171.5,26.4v-2h2v2H171.5z M147.2,26.4v-2h2v2H147.2z M122.8,26.4v-2h2v2H122.8z M98.4,26.4v-2h2v2H98.4L98.4,26.4z
	 M74,26.4v-2h2v2H74L74,26.4z M49.7,26.4v-2h2v2H49.7z M25.3,26.4v-2h2v2H25.3z M0.9,26.4v-2h2v2H0.9L0.9,26.4z M464,2V0h2v2H464z
	 M439.6,2V0h2v2H439.6z M415.3,2V0h2v2H415.3z M366.5,2V0h2v2H366.5z M342.1,2V0h2v2H342.1z M317.8,2V0h2v2H317.8z M293.4,2V0h2v2
	H293.4z M269,2V0h2v2H269z M244.6,2V0h2v2H244.6z M220.3,2V0h2v2H220.3z M195.9,2V0h2v2H195.9z M171.5,2V0h2v2H171.5z M147.2,2V0h2
	v2H147.2z M122.8,2V0h2v2H122.8z M98.4,2V0h2v2H98.4L98.4,2z M74,2V0h2v2H74L74,2z M49.7,2V0h2v2H49.7z M25.3,2V0h2v2H25.3z M0.9,2
	V0h2v2H0.9L0.9,2z"/>
<linearGradient id="SVGID_2_" gradientUnits="userSpaceOnUse" x1="1444" y1="78" x2="978.9" y2="78" gradientTransform="matrix(1 0 0 -1 0 274)">
	<stop  offset="0" style="stop-color:#FFFFFF"/>
	<stop  offset="1" style="stop-color:#FFFFFF;stop-opacity:0"/>
</linearGradient>
<path class="st2" d="M978.9,392v-2h2v2H978.9z M1003.3,392v-2h2v2H1003.3z M1027.6,392v-2h2v2H1027.6z M1052,392v-2h2v2H1052z
	 M1076.4,392v-2h2v2H1076.4z M1100.8,392v-2h2v2H1100.8z M1125.1,392v-2h2v2H1125.1z M1149.5,392v-2h2v2H1149.5z M1173.9,392v-2h2v2
	H1173.9z M1198.2,392v-2h2v2H1198.2z M1222.6,392v-2h2v2H1222.6z M1247,392v-2h2v2H1247z M1271.4,392v-2h2v2H1271.4z M1295.7,392v-2
	h2v2H1295.7z M1320.1,392v-2h2v2H1320.1z M1344.5,392v-2h2v2H1344.5z M1368.8,392v-2h2v2H1368.8z M1393.2,392v-2h2v2H1393.2z
	 M1417.6,392v-2h2v2H1417.6z M1442,392v-2h2v2H1442z M978.9,367.6v-2h2v2H978.9z M1003.3,367.6v-2h2v2H1003.3z M1027.6,367.6v-2h2v2
	H1027.6z M1052,367.6v-2h2v2H1052z M1076.4,367.6v-2h2v2H1076.4z M1100.8,367.6v-2h2v2H1100.8z M1125.1,367.6v-2h2v2H1125.1z
	 M1149.5,367.6v-2h2v2H1149.5z M1173.9,367.6v-2h2v2H1173.9z M1198.2,367.6v-2h2v2H1198.2z M1222.6,367.6v-2h2v2H1222.6z
	 M1247,367.6v-2h2v2H1247z M1271.4,367.6v-2h2v2H1271.4z M1295.7,367.6v-2h2v2H1295.7z M1320.1,367.6v-2h2v2H1320.1z M1344.5,367.6
	v-2h2v2H1344.5z M1368.8,367.6v-2h2v2H1368.8z M1393.2,367.6v-2h2v2H1393.2z M1417.6,367.6v-2h2v2H1417.6z M1442,367.6v-2h2v2H1442z
	 M978.9,343.3v-2h2v2H978.9z M1003.3,343.3v-2h2v2H1003.3z M1027.6,343.3v-2h2v2H1027.6z M1052,343.3v-2h2v2H1052z M1076.4,343.3v-2
	h2v2H1076.4z M1100.8,343.3v-2h2v2H1100.8z M1125.1,343.3v-2h2v2H1125.1z M1149.5,343.3v-2h2v2H1149.5z M1173.9,343.3v-2h2v2H1173.9
	z M1198.2,343.3v-2h2v2H1198.2z M1222.6,343.3v-2h2v2H1222.6z M1247,343.3v-2h2v2H1247z M1271.4,343.3v-2h2v2H1271.4z M1295.7,343.3
	v-2h2v2H1295.7z M1320.1,343.3v-2h2v2H1320.1z M1344.5,343.3v-2h2v2H1344.5z M1368.8,343.3v-2h2v2H1368.8z M1393.2,343.3v-2h2v2
	H1393.2z M1417.6,343.3v-2h2v2H1417.6z M1442,343.3v-2h2v2H1442z M978.9,318.9v-2h2v2H978.9z M1003.3,318.9v-2h2v2H1003.3z
	 M1027.6,318.9v-2h2v2H1027.6z M1052,318.9v-2h2v2H1052z M1076.4,318.9v-2h2v2H1076.4z M1100.8,318.9v-2h2v2H1100.8z M1125.1,318.9
	v-2h2v2H1125.1z M1149.5,318.9v-2h2v2H1149.5z M1173.9,318.9v-2h2v2H1173.9z M1198.2,318.9v-2h2v2H1198.2z M1222.6,318.9v-2h2v2
	H1222.6z M1247,318.9v-2h2v2H1247z M1271.4,318.9v-2h2v2H1271.4z M1295.7,318.9v-2h2v2H1295.7z M1320.1,318.9v-2h2v2H1320.1z
	 M1344.5,318.9v-2h2v2H1344.5z M1368.8,318.9v-2h2v2H1368.8z M1393.2,318.9v-2h2v2H1393.2z M1417.6,318.9v-2h2v2H1417.6z
	 M1442,318.9v-2h2v2H1442z M978.9,294.5v-2h2v2H978.9z M1003.3,294.5v-2h2v2H1003.3z M1027.6,294.5v-2h2v2H1027.6z M1052,294.5v-2h2
	v2H1052z M1076.4,294.5v-2h2v2H1076.4z M1100.8,294.5v-2h2v2H1100.8z M1125.1,294.5v-2h2v2H1125.1z M1149.5,294.5v-2h2v2H1149.5z
	 M1173.9,294.5v-2h2v2H1173.9z M1198.2,294.5v-2h2v2H1198.2z M1222.6,294.5v-2h2v2H1222.6z M1247,294.5v-2h2v2H1247z M1271.4,294.5
	v-2h2v2H1271.4z M1295.7,294.5v-2h2v2H1295.7z M1320.1,294.5v-2h2v2H1320.1z M1344.5,294.5v-2h2v2H1344.5z M1368.8,294.5v-2h2v2
	H1368.8z M1393.2,294.5v-2h2v2H1393.2z M1417.6,294.5v-2h2v2H1417.6z M1442,294.5v-2h2v2H1442z M978.9,270.1v-2h2v2H978.9z
	 M1003.3,270.1v-2h2v2H1003.3z M1027.6,270.1v-2h2v2H1027.6z M1052,270.1v-2h2v2H1052z M1076.4,270.1v-2h2v2H1076.4z M1100.8,270.1
	v-2h2v2H1100.8z M1125.1,270.1v-2h2v2H1125.1z M1149.5,270.1v-2h2v2H1149.5z M1173.9,270.1v-2h2v2H1173.9z M1198.2,270.1v-2h2v2
	H1198.2z M1222.6,270.1v-2h2v2H1222.6z M1247,270.1v-2h2v2H1247z M1271.4,270.1v-2h2v2H1271.4z M1295.7,270.1v-2h2v2H1295.7z
	 M1320.1,270.1v-2h2v2H1320.1z M1344.5,270.1v-2h2v2H1344.5z M1368.8,270.1v-2h2v2H1368.8z M1393.2,270.1v-2h2v2H1393.2z
	 M1417.6,270.1v-2h2v2H1417.6z M1442,270.1v-2h2v2H1442z M978.9,245.8v-2h2v2H978.9z M1003.3,245.8v-2h2v2H1003.3z M1027.6,245.8v-2
	h2v2H1027.6z M1052,245.8v-2h2v2H1052z M1076.4,245.8v-2h2v2H1076.4z M1100.8,245.8v-2h2v2H1100.8z M1125.1,245.8v-2h2v2H1125.1z
	 M1149.5,245.8v-2h2v2H1149.5z M1173.9,245.8v-2h2v2H1173.9z M1198.2,245.8v-2h2v2H1198.2z M1222.6,245.8v-2h2v2H1222.6z
	 M1247,245.8v-2h2v2H1247z M1271.4,245.8v-2h2v2H1271.4z M1295.7,245.8v-2h2v2H1295.7z M1320.1,245.8v-2h2v2H1320.1z M1344.5,245.8
	v-2h2v2H1344.5z M1368.8,245.8v-2h2v2H1368.8z M1393.2,245.8v-2h2v2H1393.2z M1417.6,245.8v-2h2v2H1417.6z M1442,245.8v-2h2v2H1442z
	 M978.9,221.4v-2h2v2H978.9z M1003.3,221.4v-2h2v2H1003.3z M1027.6,221.4v-2h2v2H1027.6z M1052,221.4v-2h2v2H1052z M1076.4,221.4v-2
	h2v2H1076.4z M1100.8,221.4v-2h2v2H1100.8z M1125.1,221.4v-2h2v2H1125.1z M1149.5,221.4v-2h2v2H1149.5z M1173.9,221.4v-2h2v2H1173.9
	z M1198.2,221.4v-2h2v2H1198.2z M1222.6,221.4v-2h2v2H1222.6z M1247,221.4v-2h2v2H1247z M1271.4,221.4v-2h2v2H1271.4z M1295.7,221.4
	v-2h2v2H1295.7z M1320.1,221.4v-2h2v2H1320.1z M1344.5,221.4v-2h2v2H1344.5z M1368.8,221.4v-2h2v2H1368.8z M1393.2,221.4v-2h2v2
	H1393.2z M1417.6,221.4v-2h2v2H1417.6z M1442,221.4v-2h2v2H1442z M978.9,197v-2h2v2H978.9z M1003.3,197v-2h2v2H1003.3z M1027.6,197
	v-2h2v2H1027.6z M1052,197v-2h2v2H1052z M1076.4,197v-2h2v2H1076.4z M1100.8,197v-2h2v2H1100.8z M1125.1,197v-2h2v2H1125.1z
	 M1149.5,197v-2h2v2H1149.5z M1173.9,197v-2h2v2H1173.9z M1198.2,197v-2h2v2H1198.2z M1222.6,197v-2h2v2H1222.6z M1247,197v-2h2v2
	H1247z M1271.4,197v-2h2v2H1271.4z M1295.7,197v-2h2v2H1295.7z M1320.1,197v-2h2v2H1320.1z M1344.5,197v-2h2v2H1344.5z M1368.8,197
	v-2h2v2H1368.8z M1393.2,197v-2h2v2H1393.2z M1417.6,197v-2h2v2H1417.6z M1442,197v-2h2v2H1442z M978.9,172.6v-2h2v2H978.9z
	 M1003.3,172.6v-2h2v2H1003.3z M1027.6,172.6v-2h2v2H1027.6z M1052,172.6v-2h2v2H1052z M1076.4,172.6v-2h2v2H1076.4z M1100.8,172.6
	v-2h2v2H1100.8z M1125.1,172.6v-2h2v2H1125.1z M1149.5,172.6v-2h2v2H1149.5z M1173.9,172.6v-2h2v2H1173.9z M1198.2,172.6v-2h2v2
	H1198.2z M1222.6,172.6v-2h2v2H1222.6z M1247,172.6v-2h2v2H1247z M1271.4,172.6v-2h2v2H1271.4z M1295.7,172.6v-2h2v2H1295.7z
	 M1320.1,172.6v-2h2v2H1320.1z M1344.5,172.6v-2h2v2H1344.5z M1368.8,172.6v-2h2v2H1368.8z M1393.2,172.6v-2h2v2H1393.2z
	 M1417.6,172.6v-2h2v2H1417.6z M1442,172.6v-2h2v2H1442z M978.9,148.3v-2h2v2H978.9z M1003.3,148.3v-2h2v2H1003.3z M1027.6,148.3v-2
	h2v2H1027.6z M1052,148.3v-2h2v2H1052z M1076.4,148.3v-2h2v2H1076.4z M1100.8,148.3v-2h2v2H1100.8z M1125.1,148.3v-2h2v2H1125.1z
	 M1149.5,148.3v-2h2v2H1149.5z M1173.9,148.3v-2h2v2H1173.9z M1198.2,148.3v-2h2v2H1198.2z M1222.6,148.3v-2h2v2H1222.6z
	 M1247,148.3v-2h2v2H1247z M1271.4,148.3v-2h2v2H1271.4z M1295.7,148.3v-2h2v2H1295.7z M1320.1,148.3v-2h2v2H1320.1z M1344.5,148.3
	v-2h2v2H1344.5z M1368.8,148.3v-2h2v2H1368.8z M1393.2,148.3v-2h2v2H1393.2z M1417.6,148.3v-2h2v2H1417.6z M1442,148.3v-2h2v2H1442z
	 M978.9,123.9v-2h2v2H978.9z M1003.3,123.9v-2h2v2H1003.3z M1027.6,123.9v-2h2v2H1027.6z M1052,123.9v-2h2v2H1052z M1076.4,123.9v-2
	h2v2H1076.4z M1100.8,123.9v-2h2v2H1100.8z M1125.1,123.9v-2h2v2H1125.1z M1149.5,123.9v-2h2v2H1149.5z M1173.9,123.9v-2h2v2H1173.9
	z M1198.2,123.9v-2h2v2H1198.2z M1222.6,123.9v-2h2v2H1222.6z M1247,123.9v-2h2v2H1247z M1271.4,123.9v-2h2v2H1271.4z M1295.7,123.9
	v-2h2v2H1295.7z M1320.1,123.9v-2h2v2H1320.1z M1344.5,123.9v-2h2v2H1344.5z M1368.8,123.9v-2h2v2H1368.8z M1393.2,123.9v-2h2v2
	H1393.2z M1417.6,123.9v-2h2v2H1417.6z M1442,123.9v-2h2v2H1442z M978.9,99.5v-2h2v2H978.9z M1003.3,99.5v-2h2v2H1003.3z
	 M1027.6,99.5v-2h2v2H1027.6z M1052,99.5v-2h2v2H1052z M1076.4,99.5v-2h2v2H1076.4z M1100.8,99.5v-2h2v2H1100.8z M1125.1,99.5v-2h2
	v2H1125.1z M1149.5,99.5v-2h2v2H1149.5z M1173.9,99.5v-2h2v2H1173.9z M1198.2,99.5v-2h2v2H1198.2z M1222.6,99.5v-2h2v2H1222.6z
	 M1247,99.5v-2h2v2H1247z M1271.4,99.5v-2h2v2H1271.4z M1295.7,99.5v-2h2v2H1295.7z M1320.1,99.5v-2h2v2H1320.1z M1344.5,99.5v-2h2
	v2H1344.5z M1368.8,99.5v-2h2v2H1368.8z M1393.2,99.5v-2h2v2H1393.2z M1417.6,99.5v-2h2v2H1417.6z M1442,99.5v-2h2v2H1442z
	 M978.9,75.2v-2h2v2H978.9z M1003.3,75.2v-2h2v2H1003.3z M1027.6,75.2v-2h2v2H1027.6z M1052,75.2v-2h2v2H1052z M1076.4,75.2v-2h2v2
	H1076.4z M1100.8,75.2v-2h2v2H1100.8z M1125.1,75.2v-2h2v2H1125.1z M1149.5,75.2v-2h2v2H1149.5z M1173.9,75.2v-2h2v2H1173.9z
	 M1198.2,75.2v-2h2v2H1198.2z M1222.6,75.2v-2h2v2H1222.6z M1247,75.2v-2h2v2H1247z M1271.4,75.2v-2h2v2H1271.4z M1295.7,75.2v-2h2
	v2H1295.7z M1320.1,75.2v-2h2v2H1320.1z M1368.8,75.2v-2h2v2H1368.8z M1393.2,75.2v-2h2v2H1393.2z M1417.6,75.2v-2h2v2H1417.6z
	 M1442,75.2v-2h2v2H1442z M978.9,50.8v-2h2v2H978.9z M1003.3,50.8v-2h2v2H1003.3z M1027.6,50.8v-2h2v2H1027.6z M1052,50.8v-2h2v2
	H1052z M1076.4,50.8v-2h2v2H1076.4z M1100.8,50.8v-2h2v2H1100.8z M1125.1,50.8v-2h2v2H1125.1z M1149.5,50.8v-2h2v2H1149.5z
	 M1173.9,50.8v-2h2v2H1173.9z M1198.2,50.8v-2h2v2H1198.2z M1222.6,50.8v-2h2v2H1222.6z M1247,50.8v-2h2v2H1247z M1271.4,50.8v-2h2
	v2H1271.4z M1295.7,50.8v-2h2v2H1295.7z M1320.1,50.8v-2h2v2H1320.1z M1344.5,50.8v-2h2v2H1344.5z M1368.8,50.8v-2h2v2H1368.8z
	 M1393.2,50.8v-2h2v2H1393.2z M1417.6,50.8v-2h2v2H1417.6z M1442,50.8v-2h2v2H1442z M978.9,26.4v-2h2v2H978.9z M1003.3,26.4v-2h2v2
	H1003.3z M1027.6,26.4v-2h2v2H1027.6z M1052,26.4v-2h2v2H1052z M1076.4,26.4v-2h2v2H1076.4z M1100.8,26.4v-2h2v2H1100.8z
	 M1125.1,26.4v-2h2v2H1125.1z M1149.5,26.4v-2h2v2H1149.5z M1173.9,26.4v-2h2v2H1173.9z M1198.2,26.4v-2h2v2H1198.2z M1222.6,26.4
	v-2h2v2H1222.6z M1247,26.4v-2h2v2H1247z M1271.4,26.4v-2h2v2H1271.4z M1295.7,26.4v-2h2v2H1295.7z M1320.1,26.4v-2h2v2H1320.1z
	 M1344.5,26.4v-2h2v2H1344.5z M1368.8,26.4v-2h2v2H1368.8z M1393.2,26.4v-2h2v2H1393.2z M1417.6,26.4v-2h2v2H1417.6z M1442,26.4v-2
	h2v2H1442z M978.9,2V0h2v2H978.9z M1003.3,2V0h2v2H1003.3z M1027.6,2V0h2v2H1027.6z M1052,2V0h2v2H1052z M1076.4,2V0h2v2H1076.4z
	 M1100.8,2V0h2v2H1100.8z M1125.1,2V0h2v2H1125.1z M1149.5,2V0h2v2H1149.5z M1173.9,2V0h2v2H1173.9z M1198.2,2V0h2v2H1198.2z
	 M1222.6,2V0h2v2H1222.6z M1247,2V0h2v2H1247z M1271.4,2V0h2v2H1271.4z M1295.7,2V0h2v2H1295.7z M1320.1,2V0h2v2H1320.1z M1344.5,2
	V0h2v2H1344.5z M1368.8,2V0h2v2H1368.8z M1393.2,2V0h2v2H1393.2z M1417.6,2V0h2v2H1417.6z M1442,2V0h2v2H1442z"/>
<path class="st3" d="M1248,212.2c9,0,16.3-7.3,16.3-16.2s-7.3-16.2-16.3-16.2s-16.3,7.3-16.3,16.2S1239,212.2,1248,212.2z"/>
<path class="st4" d="M1248,212.2c-9,0-16.3-7.3-16.3-16.2c0-9,7.3-16.2,16.3-16.2s16.3,7.3,16.3,16.2
	C1264.3,205,1257,212.2,1248,212.2z"/>
<path class="st3" d="M1369.9,358.5c9,0,16.2-7.3,16.2-16.2s-7.3-16.2-16.2-16.2c-9,0-16.3,7.3-16.3,16.2S1360.9,358.5,1369.9,358.5z
	"/>
<path class="st5" d="M1369.9,358.5c-9,0-16.3-7.3-16.3-16.2c0-9,7.3-16.2,16.3-16.2s16.2,7.3,16.2,16.2S1378.8,358.5,1369.9,358.5z"
	/>
<path class="st5" d="M1345.5,91.4c-9,0-16.3-7.3-16.3-16.2c0-9,7.3-16.2,16.3-16.2s16.2,7.3,16.2,16.2
	C1361.8,84.2,1354.5,91.4,1345.5,91.4z"/>
<path class="st3" d="M74.5,163.5c9,0,16.2-7.3,16.2-16.2c0-9-7.3-16.2-16.3-16.2s-16.2,7.3-16.2,16.2S65.6,163.5,74.5,163.5
	L74.5,163.5z"/>
<path class="st5" d="M74.5,163.5c-9,0-16.2-7.3-16.2-16.2c0-9,7.3-16.2,16.2-16.2c9,0,16.2,7.3,16.2,16.2
	C90.8,156.2,83.5,163.5,74.5,163.5L74.5,163.5z"/>
<path class="st3" d="M173.6,66c9,0,16.2-7.3,16.2-16.2s-7.3-16.3-16.2-16.3c-9,0-16.2,7.3-16.2,16.3S164.6,66,173.6,66L173.6,66z"/>
<path class="st6" d="M173.6,66c-9,0-16.2-7.3-16.2-16.2s7.3-16.3,16.2-16.3c9,0,16.2,7.3,16.2,16.3C189.8,58.7,182.5,66,173.6,66
	L173.6,66z"/>
<g>
	<polygon class="st3" points="162.5,41.6 167.3,41.6 170.3,53.8 173.3,41.6 178.1,41.6 174.8,54.8 165.8,54.8 	"/>
	<rect x="179.5" y="41.6" class="st3" width="4.8" height="13.2"/>
	<circle class="st3" cx="181.9" cy="58.9" r="2.6"/>
</g>
<path class="st3" d="M1335.4,73.3c0,0,1.4-3.3,6.8-6.2c0,0,2.9-1.7,6.3-2.2c0,0,3.6-0.2,5.5,1.7c0,0,3.7,2.7,1.1,8.8
	c0,0-1.6,3.6-5.3,6.4c0,0-3.9,3.2-6.4,3.7c0,0-3.2,1-3.6-2.2c0,0,0.1-3.2,3-4.9c0,0,2.2-0.9,2.9,0.7c0,0,0.1,0.5-0.6,1.4
	c0,0-2.7,2.5-3,3.5c0,0-0.4,1.3,1.3,0.8c0,0,4.2-1.7,7.1-5.2c0,0,2.7-2.5,2.7-5.9c0,0-0.2-3.5-3.6-2.3c0,0-3.1,1-8.8,5.4
	c0,0-2.8,2.6-5.1,0.4C1335.7,77,1334.2,75.9,1335.4,73.3z"/>
<g>
	<circle class="st6" cx="1248.1" cy="196.2" r="8.7"/>
	<g>
		<path class="st3" d="M1256.3,194c-1.1,0.9-1.8,2-2.7,3c-0.8,0.8-1.5,1.7-2.2,2.5c-0.4,0.4-0.4,0.6,0,1c0.4,0.3,0.8,0.6,1,1.3
			c-1.7,0-3.2,0-4.8,0c-0.2,0-0.3-0.1-0.3-0.3c-0.1-1.6,0-3.3,0.1-5c0.5,0.4,1,0.9,1.5,1.3c0.2,0.2,0.4,0.3,0.7,0.1
			c2.2-1.7,4.2-3.5,6.1-5.5c0,0,0-0.1,0-0.2c1.4-1.1,2.4-2.5,3.2-4.1c0.2-0.4,0.3-0.8,0-1.2c-0.3-0.3-0.7-0.2-1.1-0.2
			c-0.7,0.1-1.4,0.3-2.1,0.4c1-0.6,1.9-1.3,3.1-1.4c0.8,0,1.2,0.3,1.3,1.1c0.1,0.9-0.2,1.7-0.6,2.5c-0.7,1.3-1.6,2.5-2.6,3.7
			C1256.6,193.5,1256.4,193.7,1256.3,194z"/>
		<path class="st3" d="M1239.6,198.5c1.1-1,1.9-2.2,2.9-3.2c0.8-0.8,1.6-1.7,2.4-2.5c0.3-0.3,0.4-0.5,0-0.8
			c-0.5-0.4-0.9-0.8-1.3-1.2c0-0.1,0.1-0.2,0.1-0.2c1.5,0,3.1,0,4.6,0c0.4,0,0.4,0.3,0.4,0.5c0,1.5,0,3,0,4.7c-0.6-0.6-1-1-1.4-1.4
			c-0.3-0.3-0.5-0.3-0.8-0.1c-2.2,1.8-4.3,3.8-6.2,6c-1.1,1.1-2,2.2-2.6,3.6c-0.2,0.4-0.4,0.9-0.1,1.3c0.4,0.4,0.9,0.3,1.4,0.2
			c0.6-0.2,1.2-0.5,1.8-0.7c-0.5,0.9-2.9,1.9-3.8,1.7c-0.6-0.2-0.9-0.6-0.9-1.2c-0.1-0.8,0.2-1.5,0.6-2.2c0.7-1.3,1.6-2.5,2.5-3.7
			C1239.3,199.1,1239.6,198.9,1239.6,198.5z"/>
	</g>
</g>
<path class="st6" d="M228.4,262.2c-9,0-16.2-7.3-16.2-16.2s7.3-16.3,16.2-16.3c9,0,16.2,7.3,16.2,16.3
	C244.6,254.9,237.3,262.2,228.4,262.2L228.4,262.2z"/>
<g>
	<path class="st3" d="M236.9,253.4c-3.3,0-5.9-2.6-5.8-5.8c0.1-1.6,0.8-2.8,2.1-3.8c2.1-1.7,5.3-1.7,7.4,0c1.8,1.4,2.5,3.2,2,5.4
		c-0.5,2.1-2.4,3.8-4.6,4.1C237.6,253.4,237.3,253.4,236.9,253.4z M239.1,248c0-1.3-1-2.4-2.2-2.4s-2.2,1-2.2,2.3s1,2.4,2.2,2.4
		C238.2,250.3,239.1,249.3,239.1,248z"/>
	<path class="st3" d="M224.2,245.1c0,1.2,0,2.4,0,3.6c-0.1,2.7-1.4,4.2-4.1,4.7c-1.5,0.3-3,0.2-4.4-0.4c-1.6-0.7-2.1-2.3-1-3.7
		c0.5-0.6,0.7-0.6,1.3-0.1c0.8,0.7,1.8,1,2.8,0.7c0.8-0.2,1.1-0.8,1.1-1.7c0-2.2,0-4.4,0-6.6c0-1.3,0.6-1.9,1.9-1.9
		c0.1,0,0.3,0,0.4,0c1.3,0,1.9,0.6,1.9,1.9C224.2,242.7,224.2,243.9,224.2,245.1L224.2,245.1z"/>
	<path class="st3" d="M225.8,247.9c0-1.1,0-2.3,0-3.4c0-1.1,0.6-1.7,1.7-1.7c2.1,0,2.5,0.4,2.5,2.5c0,2,0,4.1,0,6.1
		c0,1.3-0.6,1.9-1.8,1.9c-0.3,0-0.6,0-0.8,0c-0.9,0-1.5-0.6-1.5-1.5C225.8,250.4,225.8,249.2,225.8,247.9z"/>
	<path class="st3" d="M228,238c1.6,0,2.5,1,2.1,2.4c-0.3,1-1.1,1.4-2.6,1.3c-0.9,0-1.6-0.6-1.8-1.5c-0.2-1,0.5-2.1,1.6-2.2
		C227.5,238,227.7,238,228,238z"/>
</g>
<g>
	<polygon class="st3" points="61.7,150.7 64.6,150.7 64.6,145.9 66.5,145.9 66.5,143.9 59.8,143.9 59.8,145.9 61.8,145.9 	"/>
	<polygon class="st3" points="75.6,150.7 78.5,150.7 78.5,145.9 80.4,145.9 80.4,143.9 73.7,143.9 73.7,145.9 75.7,145.9 	"/>
	<polygon class="st3" points="65.9,150.7 68.5,150.7 70.1,146.4 71.5,150.7 74.2,150.7 71.5,143.9 68.6,143.9 	"/>
	<polygon class="st3" points="79.9,150.7 82.5,150.7 84.1,146.4 85.5,150.7 88.2,150.7 85.5,143.9 82.6,143.9 	"/>
</g>
<g>
	<path class="st3" d="M1358.1,343.7c0-1.2,0.3-2.1,0.8-2.8c0.5-0.7,1.2-1,2.1-1c0.7,0,1.3,0.3,1.8,0.8v-3.8h2v10.6h-1.8l-0.1-0.8
		c-0.5,0.6-1.1,0.9-1.9,0.9c-0.9,0-1.6-0.3-2.1-1C1358.4,345.9,1358.1,345,1358.1,343.7z M1360.1,343.9c0,0.7,0.1,1.2,0.4,1.6
		c0.2,0.4,0.6,0.6,1.1,0.6c0.6,0,1.1-0.3,1.3-0.8v-3c-0.2-0.5-0.7-0.8-1.3-0.8C1360.6,341.5,1360.1,342.3,1360.1,343.9z"/>
	<path class="st3" d="M1373.2,347.5h-6.9v-1.4l3.3-3.5c0.4-0.5,0.8-0.9,1-1.3s0.3-0.7,0.3-1c0-0.4-0.1-0.8-0.3-1.1
		c-0.2-0.3-0.5-0.4-1-0.4s-0.8,0.2-1.1,0.5s-0.4,0.7-0.4,1.2h-2c0-0.6,0.1-1.2,0.4-1.7s0.7-0.9,1.2-1.2c0.5-0.3,1.1-0.4,1.8-0.4
		c1,0,1.8,0.2,2.4,0.7s0.9,1.2,0.9,2.1c0,0.5-0.1,1-0.4,1.5s-0.7,1.1-1.3,1.8l-2.3,2.4h4.3L1373.2,347.5L1373.2,347.5z"/>
	<path class="st3" d="M1376.5,340.9c0.5-0.6,1.2-1,2-1c1.6,0,2.4,0.9,2.5,2.8v4.8h-2v-4.7c0-0.4-0.1-0.7-0.3-1
		c-0.2-0.2-0.5-0.3-0.9-0.3c-0.6,0-1,0.2-1.3,0.7v5.3h-2v-10.6h2L1376.5,340.9L1376.5,340.9z"/>
</g>
</svg>
