<svg width="1444" height="392" viewBox="0 0 1444 392" fill="none" xmlns="http://www.w3.org/2000/svg">
<path d="M1444 0H0V392H1444V0Z" fill="#1652F0"/>
<path d="M464 392V390H466V392H464ZM439.6 392V390H441.6V392H439.6ZM415.3 392V390H417.3V392H415.3ZM390.9 392V390H392.9V392H390.9ZM366.5 392V390H368.5V392H366.5ZM342.1 392V390H344.1V392H342.1ZM317.8 392V390H319.8V392H317.8ZM293.4 392V390H295.4V392H293.4ZM269 392V390H271V392H269ZM244.6 392V390H246.6V392H244.6ZM220.3 392V390H222.3V392H220.3ZM195.9 392V390H197.9V392H195.9ZM171.5 392V390H173.5V392H171.5ZM147.2 392V390H149.2V392H147.2ZM122.8 392V390H124.8V392H122.8ZM98.4 392V390H100.4V392H98.4ZM74 392V390H76V392H74ZM49.7 392V390H51.7V392H49.7ZM25.3 392V390H27.3V392H25.3ZM0.900024 392V390H2.90002V392H0.900024ZM464 367.6V365.6H466V367.6H464ZM439.6 367.6V365.6H441.6V367.6H439.6ZM415.3 367.6V365.6H417.3V367.6H415.3ZM390.9 367.6V365.6H392.9V367.6H390.9ZM366.5 367.6V365.6H368.5V367.6H366.5ZM342.1 367.6V365.6H344.1V367.6H342.1ZM317.8 367.6V365.6H319.8V367.6H317.8ZM293.4 367.6V365.6H295.4V367.6H293.4ZM269 367.6V365.6H271V367.6H269ZM244.6 367.6V365.6H246.6V367.6H244.6ZM220.3 367.6V365.6H222.3V367.6H220.3ZM195.9 367.6V365.6H197.9V367.6H195.9ZM171.5 367.6V365.6H173.5V367.6H171.5ZM147.2 367.6V365.6H149.2V367.6H147.2ZM122.8 367.6V365.6H124.8V367.6H122.8ZM98.4 367.6V365.6H100.4V367.6H98.4ZM74 367.6V365.6H76V367.6H74ZM49.7 367.6V365.6H51.7V367.6H49.7ZM25.3 367.6V365.6H27.3V367.6H25.3ZM0.900024 367.6V365.6H2.90002V367.6H0.900024ZM464 343.3V341.3H466V343.3H464ZM439.6 343.3V341.3H441.6V343.3H439.6ZM415.3 343.3V341.3H417.3V343.3H415.3ZM390.9 343.3V341.3H392.9V343.3H390.9ZM366.5 343.3V341.3H368.5V343.3H366.5ZM342.1 343.3V341.3H344.1V343.3H342.1ZM317.8 343.3V341.3H319.8V343.3H317.8ZM293.4 343.3V341.3H295.4V343.3H293.4ZM269 343.3V341.3H271V343.3H269ZM244.6 343.3V341.3H246.6V343.3H244.6ZM220.3 343.3V341.3H222.3V343.3H220.3ZM195.9 343.3V341.3H197.9V343.3H195.9ZM171.5 343.3V341.3H173.5V343.3H171.5ZM147.2 343.3V341.3H149.2V343.3H147.2ZM122.8 343.3V341.3H124.8V343.3H122.8ZM98.4 343.3V341.3H100.4V343.3H98.4ZM74 343.3V341.3H76V343.3H74ZM49.7 343.3V341.3H51.7V343.3H49.7ZM25.3 343.3V341.3H27.3V343.3H25.3ZM0.900024 343.3V341.3H2.90002V343.3H0.900024ZM464 318.9V316.9H466V318.9H464ZM439.6 318.9V316.9H441.6V318.9H439.6ZM415.3 318.9V316.9H417.3V318.9H415.3ZM390.9 318.9V316.9H392.9V318.9H390.9ZM366.5 318.9V316.9H368.5V318.9H366.5ZM342.1 318.9V316.9H344.1V318.9H342.1ZM317.8 318.9V316.9H319.8V318.9H317.8ZM293.4 318.9V316.9H295.4V318.9H293.4ZM269 318.9V316.9H271V318.9H269ZM244.6 318.9V316.9H246.6V318.9H244.6ZM220.3 318.9V316.9H222.3V318.9H220.3ZM195.9 318.9V316.9H197.9V318.9H195.9ZM171.5 318.9V316.9H173.5V318.9H171.5ZM147.2 318.9V316.9H149.2V318.9H147.2ZM122.8 318.9V316.9H124.8V318.9H122.8ZM98.4 318.9V316.9H100.4V318.9H98.4ZM74 318.9V316.9H76V318.9H74ZM49.7 318.9V316.9H51.7V318.9H49.7ZM25.3 318.9V316.9H27.3V318.9H25.3ZM0.900024 318.9V316.9H2.90002V318.9H0.900024ZM464 294.5V292.5H466V294.5H464ZM439.6 294.5V292.5H441.6V294.5H439.6ZM415.3 294.5V292.5H417.3V294.5H415.3ZM390.9 294.5V292.5H392.9V294.5H390.9ZM366.5 294.5V292.5H368.5V294.5H366.5ZM342.1 294.5V292.5H344.1V294.5H342.1ZM317.8 294.5V292.5H319.8V294.5H317.8ZM293.4 294.5V292.5H295.4V294.5H293.4ZM269 294.5V292.5H271V294.5H269ZM244.6 294.5V292.5H246.6V294.5H244.6ZM220.3 294.5V292.5H222.3V294.5H220.3ZM195.9 294.5V292.5H197.9V294.5H195.9ZM171.5 294.5V292.5H173.5V294.5H171.5ZM147.2 294.5V292.5H149.2V294.5H147.2ZM122.8 294.5V292.5H124.8V294.5H122.8ZM98.4 294.5V292.5H100.4V294.5H98.4ZM74 294.5V292.5H76V294.5H74ZM49.7 294.5V292.5H51.7V294.5H49.7ZM25.3 294.5V292.5H27.3V294.5H25.3ZM0.900024 294.5V292.5H2.90002V294.5H0.900024ZM464 270.1V268.1H466V270.1H464ZM439.6 270.1V268.1H441.6V270.1H439.6ZM415.3 270.1V268.1H417.3V270.1H415.3ZM390.9 270.1V268.1H392.9V270.1H390.9ZM366.5 270.1V268.1H368.5V270.1H366.5ZM342.1 270.1V268.1H344.1V270.1H342.1ZM317.8 270.1V268.1H319.8V270.1H317.8ZM293.4 270.1V268.1H295.4V270.1H293.4ZM269 270.1V268.1H271V270.1H269ZM244.6 270.1V268.1H246.6V270.1H244.6ZM220.3 270.1V268.1H222.3V270.1H220.3ZM195.9 270.1V268.1H197.9V270.1H195.9ZM171.5 270.1V268.1H173.5V270.1H171.5ZM147.2 270.1V268.1H149.2V270.1H147.2ZM122.8 270.1V268.1H124.8V270.1H122.8ZM98.4 270.1V268.1H100.4V270.1H98.4ZM74 270.1V268.1H76V270.1H74ZM49.7 270.1V268.1H51.7V270.1H49.7ZM25.3 270.1V268.1H27.3V270.1H25.3ZM0.900024 270.1V268.1H2.90002V270.1H0.900024ZM464 245.8V243.8H466V245.8H464ZM439.6 245.8V243.8H441.6V245.8H439.6ZM415.3 245.8V243.8H417.3V245.8H415.3ZM390.9 245.8V243.8H392.9V245.8H390.9ZM366.5 245.8V243.8H368.5V245.8H366.5ZM342.1 245.8V243.8H344.1V245.8H342.1ZM317.8 245.8V243.8H319.8V245.8H317.8ZM293.4 245.8V243.8H295.4V245.8H293.4ZM269 245.8V243.8H271V245.8H269ZM244.6 245.8V243.8H246.6V245.8H244.6ZM220.3 245.8V243.8H222.3V245.8H220.3ZM195.9 245.8V243.8H197.9V245.8H195.9ZM171.5 245.8V243.8H173.5V245.8H171.5ZM147.2 245.8V243.8H149.2V245.8H147.2ZM122.8 245.8V243.8H124.8V245.8H122.8ZM98.4 245.8V243.8H100.4V245.8H98.4ZM74 245.8V243.8H76V245.8H74ZM49.7 245.8V243.8H51.7V245.8H49.7ZM25.3 245.8V243.8H27.3V245.8H25.3ZM0.900024 245.8V243.8H2.90002V245.8H0.900024ZM464 221.4V219.4H466V221.4H464ZM439.6 221.4V219.4H441.6V221.4H439.6ZM415.3 221.4V219.4H417.3V221.4H415.3ZM390.9 221.4V219.4H392.9V221.4H390.9ZM366.5 221.4V219.4H368.5V221.4H366.5ZM342.1 221.4V219.4H344.1V221.4H342.1ZM317.8 221.4V219.4H319.8V221.4H317.8ZM293.4 221.4V219.4H295.4V221.4H293.4ZM269 221.4V219.4H271V221.4H269ZM244.6 221.4V219.4H246.6V221.4H244.6ZM220.3 221.4V219.4H222.3V221.4H220.3ZM195.9 221.4V219.4H197.9V221.4H195.9ZM171.5 221.4V219.4H173.5V221.4H171.5ZM147.2 221.4V219.4H149.2V221.4H147.2ZM122.8 221.4V219.4H124.8V221.4H122.8ZM98.4 221.4V219.4H100.4V221.4H98.4ZM74 221.4V219.4H76V221.4H74ZM49.7 221.4V219.4H51.7V221.4H49.7ZM25.3 221.4V219.4H27.3V221.4H25.3ZM0.900024 221.4V219.4H2.90002V221.4H0.900024ZM464 197V195H466V197H464ZM439.6 197V195H441.6V197H439.6ZM415.3 197V195H417.3V197H415.3ZM390.9 197V195H392.9V197H390.9ZM366.5 197V195H368.5V197H366.5ZM342.1 197V195H344.1V197H342.1ZM317.8 197V195H319.8V197H317.8ZM293.4 197V195H295.4V197H293.4ZM269 197V195H271V197H269ZM244.6 197V195H246.6V197H244.6ZM220.3 197V195H222.3V197H220.3ZM195.9 197V195H197.9V197H195.9ZM171.5 197V195H173.5V197H171.5ZM147.2 197V195H149.2V197H147.2ZM122.8 197V195H124.8V197H122.8ZM98.4 197V195H100.4V197H98.4ZM74 197V195H76V197H74ZM49.7 197V195H51.7V197H49.7ZM25.3 197V195H27.3V197H25.3ZM0.900024 197V195H2.90002V197H0.900024ZM464 172.6V170.6H466V172.6H464ZM439.6 172.6V170.6H441.6V172.6H439.6ZM415.3 172.6V170.6H417.3V172.6H415.3ZM390.9 172.6V170.6H392.9V172.6H390.9ZM366.5 172.6V170.6H368.5V172.6H366.5ZM342.1 172.6V170.6H344.1V172.6H342.1ZM317.8 172.6V170.6H319.8V172.6H317.8ZM293.4 172.6V170.6H295.4V172.6H293.4ZM269 172.6V170.6H271V172.6H269ZM244.6 172.6V170.6H246.6V172.6H244.6ZM220.3 172.6V170.6H222.3V172.6H220.3ZM195.9 172.6V170.6H197.9V172.6H195.9ZM171.5 172.6V170.6H173.5V172.6H171.5ZM147.2 172.6V170.6H149.2V172.6H147.2ZM122.8 172.6V170.6H124.8V172.6H122.8ZM98.4 172.6V170.6H100.4V172.6H98.4ZM74 172.6V170.6H76V172.6H74ZM49.7 172.6V170.6H51.7V172.6H49.7ZM25.3 172.6V170.6H27.3V172.6H25.3ZM0.900024 172.6V170.6H2.90002V172.6H0.900024ZM464 148.3V146.3H466V148.3H464ZM439.6 148.3V146.3H441.6V148.3H439.6ZM415.3 148.3V146.3H417.3V148.3H415.3ZM390.9 148.3V146.3H392.9V148.3H390.9ZM366.5 148.3V146.3H368.5V148.3H366.5ZM342.1 148.3V146.3H344.1V148.3H342.1ZM317.8 148.3V146.3H319.8V148.3H317.8ZM293.4 148.3V146.3H295.4V148.3H293.4ZM269 148.3V146.3H271V148.3H269ZM244.6 148.3V146.3H246.6V148.3H244.6ZM220.3 148.3V146.3H222.3V148.3H220.3ZM195.9 148.3V146.3H197.9V148.3H195.9ZM171.5 148.3V146.3H173.5V148.3H171.5ZM147.2 148.3V146.3H149.2V148.3H147.2ZM122.8 148.3V146.3H124.8V148.3H122.8ZM98.4 148.3V146.3H100.4V148.3H98.4ZM74 148.3V146.3H76V148.3H74ZM49.7 148.3V146.3H51.7V148.3H49.7ZM25.3 148.3V146.3H27.3V148.3H25.3ZM0.900024 148.3V146.3H2.90002V148.3H0.900024ZM464 123.9V121.9H466V123.9H464ZM439.6 123.9V121.9H441.6V123.9H439.6ZM415.3 123.9V121.9H417.3V123.9H415.3ZM390.9 123.9V121.9H392.9V123.9H390.9ZM366.5 123.9V121.9H368.5V123.9H366.5ZM342.1 123.9V121.9H344.1V123.9H342.1ZM317.8 123.9V121.9H319.8V123.9H317.8ZM293.4 123.9V121.9H295.4V123.9H293.4ZM269 123.9V121.9H271V123.9H269ZM244.6 123.9V121.9H246.6V123.9H244.6ZM220.3 123.9V121.9H222.3V123.9H220.3ZM195.9 123.9V121.9H197.9V123.9H195.9ZM171.5 123.9V121.9H173.5V123.9H171.5ZM147.2 123.9V121.9H149.2V123.9H147.2ZM122.8 123.9V121.9H124.8V123.9H122.8ZM98.4 123.9V121.9H100.4V123.9H98.4ZM74 123.9V121.9H76V123.9H74ZM49.7 123.9V121.9H51.7V123.9H49.7ZM25.3 123.9V121.9H27.3V123.9H25.3ZM0.900024 123.9V121.9H2.90002V123.9H0.900024ZM464 99.5V97.5H466V99.5H464ZM439.6 99.5V97.5H441.6V99.5H439.6ZM415.3 99.5V97.5H417.3V99.5H415.3ZM390.9 99.5V97.5H392.9V99.5H390.9ZM366.5 99.5V97.5H368.5V99.5H366.5ZM342.1 99.5V97.5H344.1V99.5H342.1ZM317.8 99.5V97.5H319.8V99.5H317.8ZM293.4 99.5V97.5H295.4V99.5H293.4ZM269 99.5V97.5H271V99.5H269ZM244.6 99.5V97.5H246.6V99.5H244.6ZM220.3 99.5V97.5H222.3V99.5H220.3ZM195.9 99.5V97.5H197.9V99.5H195.9ZM171.5 99.5V97.5H173.5V99.5H171.5ZM147.2 99.5V97.5H149.2V99.5H147.2ZM122.8 99.5V97.5H124.8V99.5H122.8ZM98.4 99.5V97.5H100.4V99.5H98.4ZM74 99.5V97.5H76V99.5H74ZM49.7 99.5V97.5H51.7V99.5H49.7ZM25.3 99.5V97.5H27.3V99.5H25.3ZM0.900024 99.5V97.5H2.90002V99.5H0.900024ZM464 75.2V73.2H466V75.2H464ZM439.6 75.2V73.2H441.6V75.2H439.6ZM415.3 75.2V73.2H417.3V75.2H415.3ZM390.9 75.2V73.2H392.9V75.2H390.9ZM366.5 75.2V73.2H368.5V75.2H366.5ZM342.1 75.2V73.2H344.1V75.2H342.1ZM317.8 75.2V73.2H319.8V75.2H317.8ZM293.4 75.2V73.2H295.4V75.2H293.4ZM269 75.2V73.2H271V75.2H269ZM244.6 75.2V73.2H246.6V75.2H244.6ZM220.3 75.2V73.2H222.3V75.2H220.3ZM195.9 75.2V73.2H197.9V75.2H195.9ZM171.5 75.2V73.2H173.5V75.2H171.5ZM147.2 75.2V73.2H149.2V75.2H147.2ZM122.8 75.2V73.2H124.8V75.2H122.8ZM98.4 75.2V73.2H100.4V75.2H98.4ZM74 75.2V73.2H76V75.2H74ZM49.7 75.2V73.2H51.7V75.2H49.7ZM25.3 75.2V73.2H27.3V75.2H25.3ZM0.900024 75.2V73.2H2.90002V75.2H0.900024ZM464 50.8V48.8H466V50.8H464ZM439.6 50.8V48.8H441.6V50.8H439.6ZM415.3 50.8V48.8H417.3V50.8H415.3ZM390.9 50.8V48.8H392.9V50.8H390.9ZM366.5 50.8V48.8H368.5V50.8H366.5ZM342.1 50.8V48.8H344.1V50.8H342.1ZM317.8 50.8V48.8H319.8V50.8H317.8ZM293.4 50.8V48.8H295.4V50.8H293.4ZM269 50.8V48.8H271V50.8H269ZM244.6 50.8V48.8H246.6V50.8H244.6ZM220.3 50.8V48.8H222.3V50.8H220.3ZM195.9 50.8V48.8H197.9V50.8H195.9ZM171.5 50.8V48.8H173.5V50.8H171.5ZM147.2 50.8V48.8H149.2V50.8H147.2ZM122.8 50.8V48.8H124.8V50.8H122.8ZM98.4 50.8V48.8H100.4V50.8H98.4ZM74 50.8V48.8H76V50.8H74ZM49.7 50.8V48.8H51.7V50.8H49.7ZM25.3 50.8V48.8H27.3V50.8H25.3ZM0.900024 50.8V48.8H2.90002V50.8H0.900024ZM464 26.4V24.4H466V26.4H464ZM439.6 26.4V24.4H441.6V26.4H439.6ZM415.3 26.4V24.4H417.3V26.4H415.3ZM390.9 26.4V24.4H392.9V26.4H390.9ZM366.5 26.4V24.4H368.5V26.4H366.5ZM342.1 26.4V24.4H344.1V26.4H342.1ZM317.8 26.4V24.4H319.8V26.4H317.8ZM293.4 26.4V24.4H295.4V26.4H293.4ZM269 26.4V24.4H271V26.4H269ZM244.6 26.4V24.4H246.6V26.4H244.6ZM220.3 26.4V24.4H222.3V26.4H220.3ZM195.9 26.4V24.4H197.9V26.4H195.9ZM171.5 26.4V24.4H173.5V26.4H171.5ZM147.2 26.4V24.4H149.2V26.4H147.2ZM122.8 26.4V24.4H124.8V26.4H122.8ZM98.4 26.4V24.4H100.4V26.4H98.4ZM74 26.4V24.4H76V26.4H74ZM49.7 26.4V24.4H51.7V26.4H49.7ZM25.3 26.4V24.4H27.3V26.4H25.3ZM0.900024 26.4V24.4H2.90002V26.4H0.900024ZM464 2V0H466V2H464ZM439.6 2V0H441.6V2H439.6ZM415.3 2V0H417.3V2H415.3ZM366.5 2V0H368.5V2H366.5ZM342.1 2V0H344.1V2H342.1ZM317.8 2V0H319.8V2H317.8ZM293.4 2V0H295.4V2H293.4ZM269 2V0H271V2H269ZM244.6 2V0H246.6V2H244.6ZM220.3 2V0H222.3V2H220.3ZM195.9 2V0H197.9V2H195.9ZM171.5 2V0H173.5V2H171.5ZM147.2 2V0H149.2V2H147.2ZM122.8 2V0H124.8V2H122.8ZM98.4 2V0H100.4V2H98.4ZM74 2V0H76V2H74ZM49.7 2V0H51.7V2H49.7ZM25.3 2V0H27.3V2H25.3ZM0.900024 2V0H2.90002V2H0.900024Z" fill="url(#paint0_linear)"/>
<path d="M978.9 392V390H980.9V392H978.9ZM1003.3 392V390H1005.3V392H1003.3ZM1027.6 392V390H1029.6V392H1027.6ZM1052 392V390H1054V392H1052ZM1076.4 392V390H1078.4V392H1076.4ZM1100.8 392V390H1102.8V392H1100.8ZM1125.1 392V390H1127.1V392H1125.1ZM1149.5 392V390H1151.5V392H1149.5ZM1173.9 392V390H1175.9V392H1173.9ZM1198.2 392V390H1200.2V392H1198.2ZM1222.6 392V390H1224.6V392H1222.6ZM1247 392V390H1249V392H1247ZM1271.4 392V390H1273.4V392H1271.4ZM1295.7 392V390H1297.7V392H1295.7ZM1320.1 392V390H1322.1V392H1320.1ZM1344.5 392V390H1346.5V392H1344.5ZM1368.8 392V390H1370.8V392H1368.8ZM1393.2 392V390H1395.2V392H1393.2ZM1417.6 392V390H1419.6V392H1417.6ZM1442 392V390H1444V392H1442ZM978.9 367.6V365.6H980.9V367.6H978.9ZM1003.3 367.6V365.6H1005.3V367.6H1003.3ZM1027.6 367.6V365.6H1029.6V367.6H1027.6ZM1052 367.6V365.6H1054V367.6H1052ZM1076.4 367.6V365.6H1078.4V367.6H1076.4ZM1100.8 367.6V365.6H1102.8V367.6H1100.8ZM1125.1 367.6V365.6H1127.1V367.6H1125.1ZM1149.5 367.6V365.6H1151.5V367.6H1149.5ZM1173.9 367.6V365.6H1175.9V367.6H1173.9ZM1198.2 367.6V365.6H1200.2V367.6H1198.2ZM1222.6 367.6V365.6H1224.6V367.6H1222.6ZM1247 367.6V365.6H1249V367.6H1247ZM1271.4 367.6V365.6H1273.4V367.6H1271.4ZM1295.7 367.6V365.6H1297.7V367.6H1295.7ZM1320.1 367.6V365.6H1322.1V367.6H1320.1ZM1344.5 367.6V365.6H1346.5V367.6H1344.5ZM1368.8 367.6V365.6H1370.8V367.6H1368.8ZM1393.2 367.6V365.6H1395.2V367.6H1393.2ZM1417.6 367.6V365.6H1419.6V367.6H1417.6ZM1442 367.6V365.6H1444V367.6H1442ZM978.9 343.3V341.3H980.9V343.3H978.9ZM1003.3 343.3V341.3H1005.3V343.3H1003.3ZM1027.6 343.3V341.3H1029.6V343.3H1027.6ZM1052 343.3V341.3H1054V343.3H1052ZM1076.4 343.3V341.3H1078.4V343.3H1076.4ZM1100.8 343.3V341.3H1102.8V343.3H1100.8ZM1125.1 343.3V341.3H1127.1V343.3H1125.1ZM1149.5 343.3V341.3H1151.5V343.3H1149.5ZM1173.9 343.3V341.3H1175.9V343.3H1173.9ZM1198.2 343.3V341.3H1200.2V343.3H1198.2ZM1222.6 343.3V341.3H1224.6V343.3H1222.6ZM1247 343.3V341.3H1249V343.3H1247ZM1271.4 343.3V341.3H1273.4V343.3H1271.4ZM1295.7 343.3V341.3H1297.7V343.3H1295.7ZM1320.1 343.3V341.3H1322.1V343.3H1320.1ZM1344.5 343.3V341.3H1346.5V343.3H1344.5ZM1368.8 343.3V341.3H1370.8V343.3H1368.8ZM1393.2 343.3V341.3H1395.2V343.3H1393.2ZM1417.6 343.3V341.3H1419.6V343.3H1417.6ZM1442 343.3V341.3H1444V343.3H1442ZM978.9 318.9V316.9H980.9V318.9H978.9ZM1003.3 318.9V316.9H1005.3V318.9H1003.3ZM1027.6 318.9V316.9H1029.6V318.9H1027.6ZM1052 318.9V316.9H1054V318.9H1052ZM1076.4 318.9V316.9H1078.4V318.9H1076.4ZM1100.8 318.9V316.9H1102.8V318.9H1100.8ZM1125.1 318.9V316.9H1127.1V318.9H1125.1ZM1149.5 318.9V316.9H1151.5V318.9H1149.5ZM1173.9 318.9V316.9H1175.9V318.9H1173.9ZM1198.2 318.9V316.9H1200.2V318.9H1198.2ZM1222.6 318.9V316.9H1224.6V318.9H1222.6ZM1247 318.9V316.9H1249V318.9H1247ZM1271.4 318.9V316.9H1273.4V318.9H1271.4ZM1295.7 318.9V316.9H1297.7V318.9H1295.7ZM1320.1 318.9V316.9H1322.1V318.9H1320.1ZM1344.5 318.9V316.9H1346.5V318.9H1344.5ZM1368.8 318.9V316.9H1370.8V318.9H1368.8ZM1393.2 318.9V316.9H1395.2V318.9H1393.2ZM1417.6 318.9V316.9H1419.6V318.9H1417.6ZM1442 318.9V316.9H1444V318.9H1442ZM978.9 294.5V292.5H980.9V294.5H978.9ZM1003.3 294.5V292.5H1005.3V294.5H1003.3ZM1027.6 294.5V292.5H1029.6V294.5H1027.6ZM1052 294.5V292.5H1054V294.5H1052ZM1076.4 294.5V292.5H1078.4V294.5H1076.4ZM1100.8 294.5V292.5H1102.8V294.5H1100.8ZM1125.1 294.5V292.5H1127.1V294.5H1125.1ZM1149.5 294.5V292.5H1151.5V294.5H1149.5ZM1173.9 294.5V292.5H1175.9V294.5H1173.9ZM1198.2 294.5V292.5H1200.2V294.5H1198.2ZM1222.6 294.5V292.5H1224.6V294.5H1222.6ZM1247 294.5V292.5H1249V294.5H1247ZM1271.4 294.5V292.5H1273.4V294.5H1271.4ZM1295.7 294.5V292.5H1297.7V294.5H1295.7ZM1320.1 294.5V292.5H1322.1V294.5H1320.1ZM1344.5 294.5V292.5H1346.5V294.5H1344.5ZM1368.8 294.5V292.5H1370.8V294.5H1368.8ZM1393.2 294.5V292.5H1395.2V294.5H1393.2ZM1417.6 294.5V292.5H1419.6V294.5H1417.6ZM1442 294.5V292.5H1444V294.5H1442ZM978.9 270.1V268.1H980.9V270.1H978.9ZM1003.3 270.1V268.1H1005.3V270.1H1003.3ZM1027.6 270.1V268.1H1029.6V270.1H1027.6ZM1052 270.1V268.1H1054V270.1H1052ZM1076.4 270.1V268.1H1078.4V270.1H1076.4ZM1100.8 270.1V268.1H1102.8V270.1H1100.8ZM1125.1 270.1V268.1H1127.1V270.1H1125.1ZM1149.5 270.1V268.1H1151.5V270.1H1149.5ZM1173.9 270.1V268.1H1175.9V270.1H1173.9ZM1198.2 270.1V268.1H1200.2V270.1H1198.2ZM1222.6 270.1V268.1H1224.6V270.1H1222.6ZM1247 270.1V268.1H1249V270.1H1247ZM1271.4 270.1V268.1H1273.4V270.1H1271.4ZM1295.7 270.1V268.1H1297.7V270.1H1295.7ZM1320.1 270.1V268.1H1322.1V270.1H1320.1ZM1344.5 270.1V268.1H1346.5V270.1H1344.5ZM1368.8 270.1V268.1H1370.8V270.1H1368.8ZM1393.2 270.1V268.1H1395.2V270.1H1393.2ZM1417.6 270.1V268.1H1419.6V270.1H1417.6ZM1442 270.1V268.1H1444V270.1H1442ZM978.9 245.8V243.8H980.9V245.8H978.9ZM1003.3 245.8V243.8H1005.3V245.8H1003.3ZM1027.6 245.8V243.8H1029.6V245.8H1027.6ZM1052 245.8V243.8H1054V245.8H1052ZM1076.4 245.8V243.8H1078.4V245.8H1076.4ZM1100.8 245.8V243.8H1102.8V245.8H1100.8ZM1125.1 245.8V243.8H1127.1V245.8H1125.1ZM1149.5 245.8V243.8H1151.5V245.8H1149.5ZM1173.9 245.8V243.8H1175.9V245.8H1173.9ZM1198.2 245.8V243.8H1200.2V245.8H1198.2ZM1222.6 245.8V243.8H1224.6V245.8H1222.6ZM1247 245.8V243.8H1249V245.8H1247ZM1271.4 245.8V243.8H1273.4V245.8H1271.4ZM1295.7 245.8V243.8H1297.7V245.8H1295.7ZM1320.1 245.8V243.8H1322.1V245.8H1320.1ZM1344.5 245.8V243.8H1346.5V245.8H1344.5ZM1368.8 245.8V243.8H1370.8V245.8H1368.8ZM1393.2 245.8V243.8H1395.2V245.8H1393.2ZM1417.6 245.8V243.8H1419.6V245.8H1417.6ZM1442 245.8V243.8H1444V245.8H1442ZM978.9 221.4V219.4H980.9V221.4H978.9ZM1003.3 221.4V219.4H1005.3V221.4H1003.3ZM1027.6 221.4V219.4H1029.6V221.4H1027.6ZM1052 221.4V219.4H1054V221.4H1052ZM1076.4 221.4V219.4H1078.4V221.4H1076.4ZM1100.8 221.4V219.4H1102.8V221.4H1100.8ZM1125.1 221.4V219.4H1127.1V221.4H1125.1ZM1149.5 221.4V219.4H1151.5V221.4H1149.5ZM1173.9 221.4V219.4H1175.9V221.4H1173.9ZM1198.2 221.4V219.4H1200.2V221.4H1198.2ZM1222.6 221.4V219.4H1224.6V221.4H1222.6ZM1247 221.4V219.4H1249V221.4H1247ZM1271.4 221.4V219.4H1273.4V221.4H1271.4ZM1295.7 221.4V219.4H1297.7V221.4H1295.7ZM1320.1 221.4V219.4H1322.1V221.4H1320.1ZM1344.5 221.4V219.4H1346.5V221.4H1344.5ZM1368.8 221.4V219.4H1370.8V221.4H1368.8ZM1393.2 221.4V219.4H1395.2V221.4H1393.2ZM1417.6 221.4V219.4H1419.6V221.4H1417.6ZM1442 221.4V219.4H1444V221.4H1442ZM978.9 197V195H980.9V197H978.9ZM1003.3 197V195H1005.3V197H1003.3ZM1027.6 197V195H1029.6V197H1027.6ZM1052 197V195H1054V197H1052ZM1076.4 197V195H1078.4V197H1076.4ZM1100.8 197V195H1102.8V197H1100.8ZM1125.1 197V195H1127.1V197H1125.1ZM1149.5 197V195H1151.5V197H1149.5ZM1173.9 197V195H1175.9V197H1173.9ZM1198.2 197V195H1200.2V197H1198.2ZM1222.6 197V195H1224.6V197H1222.6ZM1247 197V195H1249V197H1247ZM1271.4 197V195H1273.4V197H1271.4ZM1295.7 197V195H1297.7V197H1295.7ZM1320.1 197V195H1322.1V197H1320.1ZM1344.5 197V195H1346.5V197H1344.5ZM1368.8 197V195H1370.8V197H1368.8ZM1393.2 197V195H1395.2V197H1393.2ZM1417.6 197V195H1419.6V197H1417.6ZM1442 197V195H1444V197H1442ZM978.9 172.6V170.6H980.9V172.6H978.9ZM1003.3 172.6V170.6H1005.3V172.6H1003.3ZM1027.6 172.6V170.6H1029.6V172.6H1027.6ZM1052 172.6V170.6H1054V172.6H1052ZM1076.4 172.6V170.6H1078.4V172.6H1076.4ZM1100.8 172.6V170.6H1102.8V172.6H1100.8ZM1125.1 172.6V170.6H1127.1V172.6H1125.1ZM1149.5 172.6V170.6H1151.5V172.6H1149.5ZM1173.9 172.6V170.6H1175.9V172.6H1173.9ZM1198.2 172.6V170.6H1200.2V172.6H1198.2ZM1222.6 172.6V170.6H1224.6V172.6H1222.6ZM1247 172.6V170.6H1249V172.6H1247ZM1271.4 172.6V170.6H1273.4V172.6H1271.4ZM1295.7 172.6V170.6H1297.7V172.6H1295.7ZM1320.1 172.6V170.6H1322.1V172.6H1320.1ZM1344.5 172.6V170.6H1346.5V172.6H1344.5ZM1368.8 172.6V170.6H1370.8V172.6H1368.8ZM1393.2 172.6V170.6H1395.2V172.6H1393.2ZM1417.6 172.6V170.6H1419.6V172.6H1417.6ZM1442 172.6V170.6H1444V172.6H1442ZM978.9 148.3V146.3H980.9V148.3H978.9ZM1003.3 148.3V146.3H1005.3V148.3H1003.3ZM1027.6 148.3V146.3H1029.6V148.3H1027.6ZM1052 148.3V146.3H1054V148.3H1052ZM1076.4 148.3V146.3H1078.4V148.3H1076.4ZM1100.8 148.3V146.3H1102.8V148.3H1100.8ZM1125.1 148.3V146.3H1127.1V148.3H1125.1ZM1149.5 148.3V146.3H1151.5V148.3H1149.5ZM1173.9 148.3V146.3H1175.9V148.3H1173.9ZM1198.2 148.3V146.3H1200.2V148.3H1198.2ZM1222.6 148.3V146.3H1224.6V148.3H1222.6ZM1247 148.3V146.3H1249V148.3H1247ZM1271.4 148.3V146.3H1273.4V148.3H1271.4ZM1295.7 148.3V146.3H1297.7V148.3H1295.7ZM1320.1 148.3V146.3H1322.1V148.3H1320.1ZM1344.5 148.3V146.3H1346.5V148.3H1344.5ZM1368.8 148.3V146.3H1370.8V148.3H1368.8ZM1393.2 148.3V146.3H1395.2V148.3H1393.2ZM1417.6 148.3V146.3H1419.6V148.3H1417.6ZM1442 148.3V146.3H1444V148.3H1442ZM978.9 123.9V121.9H980.9V123.9H978.9ZM1003.3 123.9V121.9H1005.3V123.9H1003.3ZM1027.6 123.9V121.9H1029.6V123.9H1027.6ZM1052 123.9V121.9H1054V123.9H1052ZM1076.4 123.9V121.9H1078.4V123.9H1076.4ZM1100.8 123.9V121.9H1102.8V123.9H1100.8ZM1125.1 123.9V121.9H1127.1V123.9H1125.1ZM1149.5 123.9V121.9H1151.5V123.9H1149.5ZM1173.9 123.9V121.9H1175.9V123.9H1173.9ZM1198.2 123.9V121.9H1200.2V123.9H1198.2ZM1222.6 123.9V121.9H1224.6V123.9H1222.6ZM1247 123.9V121.9H1249V123.9H1247ZM1271.4 123.9V121.9H1273.4V123.9H1271.4ZM1295.7 123.9V121.9H1297.7V123.9H1295.7ZM1320.1 123.9V121.9H1322.1V123.9H1320.1ZM1344.5 123.9V121.9H1346.5V123.9H1344.5ZM1368.8 123.9V121.9H1370.8V123.9H1368.8ZM1393.2 123.9V121.9H1395.2V123.9H1393.2ZM1417.6 123.9V121.9H1419.6V123.9H1417.6ZM1442 123.9V121.9H1444V123.9H1442ZM978.9 99.5V97.5H980.9V99.5H978.9ZM1003.3 99.5V97.5H1005.3V99.5H1003.3ZM1027.6 99.5V97.5H1029.6V99.5H1027.6ZM1052 99.5V97.5H1054V99.5H1052ZM1076.4 99.5V97.5H1078.4V99.5H1076.4ZM1100.8 99.5V97.5H1102.8V99.5H1100.8ZM1125.1 99.5V97.5H1127.1V99.5H1125.1ZM1149.5 99.5V97.5H1151.5V99.5H1149.5ZM1173.9 99.5V97.5H1175.9V99.5H1173.9ZM1198.2 99.5V97.5H1200.2V99.5H1198.2ZM1222.6 99.5V97.5H1224.6V99.5H1222.6ZM1247 99.5V97.5H1249V99.5H1247ZM1271.4 99.5V97.5H1273.4V99.5H1271.4ZM1295.7 99.5V97.5H1297.7V99.5H1295.7ZM1320.1 99.5V97.5H1322.1V99.5H1320.1ZM1344.5 99.5V97.5H1346.5V99.5H1344.5ZM1368.8 99.5V97.5H1370.8V99.5H1368.8ZM1393.2 99.5V97.5H1395.2V99.5H1393.2ZM1417.6 99.5V97.5H1419.6V99.5H1417.6ZM1442 99.5V97.5H1444V99.5H1442ZM978.9 75.2V73.2H980.9V75.2H978.9ZM1003.3 75.2V73.2H1005.3V75.2H1003.3ZM1027.6 75.2V73.2H1029.6V75.2H1027.6ZM1052 75.2V73.2H1054V75.2H1052ZM1076.4 75.2V73.2H1078.4V75.2H1076.4ZM1100.8 75.2V73.2H1102.8V75.2H1100.8ZM1125.1 75.2V73.2H1127.1V75.2H1125.1ZM1149.5 75.2V73.2H1151.5V75.2H1149.5ZM1173.9 75.2V73.2H1175.9V75.2H1173.9ZM1198.2 75.2V73.2H1200.2V75.2H1198.2ZM1222.6 75.2V73.2H1224.6V75.2H1222.6ZM1247 75.2V73.2H1249V75.2H1247ZM1271.4 75.2V73.2H1273.4V75.2H1271.4ZM1295.7 75.2V73.2H1297.7V75.2H1295.7ZM1320.1 75.2V73.2H1322.1V75.2H1320.1ZM1368.8 75.2V73.2H1370.8V75.2H1368.8ZM1393.2 75.2V73.2H1395.2V75.2H1393.2ZM1417.6 75.2V73.2H1419.6V75.2H1417.6ZM1442 75.2V73.2H1444V75.2H1442ZM978.9 50.8V48.8H980.9V50.8H978.9ZM1003.3 50.8V48.8H1005.3V50.8H1003.3ZM1027.6 50.8V48.8H1029.6V50.8H1027.6ZM1052 50.8V48.8H1054V50.8H1052ZM1076.4 50.8V48.8H1078.4V50.8H1076.4ZM1100.8 50.8V48.8H1102.8V50.8H1100.8ZM1125.1 50.8V48.8H1127.1V50.8H1125.1ZM1149.5 50.8V48.8H1151.5V50.8H1149.5ZM1173.9 50.8V48.8H1175.9V50.8H1173.9ZM1198.2 50.8V48.8H1200.2V50.8H1198.2ZM1222.6 50.8V48.8H1224.6V50.8H1222.6ZM1247 50.8V48.8H1249V50.8H1247ZM1271.4 50.8V48.8H1273.4V50.8H1271.4ZM1295.7 50.8V48.8H1297.7V50.8H1295.7ZM1320.1 50.8V48.8H1322.1V50.8H1320.1ZM1344.5 50.8V48.8H1346.5V50.8H1344.5ZM1368.8 50.8V48.8H1370.8V50.8H1368.8ZM1393.2 50.8V48.8H1395.2V50.8H1393.2ZM1417.6 50.8V48.8H1419.6V50.8H1417.6ZM1442 50.8V48.8H1444V50.8H1442ZM978.9 26.4V24.4H980.9V26.4H978.9ZM1003.3 26.4V24.4H1005.3V26.4H1003.3ZM1027.6 26.4V24.4H1029.6V26.4H1027.6ZM1052 26.4V24.4H1054V26.4H1052ZM1076.4 26.4V24.4H1078.4V26.4H1076.4ZM1100.8 26.4V24.4H1102.8V26.4H1100.8ZM1125.1 26.4V24.4H1127.1V26.4H1125.1ZM1149.5 26.4V24.4H1151.5V26.4H1149.5ZM1173.9 26.4V24.4H1175.9V26.4H1173.9ZM1198.2 26.4V24.4H1200.2V26.4H1198.2ZM1222.6 26.4V24.4H1224.6V26.4H1222.6ZM1247 26.4V24.4H1249V26.4H1247ZM1271.4 26.4V24.4H1273.4V26.4H1271.4ZM1295.7 26.4V24.4H1297.7V26.4H1295.7ZM1320.1 26.4V24.4H1322.1V26.4H1320.1ZM1344.5 26.4V24.4H1346.5V26.4H1344.5ZM1368.8 26.4V24.4H1370.8V26.4H1368.8ZM1393.2 26.4V24.4H1395.2V26.4H1393.2ZM1417.6 26.4V24.4H1419.6V26.4H1417.6ZM1442 26.4V24.4H1444V26.4H1442ZM978.9 2V0H980.9V2H978.9ZM1003.3 2V0H1005.3V2H1003.3ZM1027.6 2V0H1029.6V2H1027.6ZM1052 2V0H1054V2H1052ZM1076.4 2V0H1078.4V2H1076.4ZM1100.8 2V0H1102.8V2H1100.8ZM1125.1 2V0H1127.1V2H1125.1ZM1149.5 2V0H1151.5V2H1149.5ZM1173.9 2V0H1175.9V2H1173.9ZM1198.2 2V0H1200.2V2H1198.2ZM1222.6 2V0H1224.6V2H1222.6ZM1247 2V0H1249V2H1247ZM1271.4 2V0H1273.4V2H1271.4ZM1295.7 2V0H1297.7V2H1295.7ZM1320.1 2V0H1322.1V2H1320.1ZM1344.5 2V0H1346.5V2H1344.5ZM1368.8 2V0H1370.8V2H1368.8ZM1393.2 2V0H1395.2V2H1393.2ZM1417.6 2V0H1419.6V2H1417.6ZM1442 2V0H1444V2H1442Z" fill="url(#paint1_linear)"/>
<path d="M1248 212.2C1257 212.2 1264.3 204.9 1264.3 196C1264.3 187.1 1257 179.8 1248 179.8C1239 179.8 1231.7 187.1 1231.7 196C1231.7 204.9 1239 212.2 1248 212.2Z" fill="#1752F0"/>
<path opacity="0.3" d="M1248 212.2C1239 212.2 1231.7 204.9 1231.7 196C1231.7 187 1239 179.8 1248 179.8C1257 179.8 1264.3 187.1 1264.3 196C1264.3 205 1257 212.2 1248 212.2Z" fill="white"/>
<path d="M1369.9 358.5C1378.9 358.5 1386.1 351.2 1386.1 342.3C1386.1 333.4 1378.8 326.1 1369.9 326.1C1360.9 326.1 1353.6 333.4 1353.6 342.3C1353.6 351.2 1360.9 358.5 1369.9 358.5Z" fill="#1752F0"/>
<path opacity="0.7" d="M1369.9 358.5C1360.9 358.5 1353.6 351.2 1353.6 342.3C1353.6 333.3 1360.9 326.1 1369.9 326.1C1378.9 326.1 1386.1 333.4 1386.1 342.3C1386.1 351.2 1378.8 358.5 1369.9 358.5Z" fill="white"/>
<path opacity="0.7" d="M1345.5 91.4C1336.5 91.4 1329.2 84.1 1329.2 75.2C1329.2 66.2 1336.5 59 1345.5 59C1354.5 59 1361.7 66.3 1361.7 75.2C1361.8 84.2 1354.5 91.4 1345.5 91.4Z" fill="white"/>
<path d="M74.5 163.5C83.5 163.5 90.6999 156.2 90.6999 147.3C90.6999 138.3 83.4 131.1 74.4 131.1C65.4 131.1 58.2 138.4 58.2 147.3C58.2 156.2 65.6 163.5 74.5 163.5Z" fill="#1752F0"/>
<path opacity="0.7" d="M74.5 163.5C65.5 163.5 58.3 156.2 58.3 147.3C58.3 138.3 65.6 131.1 74.5 131.1C83.5 131.1 90.7 138.4 90.7 147.3C90.8 156.2 83.5 163.5 74.5 163.5Z" fill="white"/>
<path d="M173.6 66C182.6 66 189.8 58.7 189.8 49.8C189.8 40.9 182.5 33.5 173.6 33.5C164.6 33.5 157.4 40.8 157.4 49.8C157.4 58.8 164.6 66 173.6 66Z" fill="#1752F0"/>
<path opacity="0.6" d="M173.6 66C164.6 66 157.4 58.7 157.4 49.8C157.4 40.9 164.7 33.5 173.6 33.5C182.6 33.5 189.8 40.8 189.8 49.8C189.8 58.7 182.5 66 173.6 66Z" fill="white"/>
<path d="M162.5 41.6H167.3L170.3 53.8L173.3 41.6H178.1L174.8 54.8H165.8L162.5 41.6Z" fill="#1752F0"/>
<path d="M184.3 41.6H179.5V54.8H184.3V41.6Z" fill="#1752F0"/>
<path d="M181.9 61.4999C183.336 61.4999 184.5 60.3359 184.5 58.8999C184.5 57.464 183.336 56.2999 181.9 56.2999C180.464 56.2999 179.3 57.464 179.3 58.8999C179.3 60.3359 180.464 61.4999 181.9 61.4999Z" fill="#1752F0"/>
<path d="M1335.4 73.3C1335.4 73.3 1336.8 70 1342.2 67.1C1342.2 67.1 1345.1 65.4 1348.5 64.9C1348.5 64.9 1352.1 64.7 1354 66.6C1354 66.6 1357.7 69.3 1355.1 75.4C1355.1 75.4 1353.5 79 1349.8 81.8C1349.8 81.8 1345.9 85 1343.4 85.5C1343.4 85.5 1340.2 86.5 1339.8 83.3C1339.8 83.3 1339.9 80.1 1342.8 78.4C1342.8 78.4 1345 77.5 1345.7 79.1C1345.7 79.1 1345.8 79.6 1345.1 80.5C1345.1 80.5 1342.4 83 1342.1 84C1342.1 84 1341.7 85.3 1343.4 84.8C1343.4 84.8 1347.6 83.1 1350.5 79.6C1350.5 79.6 1353.2 77.1 1353.2 73.7C1353.2 73.7 1353 70.2 1349.6 71.4C1349.6 71.4 1346.5 72.4 1340.8 76.8C1340.8 76.8 1338 79.4 1335.7 77.2C1335.7 77 1334.2 75.9 1335.4 73.3Z" fill="#1752F0"/>
<path opacity="0.6" d="M1248.1 204.9C1252.9 204.9 1256.8 201.005 1256.8 196.2C1256.8 191.395 1252.9 187.5 1248.1 187.5C1243.29 187.5 1239.4 191.395 1239.4 196.2C1239.4 201.005 1243.29 204.9 1248.1 204.9Z" fill="white"/>
<path d="M1256.3 194C1255.2 194.9 1254.5 196 1253.6 197C1252.8 197.8 1252.1 198.7 1251.4 199.5C1251 199.9 1251 200.1 1251.4 200.5C1251.8 200.8 1252.2 201.1 1252.4 201.8C1250.7 201.8 1249.2 201.8 1247.6 201.8C1247.4 201.8 1247.3 201.7 1247.3 201.5C1247.2 199.9 1247.3 198.2 1247.4 196.5C1247.9 196.9 1248.4 197.4 1248.9 197.8C1249.1 198 1249.3 198.1 1249.6 197.9C1251.8 196.2 1253.8 194.4 1255.7 192.4C1255.7 192.4 1255.7 192.3 1255.7 192.2C1257.1 191.1 1258.1 189.7 1258.9 188.1C1259.1 187.7 1259.2 187.3 1258.9 186.9C1258.6 186.6 1258.2 186.7 1257.8 186.7C1257.1 186.8 1256.4 187 1255.7 187.1C1256.7 186.5 1257.6 185.8 1258.8 185.7C1259.6 185.7 1260 186 1260.1 186.8C1260.2 187.7 1259.9 188.5 1259.5 189.3C1258.8 190.6 1257.9 191.8 1256.9 193C1256.6 193.5 1256.4 193.7 1256.3 194Z" fill="#1752F0"/>
<path d="M1239.6 198.5C1240.7 197.5 1241.5 196.3 1242.5 195.3C1243.3 194.5 1244.1 193.6 1244.9 192.8C1245.2 192.5 1245.3 192.3 1244.9 192C1244.4 191.6 1244 191.2 1243.6 190.8C1243.6 190.7 1243.7 190.6 1243.7 190.6C1245.2 190.6 1246.8 190.6 1248.3 190.6C1248.7 190.6 1248.7 190.9 1248.7 191.1C1248.7 192.6 1248.7 194.1 1248.7 195.8C1248.1 195.2 1247.7 194.8 1247.3 194.4C1247 194.1 1246.8 194.1 1246.5 194.3C1244.3 196.1 1242.2 198.1 1240.3 200.3C1239.2 201.4 1238.3 202.5 1237.7 203.9C1237.5 204.3 1237.3 204.8 1237.6 205.2C1238 205.6 1238.5 205.5 1239 205.4C1239.6 205.2 1240.2 204.9 1240.8 204.7C1240.3 205.6 1237.9 206.6 1237 206.4C1236.4 206.2 1236.1 205.8 1236.1 205.2C1236 204.4 1236.3 203.7 1236.7 203C1237.4 201.7 1238.3 200.5 1239.2 199.3C1239.3 199.1 1239.6 198.9 1239.6 198.5Z" fill="#1752F0"/>
<path opacity="0.6" d="M228.4 262.2C219.4 262.2 212.2 254.9 212.2 246C212.2 237.1 219.5 229.7 228.4 229.7C237.4 229.7 244.6 237 244.6 246C244.6 254.9 237.3 262.2 228.4 262.2Z" fill="white"/>
<path d="M236.9 253.4C233.6 253.4 231 250.8 231.1 247.6C231.2 246 231.9 244.8 233.2 243.8C235.3 242.1 238.5 242.1 240.6 243.8C242.4 245.2 243.1 247 242.6 249.2C242.1 251.3 240.2 253 238 253.3C237.6 253.4 237.3 253.4 236.9 253.4ZM239.1 248C239.1 246.7 238.1 245.6 236.9 245.6C235.7 245.6 234.7 246.6 234.7 247.9C234.7 249.2 235.7 250.3 236.9 250.3C238.2 250.3 239.1 249.3 239.1 248Z" fill="#1752F0"/>
<path d="M224.2 245.1C224.2 246.3 224.2 247.5 224.2 248.7C224.1 251.4 222.8 252.9 220.1 253.4C218.6 253.7 217.1 253.6 215.7 253C214.1 252.3 213.6 250.7 214.7 249.3C215.2 248.7 215.4 248.7 216 249.2C216.8 249.9 217.8 250.2 218.8 249.9C219.6 249.7 219.9 249.1 219.9 248.2C219.9 246 219.9 243.8 219.9 241.6C219.9 240.3 220.5 239.7 221.8 239.7C221.9 239.7 222.1 239.7 222.2 239.7C223.5 239.7 224.1 240.3 224.1 241.6C224.2 242.7 224.2 243.9 224.2 245.1Z" fill="#1752F0"/>
<path d="M225.8 247.9C225.8 246.8 225.8 245.6 225.8 244.5C225.8 243.4 226.4 242.8 227.5 242.8C229.6 242.8 230 243.2 230 245.3C230 247.3 230 249.4 230 251.4C230 252.7 229.4 253.3 228.2 253.3C227.9 253.3 227.6 253.3 227.4 253.3C226.5 253.3 225.9 252.7 225.9 251.8C225.8 250.4 225.8 249.2 225.8 247.9Z" fill="#1752F0"/>
<path d="M228 238C229.6 238 230.5 239 230.1 240.4C229.8 241.4 229 241.8 227.5 241.7C226.6 241.7 225.9 241.1 225.7 240.2C225.5 239.2 226.2 238.1 227.3 238C227.5 238 227.7 238 228 238Z" fill="#1752F0"/>
<path d="M61.7001 150.7H64.6V145.9H66.5V143.9H59.8V145.9H61.8L61.7001 150.7Z" fill="#1752F0"/>
<path d="M75.6001 150.7H78.5001V145.9H80.4001V143.9H73.7001V145.9H75.7001L75.6001 150.7Z" fill="#1752F0"/>
<path d="M65.9 150.7H68.5L70.1 146.4L71.5 150.7H74.2L71.5 143.9H68.6L65.9 150.7Z" fill="#1752F0"/>
<path d="M79.9 150.7H82.5L84.1 146.4L85.5 150.7H88.2L85.5 143.9H82.6L79.9 150.7Z" fill="#1752F0"/>
<path d="M1358.1 343.7C1358.1 342.5 1358.4 341.6 1358.9 340.9C1359.4 340.2 1360.1 339.9 1361 339.9C1361.7 339.9 1362.3 340.2 1362.8 340.7V336.9H1364.8V347.5H1363L1362.9 346.7C1362.4 347.3 1361.8 347.6 1361 347.6C1360.1 347.6 1359.4 347.3 1358.9 346.6C1358.4 345.9 1358.1 345 1358.1 343.7ZM1360.1 343.9C1360.1 344.6 1360.2 345.1 1360.5 345.5C1360.7 345.9 1361.1 346.1 1361.6 346.1C1362.2 346.1 1362.7 345.8 1362.9 345.3V342.3C1362.7 341.8 1362.2 341.5 1361.6 341.5C1360.6 341.5 1360.1 342.3 1360.1 343.9Z" fill="#1752F0"/>
<path d="M1373.2 347.5H1366.3V346.1L1369.6 342.6C1370 342.1 1370.4 341.7 1370.6 341.3C1370.8 340.9 1370.9 340.6 1370.9 340.3C1370.9 339.9 1370.8 339.5 1370.6 339.2C1370.4 338.9 1370.1 338.8 1369.6 338.8C1369.1 338.8 1368.8 339 1368.5 339.3C1368.2 339.6 1368.1 340 1368.1 340.5H1366.1C1366.1 339.9 1366.2 339.3 1366.5 338.8C1366.8 338.3 1367.2 337.9 1367.7 337.6C1368.2 337.3 1368.8 337.2 1369.5 337.2C1370.5 337.2 1371.3 337.4 1371.9 337.9C1372.5 338.4 1372.8 339.1 1372.8 340C1372.8 340.5 1372.7 341 1372.4 341.5C1372.1 342 1371.7 342.6 1371.1 343.3L1368.8 345.7H1373.1L1373.2 347.5Z" fill="#1752F0"/>
<path d="M1376.5 340.9C1377 340.3 1377.7 339.9 1378.5 339.9C1380.1 339.9 1380.9 340.8 1381 342.7V347.5H1379V342.8C1379 342.4 1378.9 342.1 1378.7 341.8C1378.5 341.6 1378.2 341.5 1377.8 341.5C1377.2 341.5 1376.8 341.7 1376.5 342.2V347.5H1374.5V336.9H1376.5V340.9Z" fill="#1752F0"/>
<defs>
<linearGradient id="paint0_linear" x1="0.900024" y1="196" x2="466" y2="196" gradientUnits="userSpaceOnUse">
<stop stop-color="white"/>
<stop offset="1" stop-color="white" stop-opacity="0"/>
</linearGradient>
<linearGradient id="paint1_linear" x1="1444" y1="196" x2="978.9" y2="196" gradientUnits="userSpaceOnUse">
<stop stop-color="white"/>
<stop offset="1" stop-color="white" stop-opacity="0"/>
</linearGradient>
</defs>
</svg>
