<?xml version="1.0" encoding="utf-8"?>
<!-- Generator: Adobe Illustrator 24.3.0, SVG Export Plug-In . SVG Version: 6.00 Build 0)  -->
<svg version="1.1" xmlns="http://www.w3.org/2000/svg" xmlns:xlink="http://www.w3.org/1999/xlink" x="0px" y="0px"
	 viewBox="0 0 256 256" style="enable-background:new 0 0 256 256;" xml:space="preserve">
<style type="text/css">
	.st0{fill:none;}
	.st1{fill:#BFE9FF;}
	.st2{fill:#56B4FC;}
	.st3{fill:#1652F0;}
	.st4{fill:#FFFFFF;}
</style>
<g id="Layer_1">
	<path class="st0" d="M191.7,0.2"/>
	<path class="st1" d="M255,33H0.6v190.6H255C255,223.7,255,33,255,33z"/>
	<path class="st2" d="M40.2,216.9V39.7c0-3.9,3.6-6.7,7.8-6.7h159.1c4.6,0,7.8,3.1,7.8,6.7v177.2c0,3.9-3.6,6.7-7.8,6.7H48.4
		C43.9,223.9,40.2,220.8,40.2,216.9z"/>
	<path class="st2" d="M214.9,206.6H40c0,9.2,0,18.3,0,27.5c0,2.9,1,5.3,3.6,6.7c2.6,1.4,5,0.9,7.4-0.7c4.8-3.2,9.7-6.4,14.5-9.7
		c1-0.7,1.7-0.7,2.8,0c4.8,3.3,9.7,6.4,14.5,9.7c2.9,2,5.7,1.9,8.5,0c4.8-3.2,9.6-6.3,14.3-9.6c1.2-0.8,2-0.8,3.1,0
		c4.6,3.2,9.3,6.2,13.9,9.4c3.3,2.3,6.3,2.1,9.5-0.1c4.5-3.1,9.1-6,13.6-9.1c1.3-0.9,2.2-1,3.5,0c4.5,3.2,9.2,6.1,13.7,9.2
		c3.2,2.2,6.1,2.2,9.3,0c4.5-3.1,9.1-6,13.6-9.1c1.6-1.1,2.6-0.9,4.1,0.1c4.4,3.1,8.9,6,13.4,9c2.5,1.7,5,2.4,7.8,1
		c2.9-1.5,3.7-4,3.7-7.1C214.9,224.6,214.9,215.6,214.9,206.6z"/>
	<path class="st2" d="M40.1,50.1h174.8c0-9.2,0-18.3,0-27.5c0-2.9-1-5.3-3.6-6.7c-2.6-1.4-5-0.9-7.4,0.7c-4.8,3.2-9.7,6.4-14.5,9.7
		c-1,0.7-1.7,0.7-2.8,0c-4.8-3.3-9.7-6.4-14.5-9.7c-2.9-2-5.7-1.9-8.5,0c-4.8,3.2-9.6,6.3-14.3,9.6c-1.2,0.8-2,0.8-3.1,0
		c-4.6-3.2-9.3-6.2-13.9-9.4c-3.3-2.3-6.3-2.1-9.5,0.1c-4.5,3.1-9.1,6-13.6,9.1c-1.3,0.9-2.2,1-3.5,0c-4.5-3.2-9.2-6.1-13.7-9.2
		c-3.2-2.2-6.1-2.2-9.3,0C78,20,73.4,22.9,69,26c-1.6,1.1-2.6,0.9-4.1-0.1c-4.4-3.1-8.9-6-13.4-9c-2.5-1.7-5-2.4-7.8-1
		c-2.9,1.5-3.7,4-3.7,7.1C40.1,32.1,40.1,41.1,40.1,50.1z"/>
	<path class="st3" d="M215.3,33H40.2v190.6h174.6V33H215.3z"/>
	<g>
		<path class="st4" d="M147.4,72.7H64.3v7.8h83.4v-7.8H147.4z"/>
		<path class="st4" d="M147.4,96.4H64.3v7.8h83.4v-7.8H147.4z"/>
		<path class="st4" d="M64,120.1v7.8h83.3v-7.8"/>
	</g>
	<g>
		<path class="st4" d="M193.5,72.7h-26.7v7.8h26.8L193.5,72.7L193.5,72.7z"/>
		<path class="st4" d="M193.5,96.4h-26.7v7.8h26.8L193.5,96.4L193.5,96.4z"/>
		<path class="st4" d="M166.7,120.1v7.8h26.8v-7.8"/>
	</g>
</g>
<g id="Layer_2">
</g>
</svg>
