<svg width="510" height="125" viewBox="0 0 510 125" fill="none" xmlns="http://www.w3.org/2000/svg">
<path d="M75.3999 75.8C79.4999 81 81.5999 86.9 81.5999 93.5C81.5999 99.1 80.0999 104.2 77.1999 108.7C74.2999 113.2 69.9999 116.8 64.4999 119.4C58.9999 122 52.4999 123.3 45.1999 123.3H0.899902V12.5H43.1999C50.6999 12.5 57.1999 13.8 62.6999 16.3C68.0999 18.9 72.1999 22.3 74.9999 26.6C77.7999 30.9 79.0999 35.7 79.0999 41C79.0999 47.4 77.3999 52.7 73.9999 56.9C70.5999 61.2 65.9999 64.3 60.2999 66.3C66.1999 67.4 71.1999 70.6 75.3999 75.8ZM19.0999 59H41.5999C47.5999 59 52.1999 57.6 55.5999 54.9C58.8999 52.2 60.5999 48.3 60.5999 43.2C60.5999 38.2 58.8999 34.3 55.5999 31.5C52.2999 28.7 47.5999 27.3 41.5999 27.3H19.0999V59ZM58.0999 104C61.5999 101 63.3999 96.9 63.3999 91.6C63.3999 86.2 61.4999 81.9 57.7999 78.7C54.0999 75.5 49.0999 73.9 42.9999 73.9H19.0999V108.5H43.6999C49.7999 108.5 54.5999 107 58.0999 104Z" fill="white"/>
<path d="M102.3 20.4C100.1 18.2 99 15.4 99 12.1C99 8.80001 100.1 6 102.3 3.8C104.5 1.6 107.3 0.5 110.6 0.5C113.8 0.5 116.5 1.6 118.7 3.8C120.9 6 122 8.80001 122 12.1C122 15.4 120.9 18.2 118.7 20.4C116.5 22.6 113.8 23.7 110.6 23.7C107.3 23.8 104.5 22.7 102.3 20.4ZM119.5 35.4V123.3H101.3V35.4H119.5Z" fill="white"/>
<path d="M161.6 5.30005V123.3H143.4V5.30005H161.6Z" fill="white"/>
<path d="M203.7 5.30005V123.3H185.5V5.30005H203.7Z" fill="white"/>
<path d="M228.6 20.4C226.4 18.2 225.3 15.4 225.3 12.1C225.3 8.80001 226.4 6 228.6 3.8C230.8 1.6 233.6 0.5 236.9 0.5C240.1 0.5 242.8 1.6 245 3.8C247.2 6 248.3 8.80001 248.3 12.1C248.3 15.4 247.2 18.2 245 20.4C242.8 22.6 240.1 23.7 236.9 23.7C233.6 23.8 230.9 22.7 228.6 20.4ZM245.8 35.4V123.3H227.6V35.4H245.8Z" fill="white"/>
<path d="M332.7 38.3002C338.2 41.2002 342.5 45.4002 345.5 51.1002C348.6 56.7002 350.1 63.5002 350.1 71.5002V123.3H332.1V74.2002C332.1 66.3002 330.1 60.3002 326.2 56.1002C322.3 51.9002 316.9 49.8002 310.1 49.8002C303.3 49.8002 297.9 51.9002 293.9 56.1002C289.9 60.3002 287.9 66.3002 287.9 74.2002V123.3H269.7V35.4001H287.9V45.4001C290.9 41.8001 294.7 39.0001 299.3 36.9001C303.9 34.9001 308.8 33.9001 314.1 33.9001C321 34.0001 327.2 35.4002 332.7 38.3002Z" fill="white"/>
<path d="M410.1 50.3H393.8V123.3H375.5V50.3H365.1V35.5H375.5V29.3C375.5 19.2 378.2 11.8 383.6 7.20004C389 2.60004 397.4 0.300049 408.9 0.300049V15.5C403.4 15.5 399.5 16.5001 397.3 18.6001C395.1 20.7001 394 24.3 394 29.4V35.6001H410.3V50.3H410.1Z" fill="white"/>
<path opacity="0.9" d="M486.8 61.7C487.1 62.2 487.4 62.6 487.6 63.1C489.6 66.7 490.8 71 491.1 76H509.8C509.4 68.4 507.4 61.6 504 55.5C502.6 53.1 501.1 51 499.4 49L486.8 61.7Z" fill="white"/>
<path opacity="0.8" d="M468 50.0001C471.5 50.4001 474.8 51.4001 477.9 53.2001C479.5 54.1001 480.9 55.1001 482.3 56.3001L494.5 44.1001C492.5 42.4001 490.3 40.9001 487.9 39.6001C481.9 36.3001 475.2 34.5001 468 34.1001V50.0001V50.0001Z" fill="white"/>
<path d="M491.1 83.0001C490.7 87.8001 489.5 92.0001 487.4 95.6001C484.8 100.1 481.5 103.4 477.4 105.6C473.3 107.8 468.9 108.9 464.2 108.9C456.9 108.9 450.8 106.3 445.9 101.2C441.1 96.0001 438.6 88.7001 438.6 79.3001C438.6 72.9001 439.8 67.5001 442.1 63.1001C444.4 58.7001 447.6 55.4001 451.6 53.1001C454.5 51.5001 457.5 50.5001 460.8 50.0001V34.1001C454 34.6001 447.8 36.4001 442.1 39.5001C435.3 43.2001 429.9 48.5001 426 55.4001C422.1 62.3001 420.1 70.2001 420.1 79.2001C420.1 88.2001 422 96.2001 425.8 103C429.6 109.9 434.9 115.2 441.6 118.9C448.3 122.7 455.8 124.6 464.1 124.6C472.5 124.6 480.2 122.7 487.1 118.9C494.1 115.1 499.6 109.8 503.6 102.9C507.1 97.0001 509 90.3001 509.5 82.9001H491.1V83.0001Z" fill="white"/>
</svg>
