<?xml version="1.0" encoding="utf-8"?>
<!-- Generator: Adobe Illustrator 24.3.0, SVG Export Plug-In . SVG Version: 6.00 Build 0)  -->
<svg version="1.1" id="Layer_1" xmlns="http://www.w3.org/2000/svg" xmlns:xlink="http://www.w3.org/1999/xlink" x="0px" y="0px"
	 viewBox="0 0 512 512" style="enable-background:new 0 0 512 512;" xml:space="preserve">
<style type="text/css">
	.st0{fill:#FFFFFF;}
	.st1{opacity:0.9;fill:#FFFFFF;}
	.st2{opacity:0.8;fill:#FFFFFF;}
</style>
<g>
	<path class="st0" d="M76.4,270.8c4.1,5.2,6.2,11.1,6.2,17.7c0,5.6-1.5,10.7-4.4,15.2c-2.9,4.5-7.2,8.1-12.7,10.7
		c-5.5,2.6-12,3.9-19.3,3.9H1.9V207.5h42.3c7.5,0,14,1.3,19.5,3.8c5.4,2.6,9.5,6,12.3,10.3c2.8,4.3,4.1,9.1,4.1,14.4
		c0,6.4-1.7,11.7-5.1,15.9c-3.4,4.3-8,7.4-13.7,9.4C67.2,262.4,72.2,265.6,76.4,270.8z M20.1,254h22.5c6,0,10.6-1.4,14-4.1
		c3.3-2.7,5-6.6,5-11.7c0-5-1.7-8.9-5-11.7c-3.3-2.8-8-4.2-14-4.2H20.1V254z M59.1,299c3.5-3,5.3-7.1,5.3-12.4
		c0-5.4-1.9-9.7-5.6-12.9c-3.7-3.2-8.7-4.8-14.8-4.8H20.1v34.6h24.6C50.8,303.5,55.6,302,59.1,299z"/>
	<path class="st0" d="M103.3,215.4c-2.2-2.2-3.3-5-3.3-8.3c0-3.3,1.1-6.1,3.3-8.3c2.2-2.2,5-3.3,8.3-3.3c3.2,0,5.9,1.1,8.1,3.3
		c2.2,2.2,3.3,5,3.3,8.3c0,3.3-1.1,6.1-3.3,8.3c-2.2,2.2-4.9,3.3-8.1,3.3C108.3,218.8,105.5,217.7,103.3,215.4z M120.5,230.4v87.9
		h-18.2v-87.9H120.5z"/>
	<path class="st0" d="M162.6,200.3v118h-18.2v-118H162.6z"/>
	<path class="st0" d="M204.7,200.3v118h-18.2v-118H204.7z"/>
	<path class="st0" d="M229.6,215.4c-2.2-2.2-3.3-5-3.3-8.3c0-3.3,1.1-6.1,3.3-8.3c2.2-2.2,5-3.3,8.3-3.3c3.2,0,5.9,1.1,8.1,3.3
		c2.2,2.2,3.3,5,3.3,8.3c0,3.3-1.1,6.1-3.3,8.3c-2.2,2.2-4.9,3.3-8.1,3.3C234.6,218.8,231.9,217.7,229.6,215.4z M246.8,230.4v87.9
		h-18.2v-87.9H246.8z"/>
	<path class="st0" d="M333.7,233.3c5.5,2.9,9.8,7.1,12.8,12.8c3.1,5.6,4.6,12.4,4.6,20.4v51.8h-18v-49.1c0-7.9-2-13.9-5.9-18.1
		c-3.9-4.2-9.3-6.3-16.1-6.3c-6.8,0-12.2,2.1-16.2,6.3c-4,4.2-6,10.2-6,18.1v49.1h-18.2v-87.9h18.2v10c3-3.6,6.8-6.4,11.4-8.5
		c4.6-2,9.5-3,14.8-3C322,229,328.2,230.4,333.7,233.3z"/>
	<path class="st0" d="M411.1,245.3h-16.3v73h-18.3v-73h-10.4v-14.8h10.4v-6.2c0-10.1,2.7-17.5,8.1-22.1c5.4-4.6,13.8-6.9,25.3-6.9
		v15.2c-5.5,0-9.4,1-11.6,3.1s-3.3,5.7-3.3,10.8v6.2h16.3V245.3z"/>
	<g>
		<path class="st1" d="M487.8,256.7c0.3,0.5,0.6,0.9,0.8,1.4c2,3.6,3.2,7.9,3.5,12.9h18.7c-0.4-7.6-2.4-14.4-5.8-20.5
			c-1.4-2.4-2.9-4.5-4.6-6.5L487.8,256.7z"/>
		<path class="st2" d="M469,245c3.5,0.4,6.8,1.4,9.9,3.2c1.6,0.9,3,1.9,4.4,3.1l12.2-12.2c-2-1.7-4.2-3.2-6.6-4.5
			c-6-3.3-12.7-5.1-19.9-5.5V245z"/>
		<path class="st0" d="M492.1,278c-0.4,4.8-1.6,9-3.7,12.6c-2.6,4.5-5.9,7.8-10,10c-4.1,2.2-8.5,3.3-13.2,3.3
			c-7.3,0-13.4-2.6-18.3-7.7c-4.8-5.2-7.3-12.5-7.3-21.9c0-6.4,1.2-11.8,3.5-16.2c2.3-4.4,5.5-7.7,9.5-10c2.9-1.6,5.9-2.6,9.2-3.1
			v-15.9c-6.8,0.5-13,2.3-18.7,5.4c-6.8,3.7-12.2,9-16.1,15.9c-3.9,6.9-5.9,14.8-5.9,23.8c0,9,1.9,17,5.7,23.8
			c3.8,6.9,9.1,12.2,15.8,15.9c6.7,3.8,14.2,5.7,22.5,5.7c8.4,0,16.1-1.9,23-5.7c7-3.8,12.5-9.1,16.5-16c3.5-5.9,5.4-12.6,5.9-20
			H492.1z"/>
	</g>
</g>
</svg>
