<svg width="510" height="125" viewBox="0 0 510 125" fill="none" xmlns="http://www.w3.org/2000/svg">
<path d="M75.2 76.1001C79.3 81.3001 81.4 87.2 81.4 93.8C81.4 99.4 79.9 104.5 77 109C74.1 113.5 69.8 117.1 64.3 119.7C58.8 122.3 52.3 123.6 45 123.6H0.699951V12.8H43C50.5 12.8 57 14.1001 62.5 16.6001C67.9 19.2001 72 22.6 74.8 26.9C77.6 31.2 78.9 36 78.9 41.3C78.9 47.7 77.2 53.0001 73.8 57.2001C70.4 61.5001 65.7999 64.6001 60.0999 66.6001C65.9999 67.7001 71.1 70.9001 75.2 76.1001ZM18.9 59.3H41.4C47.4 59.3 52 57.9001 55.4 55.2001C58.7 52.5001 60.4 48.6 60.4 43.5C60.4 38.5 58.7 34.6 55.4 31.8C52.1 29 47.4 27.6001 41.4 27.6001H18.9V59.3ZM58 104.3C61.5 101.3 63.3 97.2 63.3 91.9C63.3 86.5 61.4 82.2 57.7 79C54 75.8 49 74.2001 42.9 74.2001H18.9V108.8H43.5C49.6 108.8 54.5 107.3 58 104.3Z" fill="#1652F0"/>
<path d="M102.2 20.7C99.9999 18.5 98.8999 15.7 98.8999 12.4C98.8999 9.10004 99.9999 6.30005 102.2 4.10005C104.4 1.90005 107.2 0.800049 110.5 0.800049C113.7 0.800049 116.4 1.90005 118.6 4.10005C120.8 6.30005 121.9 9.10004 121.9 12.4C121.9 15.7 120.8 18.5 118.6 20.7C116.4 22.9 113.7 24 110.5 24C107.2 24.1 104.4 23 102.2 20.7ZM119.4 35.7V123.6H101.2V35.7H119.4V35.7Z" fill="#1652F0"/>
<path d="M161.5 5.6001V123.6H143.3V5.6001H161.5V5.6001Z" fill="#1652F0"/>
<path d="M203.6 5.6001V123.6H185.4V5.6001H203.6V5.6001Z" fill="#1652F0"/>
<path d="M228.5 20.7C226.3 18.5 225.2 15.7 225.2 12.4C225.2 9.10004 226.3 6.30005 228.5 4.10005C230.7 1.90005 233.5 0.800049 236.8 0.800049C240 0.800049 242.7 1.90005 244.9 4.10005C247.1 6.30005 248.2 9.10004 248.2 12.4C248.2 15.7 247.1 18.5 244.9 20.7C242.7 22.9 240 24 236.8 24C233.5 24.1 230.7 23 228.5 20.7ZM245.7 35.7V123.6H227.5V35.7H245.7V35.7Z" fill="#1652F0"/>
<path d="M332.5 38.6002C338 41.5002 342.3 45.7002 345.3 51.4002C348.4 57.0002 349.9 63.8002 349.9 71.8002V123.6H331.9V74.5002C331.9 66.6002 329.9 60.6002 326 56.4002C322.1 52.2002 316.7 50.1002 309.9 50.1002C303.1 50.1002 297.7 52.2002 293.7 56.4002C289.7 60.6002 287.7 66.6002 287.7 74.5002V123.6H269.5V35.7002H287.7V45.7002C290.7 42.1002 294.5 39.3002 299.1 37.2002C303.7 35.2002 308.6 34.2002 313.9 34.2002C320.9 34.3002 327.1 35.7002 332.5 38.6002Z" fill="#1652F0"/>
<path d="M410 50.6001H393.7V123.6H375.4V50.6001H365V35.8001H375.4V29.6001C375.4 19.5001 378.1 12.1001 383.5 7.50009C388.9 2.90009 397.3 0.600098 408.8 0.600098V15.8001C403.3 15.8001 399.4 16.8001 397.2 18.9001C395 21.0001 393.9 24.6001 393.9 29.7001V35.9001H410V50.6001Z" fill="#1652F0"/>
<path opacity="0.9" d="M486.6 62C486.9 62.5 487.2 62.9 487.4 63.4C489.4 67 490.6 71.3 490.9 76.3H509.6C509.2 68.7 507.2 61.9 503.8 55.8C502.4 53.4 500.9 51.3 499.2 49.3L486.6 62Z" fill="#1652F0"/>
<path opacity="0.8" d="M467.9 50.3001C471.4 50.7001 474.7 51.7002 477.8 53.5002C479.4 54.4002 480.8 55.4002 482.2 56.6002L494.4 44.4001C492.4 42.7001 490.2 41.2001 487.8 39.9001C481.8 36.6001 475.1 34.8001 467.9 34.4001V50.3001V50.3001Z" fill="#1652F0"/>
<path d="M491 83.3001C490.6 88.1001 489.4 92.3001 487.3 95.9001C484.7 100.4 481.4 103.7 477.3 105.9C473.2 108.1 468.8 109.2 464.1 109.2C456.8 109.2 450.7 106.6 445.8 101.5C441 96.3002 438.5 89.0002 438.5 79.6002C438.5 73.2002 439.7 67.8001 442 63.4001C444.3 59.0001 447.5 55.7001 451.5 53.4001C454.4 51.8001 457.4 50.8001 460.7 50.3001V34.4001C453.9 34.9001 447.7 36.7002 442 39.8002C435.2 43.5002 429.8 48.8002 425.9 55.7002C422 62.6002 420 70.5002 420 79.5002C420 88.5002 421.9 96.5001 425.7 103.3C429.5 110.2 434.8 115.5 441.5 119.2C448.2 123 455.7 124.9 464 124.9C472.4 124.9 480.1 123 487 119.2C494 115.4 499.5 110.1 503.5 103.2C507 97.3002 508.9 90.6002 509.4 83.2002H491V83.3001Z" fill="#1652F0"/>
</svg>
