<svg width="640" height="309" viewBox="0 0 640 309" fill="none" xmlns="http://www.w3.org/2000/svg">
<path opacity="0.1" d="M320 309C497 309 640 307 640 305C640 303 497 301 320 301C143 301 0 303 0 305C0 307 143 309 320 309Z" fill="#1652F0"/>
<path d="M117 149H136V169C136 169.53 135.789 170.039 135.414 170.414C135.039 170.789 134.53 171 134 171H119C118.47 171 117.961 170.789 117.586 170.414C117.211 170.039 117 169.53 117 169V149ZM134 171H119L121 172C121.2 172.444 121.556 172.8 122 173H131C131.395 173.051 131.796 172.984 132.153 172.806C132.509 172.627 132.804 172.347 133 172L134 171Z" fill="#153363"/>
<path d="M135 167V164C136.061 164 137.078 163.579 137.828 162.828C138.579 162.078 139 161.061 139 160C139 158.939 138.579 157.922 137.828 157.172C137.078 156.421 136.061 156 135 156V153C136.857 153 138.637 153.737 139.95 155.05C141.263 156.363 142 158.143 142 160C142 161.857 141.263 163.637 139.95 164.95C138.637 166.263 136.857 167 135 167Z" fill="#153363"/>
<path d="M127 178L131 165H129C128.269 165.168 127.6 165.539 127.069 166.069C126.539 166.6 126.168 167.269 126 168L123 176L127 178Z" fill="#95D1FE"/>
<path d="M128 180L125 171H122C120.674 171 119.402 170.473 118.464 169.536C117.527 168.598 117 167.326 117 166V157L115 159L114 161L113 171L115 176L121 184L128 180Z" fill="#95D1FE"/>
<path opacity="0.5" d="M128 180L127 176L122 179C120 179 120 179 117 175C114 171 115 171 116 166L115 159L114 161L113 171L115 176L121 184L128 180Z" fill="#56B4FC"/>
<path d="M594 0H236C229 0 224 5 224 12V256C224 263 229 268 236 268H594C601 268 606 263 606 256V12C606 5 601 0 594 0Z" fill="#D4EEFF"/>
<path d="M458 268H372V294H458V268Z" fill="#95D1FE"/>
<path opacity="0.5" d="M372 271C378 270 380 269 392 272C408 276 411 272 426 272C437 271 449 274 458 274V268H372V271Z" fill="#56B4FC"/>
<path d="M527 305H303C301.309 305.122 299.622 304.703 298.185 303.805C296.747 302.906 295.631 301.574 295 300L293 294H537L535 300C534.369 301.574 533.253 302.906 531.815 303.805C530.378 304.703 528.691 305.122 527 305Z" fill="#D4EEFF"/>
<path d="M586 20H244V248H586V20Z" fill="#95D1FE"/>
<path d="M564 20H266V248H564V20Z" fill="white"/>
<path opacity="0.5" d="M369 52L366 63C366 63.2652 365.895 63.5196 365.707 63.7071C365.52 63.8946 365.265 64 365 64L354 67L365 70C365.265 70 365.52 70.1054 365.707 70.2929C365.895 70.4804 366 70.7348 366 71L369 82L372 71C372 70.7348 372.105 70.4804 372.293 70.2929C372.48 70.1054 372.735 70 373 70L384 67L373 63C372.848 63.0878 372.676 63.134 372.5 63.134C372.324 63.134 372.152 63.0878 372 63L369 52Z" fill="#FFD066"/>
<path d="M359 52H355V48H353V52H349V54H353V58H355V54H359V52Z" fill="#D4EEFF"/>
<path d="M381 56C381.265 56 381.52 55.8946 381.707 55.7071C381.895 55.5196 382 55.2652 382 55C382 54.7348 381.895 54.4804 381.707 54.2929C381.52 54.1054 381.265 54 381 54C380.735 54 380.48 54.1054 380.293 54.2929C380.105 54.4804 380 54.7348 380 55C380 55.2652 380.105 55.5196 380.293 55.7071C380.48 55.8946 380.735 56 381 56ZM358 82C358.265 82 358.52 81.8946 358.707 81.7071C358.895 81.5196 359 81.2652 359 81C359 80.7348 358.895 80.4804 358.707 80.2929C358.52 80.1054 358.265 80 358 80C357.735 80 357.48 80.1054 357.293 80.2929C357.105 80.4804 357 80.7348 357 81C357 81.2652 357.105 81.5196 357.293 81.7071C357.48 81.8946 357.735 82 358 82Z" fill="#95D1FE"/>
<path d="M466 166H298V178H466V166ZM466 188H298V200H466V188ZM422 210H298V222H422V210Z" fill="#D4EEFF"/>
<path d="M532 166H482V190H532V166Z" fill="#56B4FC"/>
<path d="M205 164C208 164 211 159 211 154C210 148 207 144 204 144C201 144 198 149 199 154C199 160 202 164 205 164Z" fill="#95D1FE"/>
<path opacity="0.5" d="M210 154C210 148 207 144 204 144C201 144 199 147 199 151H204C208 150 207 153 209 155C210 157 209 159 208 162C210 159 211 157 210 154Z" fill="#56B4FC"/>
<path d="M213 169C213 169 224 188 224 219C224 238 216 267 204 286H177L164 254C172 241 178 226 183 210C168 225 157 239 148 239C138 239 116 183 116 183L130 177L150 212C150 212 194 169 204 169H213Z" fill="#56B4FC"/>
<g opacity="0.3">
<path opacity="0.3" d="M203 236C197 241 189 244 181 247L166 251L165 253L182 249C190 246 198 243 204 238L223 228L224 226L203 236Z" fill="#1652F0"/>
<path opacity="0.3" d="M205 241C198 246 191 250 183 252C177 254 171 256 165 256L166 258L184 254C192 251 199 248 206 243L223 235V232L205 241ZM207 247C200 251 193 255 185 257L167 262L168 263C174 263 180 261 186 259C193 257 201 253 208 248L221 241L222 239C217 241 212 243 207 247ZM222 215C214 218 207 221 200 226C191.741 231.493 182.612 235.55 173 238L171 240C181.597 237.2 191.71 232.817 201 227C208 223 215 219 223 217H224V214L222 215Z" fill="#1652F0"/>
<path opacity="0.3" d="M209 252C202 256 194 260 187 262L169 267L170 269L187 264C195 262 203 258 210 254C213 251 216 249 220 248V245L209 252ZM202 231C191.996 237.528 180.768 241.951 169 244L168 247C180.416 244.483 192.273 239.74 203 233C209 228 216 225 224 222V220C216 223 209 226 202 231ZM212 271L213 268C207 272 199 276 192 278L175 282L176 284L193 280C199 278 206 275 212 271ZM221 210C213 212 205 216 198 221C191 225 184 229 176 231H175L174 234C182.78 231.005 191.172 226.977 199 222C206 218 213 214 221 212L224 211V209L221 210ZM178 215L182 211C170.948 216.02 159.102 219.066 147 220L134 222L135 224L147 222C157.67 221.545 168.17 219.174 178 215V215ZM210 257C204 262 196 265 188 268L171 272L172 274L189 270L211 259L218 255L219 252L210 257ZM209 277C201.146 281.194 192.725 284.226 184 286H192L194 285L208 280L209 277ZM149 228L170 224L173 221L149 226L137 227L138 229L149 228ZM212 262C200.339 269.957 186.988 275.093 173 277L174 279L191 275C199 272 206 269 213 264L215 263L216 260L212 262ZM151 238L156 236H152L144 237L147 239L151 238ZM151 233L162 231L164 229L150 231L140 232L142 234L151 233ZM205 285L202 286H204L205 285ZM212 184C204 186 196 190 189 194C178.349 200.888 166.463 205.642 154 208L151 211L168 207C176 204 183 201 190 196C198.798 189.943 208.624 185.537 219 183L218 182L212 184ZM219 205C211 207 203 211 196 215C191 219 185 222 178 224L177 227L197 217C204.953 211.607 213.736 207.554 223 205V203L219 205ZM142 207L147 206L145 204L142 205L127 207V209L142 207ZM208 173C200 176 193 179 186 184L173 191L169 195L187 186C195.505 180.069 204.981 175.669 215 173L214 172L208 173ZM203 169L200 170L187 179C193.826 174.648 201.233 171.281 209 169H204H203ZM210 178L188 189C180.047 194.393 171.264 198.446 162 201L159 204C169.546 201.056 179.64 196.682 189 191C197.494 185.051 206.974 180.65 217 178L216 176L210 178ZM140 201H144L143 199H140L124 202L125 204L140 201ZM143 212L149 211L148 209L143 210L129 212L130 214L143 212ZM215 194C207 197 200 200 193 205L183 211L182 213L194 207C202.494 201.051 211.974 196.65 222 194L221 192L215 194Z" fill="#1652F0"/>
<path opacity="0.3" d="M213 189C206 191 198 195 191 200C184 204 177 208 169 210C161 213 153 215 145 215L131 217L132 219L145 217C154 217 162 215 170 212C178 210 185 206 192 201C200.565 195.403 210.04 191.342 220 189V187L213 189ZM138 196H141L140 194H138C133 195 127 195 122 197L123 199L138 196ZM217 199C209 202 201 205 195 210L181 218L180 220L196 212C204.259 206.507 213.388 202.45 223 200L222 198L217 199ZM132 181L131 179L124 180L117 183L132 181ZM136 191H138L137 189H136C131 189 125 190 120 192V194L136 191ZM135 186L134 184C128 184 123 185 118 187V188L135 186Z" fill="#1652F0"/>
</g>
<path opacity="0.5" d="M224 219C224 188 213 169 213 169H210C215 174 220 192 218 207C217 223 222 234 215 248L198 281C189 275 191 269 183 264C174 259 170 255 166 251L164 255L174 279L203 287L205 285C217 266 224 238 224 219Z" fill="#1652F0"/>
<path d="M167 271L91 267L17 291L25 301L86 286C86 286 146 306 177 306C194 306 167 271 167 271Z" fill="#153363"/>
<path d="M113 268L94 267L81 287L86 286L108 293C110 287 106 281 108 275L113 268ZM167 271L130 269L134 277C138 283 140 280 143 286C146 291 149 298 154 304L177 306C194 306 167 271 167 271Z" fill="#1F2833"/>
<path d="M134 294C124 293 113 289 104 286C95 283 75 286 69 287C63 288 57 292 46 293C34 294 30 296 23 299L25 302L86 286C86 286 146 306 177 306C187 306 182 294 176 284L154 292C142 294 144 295 134 294Z" fill="#1F2833"/>
<path d="M64 305H85V297H79L66 301C65.3062 301.392 64.7451 301.982 64.3888 302.694C64.0324 303.407 63.8971 304.21 64 305V305ZM5 289L19 305L25 300L22 296L10 289C9.29055 288.432 8.40882 288.123 7.5 288.123C6.59118 288.123 5.70945 288.432 5 289V289Z" fill="#153363"/>
<path d="M124 144C123.848 144.088 123.675 144.134 123.5 144.134C123.324 144.134 123.152 144.088 123 144V139V135L122 132C121.227 131.027 120.727 129.866 120.551 128.636C120.375 127.405 120.53 126.151 121 125C121 124.735 121.105 124.48 121.293 124.293C121.48 124.105 121.734 124 122 124C122.265 124 122.519 124.105 122.707 124.293C122.894 124.48 123 124.735 123 125C122 128 123 129 124 130L125 134V139V143C125 143.265 124.894 143.52 124.707 143.707C124.519 143.895 124.265 144 124 144ZM130 143C129.734 143 129.48 142.895 129.293 142.707C129.105 142.52 129 142.265 129 142V130L130 126V118C130 117.735 130.105 117.48 130.293 117.293C130.48 117.105 130.734 117 131 117C131.265 117 131.519 117.105 131.707 117.293C131.894 117.48 132 117.735 132 118C133 122 132 124 131 127V130V142C131 142.265 130.894 142.52 130.707 142.707C130.519 142.895 130.265 143 130 143Z" fill="#D4EEFF"/>
<path d="M210 156L208 149L199 148C201 136 197 131 198 125C198.466 125.621 199.07 126.125 199.764 126.472C200.458 126.819 201.224 127 202 127L203 125L207 127C207 127 208 125 210 125C209 132 212 144 210 156Z" fill="#153363"/>
<path d="M69 295L87 299L124 250C124 250 150 306 177 306C187 306 196 298 204 286C204 286 133 222 121 222C105 222 69 295 69 295Z" fill="#1652F0"/>
<path opacity="0.5" d="M530 300C528 303 521 303 509 302H453C438 303 394 302 382 301C370 300 329 303 313 303C300 303 301 302 295 300C295.631 301.574 296.747 302.906 298.185 303.805C299.622 304.703 301.309 305.122 303 305H527C528.691 305.122 530.378 304.703 531.815 303.805C533.253 302.906 534.369 301.574 535 300L537 294H533L530 300Z" fill="#95D1FE"/>
<path opacity="0.5" d="M153 231C145 236 145 229 140 224C136 219 132 214 129 204C127 196 121 185 119 182L116 183C116 183 138 239 148 239C157 239 168 225 183 210L173 217C166 221 161 227 153 231ZM186 214C189 206 195 199 195 199L183 210C178 226 172 241 164 254L166 259L167 257C170 249 173 237 178 231C184 225 184 223 186 214Z" fill="#1652F0"/>
<path opacity="0.5" d="M204 286L198 281C195 286 193 290 188 294C180 299 178 298 167 295C155 292 152 284 143 276C133 269 132 256 124 250C124 250 150 306 177 306C187 306 196 298 204 286ZM107 265C102 276 95 287 89 290C83 293 79 291 74 293L69 295L87 299L124 250C119 253 113 255 107 265Z" fill="#153363"/>
<path d="M409.001 72.5498L419.407 67.9248L425.651 77.1748L436.751 79.0248V90.3561L445.307 97.7561L439.295 107.237L442.301 118.106L432.126 122.962L428.888 133.831L417.788 132.212L409.001 139.612L400.445 132.212L389.345 133.831L386.107 122.962L375.701 118.106L378.938 107.237L372.926 97.7561L381.251 90.3561L381.482 79.0248L392.582 77.1748L398.826 67.9248L409.001 72.5498Z" fill="#FEC85E"/>
<path d="M409.001 76.7125L418.02 72.7812L423.339 80.875L432.82 82.4937L433.051 92.2062L440.22 98.6812L435.132 106.775L437.676 116.256L428.889 120.188L426.114 129.669L416.401 128.281L409.001 134.525L401.601 128.281L392.12 129.669L389.345 120.188L380.557 116.256L383.101 106.775L378.014 98.6812L385.182 92.2062V82.4937L394.895 80.875L400.214 72.7812L409.001 76.7125Z" fill="#FFD066"/>
<path d="M418.482 91.9746C419.176 92.6684 420.101 93.5934 420.795 94.2871C413.857 101.225 406.92 108.162 399.982 115.1C399.289 114.406 398.364 113.481 397.67 112.787C404.376 106.081 411.314 98.9121 418.482 91.9746Z" fill="white"/>
<path d="M401.37 101.456C398.595 101.456 396.051 99.1434 396.051 96.1371C396.051 93.3621 398.363 90.8184 401.37 90.8184C404.376 90.8184 406.688 93.1309 406.688 96.1371C406.688 98.9121 404.376 101.456 401.37 101.456ZM403.22 96.1371C403.22 95.2121 402.295 94.2871 401.37 94.5184C400.445 94.5184 399.751 95.4434 399.751 96.3684C399.751 97.2934 400.676 97.9871 401.601 97.9871C402.526 97.7559 403.22 97.0621 403.22 96.1371Z" fill="white"/>
<path d="M411.545 111.4C411.545 108.625 413.857 106.081 416.864 106.081C419.87 106.081 422.182 108.394 422.182 111.4C422.182 114.175 419.87 116.719 416.864 116.719C413.857 116.487 411.545 114.175 411.545 111.4ZM418.482 111.4C418.482 110.475 417.789 109.55 416.864 109.55C415.939 109.55 415.014 110.475 415.014 111.4C415.014 112.325 415.939 113.25 416.864 113.25C417.789 113.019 418.482 112.325 418.482 111.4Z" fill="white"/>
</svg>
