<svg width="36" height="36" viewBox="0 0 36 36" fill="none" xmlns="http://www.w3.org/2000/svg">
<path d="M0 0V36L2.25 33.75L4.5 36L6.75 33.75L9 36L11.25 33.75L13.5 36L15.75 33.75L18 36L20.25 33.75L22.5 36L24.75 33.75L27 36V6.75L20.25 0H0Z" fill="#BFE9FF"/>
<path d="M22.5 16.3125H4.5V17.4375H22.5V16.3125Z" fill="white"/>
<path d="M22.5 12.9375H4.5V14.0625H22.5V12.9375Z" fill="white"/>
<path d="M22.5 9.5625H4.5V10.6875H22.5V9.5625Z" fill="white"/>
<path d="M22.5 19.6875H4.5V20.8125H22.5V19.6875Z" fill="white"/>
<path d="M22.5 23.0625H4.5V24.1875H22.5V23.0625Z" fill="white"/>
<path d="M18 26.4375H9V27.5625H18V26.4375Z" fill="white"/>
<path d="M27 32.625C31.9706 32.625 36 28.5956 36 23.625C36 18.6544 31.9706 14.625 27 14.625C22.0294 14.625 18 18.6544 18 23.625C18 28.5956 22.0294 32.625 27 32.625Z" fill="#56B4FC"/>
<path d="M18 23.625C18 28.5975 22.0275 32.625 27 32.625V14.625C22.0275 14.625 18 18.6525 18 23.625Z" fill="#1652F0"/>
<path d="M20.25 6.75H27L20.25 0V6.75Z" fill="#56B4FC"/>
<path d="M24.741 26.774L31.5134 20.8466L30.7725 20L24 25.9274L24.741 26.774Z" fill="white"/>
<path d="M25.4166 25.7951L22.8249 23L22 23.7649L24.5917 26.56L25.4166 25.7951Z" fill="white"/>
</svg>
