<svg width="256" height="256" viewBox="0 0 256 256" fill="none" xmlns="http://www.w3.org/2000/svg">
<rect width="256" height="256" rx="128" fill="white"/>
<path opacity="0.9" d="M178.07 87.4332C178.759 88.5823 179.449 89.5017 179.908 90.6509C184.505 98.9249 187.263 108.808 187.953 120.3H230.932C230.012 102.832 225.416 87.2033 217.601 73.1834C214.384 67.6674 210.936 62.8408 207.029 58.2441L178.07 87.4332Z" fill="#1652F0"/>
<path opacity="0.8" d="M135.091 60.5437C143.135 61.463 150.72 63.7616 157.845 67.8986C161.522 69.9672 164.74 72.2655 167.957 75.0235L195.997 46.9835C191.4 43.0763 186.344 39.6288 180.828 36.6409C167.038 29.0564 151.639 24.9193 135.091 24V60.5437Z" fill="#1652F0"/>
<path d="M188.183 136.389C187.263 147.421 184.505 157.074 179.679 165.348C173.703 175.691 166.118 183.275 156.695 188.331C147.272 193.388 137.159 195.916 126.357 195.916C109.579 195.916 95.5592 189.94 84.2973 178.219C73.2652 166.268 67.5194 149.49 67.5194 127.885C67.5194 113.176 70.2774 100.765 75.5636 90.652C80.8498 80.5393 88.2045 72.9548 97.3979 67.6686C104.063 63.9912 110.958 61.6929 118.543 60.5437V24C102.914 25.1492 88.6642 29.2864 75.5636 36.4113C59.9348 44.9152 47.5238 57.0964 38.5602 72.955C29.5967 88.8136 25 106.97 25 127.656C25 148.341 29.3669 166.727 38.1006 182.356C46.8343 198.214 59.0155 210.396 74.4144 218.899C89.8133 227.633 107.051 232 126.127 232C145.433 232 163.131 227.633 178.989 218.899C195.078 210.166 207.718 197.984 216.912 182.126C224.956 168.566 229.323 153.167 230.472 136.159H188.183V136.389Z" fill="#1652F0"/>
</svg>
