<?xml version="1.0" encoding="utf-8"?>
<!-- Generator: Adobe Illustrator 24.3.0, SVG Export Plug-In . SVG Version: 6.00 Build 0)  -->
<svg version="1.1" id="Layer_1" xmlns="http://www.w3.org/2000/svg" xmlns:xlink="http://www.w3.org/1999/xlink" x="0px" y="0px"
	 viewBox="0 0 332 332" style="enable-background:new 0 0 332 332;" xml:space="preserve">
<style type="text/css">
	.st0{fill:#56B4FC;}
	.st1{fill:#D4EEFF;}
	.st2{fill:#1652F0;}
	.st3{fill:#FFFFFF;}
</style>
<rect x="118.5" y="297.6" class="st0" width="90.3" height="15.1"/>
<rect x="118.5" y="316.9" class="st0" width="90.3" height="15.1"/>
<rect x="8.5" y="190.7" transform="matrix(0.9403 -0.3402 0.3402 0.9403 -66.4618 22.5442)" class="st1" width="45.1" height="20.3"/>
<rect x="24.4" y="71.8" transform="matrix(0.4068 -0.9135 0.9135 0.4068 -65.7079 87.5608)" class="st1" width="20.3" height="45.1"/>
<rect x="97.7" y="1.4" transform="matrix(0.9269 -0.3754 0.3754 0.9269 -1.1051 42.2397)" class="st1" width="20.3" height="45.1"/>
<rect x="287" y="173.8" transform="matrix(0.3402 -0.9403 0.9403 0.3402 11.3786 408.9497)" class="st1" width="20.3" height="45.1"/>
<rect x="272.1" y="84.3" transform="matrix(0.9269 -0.3754 0.3754 0.9269 -13.9044 117.535)" class="st1" width="45.1" height="20.3"/>
<rect x="198.2" y="13.8" transform="matrix(0.4068 -0.9135 0.9135 0.4068 109.1364 215.8881)" class="st1" width="45.1" height="20.3"/>
<path class="st2" d="M268.6,151.4c0-56.8-47-102.8-105-102.8s-105,46-105,102.8c0,41,24.4,76.3,59.7,92.8v49.3h90.3v-49.3
	C244.2,227.7,268.6,192.4,268.6,151.4z"/>
<polygon class="st3" points="208.9,155.4 118.5,155.4 118.5,186.8 148.1,186.8 148.1,293.5 179.4,293.5 179.4,186.8 208.9,186.8 "/>
</svg>
