<?xml version="1.0" encoding="utf-8"?>
<!-- Generator: Adobe Illustrator 24.3.0, SVG Export Plug-In . SVG Version: 6.00 Build 0)  -->
<svg version="1.1" id="Layer_1" xmlns="http://www.w3.org/2000/svg" xmlns:xlink="http://www.w3.org/1999/xlink" x="0px" y="0px"
	 viewBox="0 0 32 32" style="enable-background:new 0 0 32 32;" xml:space="preserve">
<style type="text/css">
	.st0{fill:#FEC85E;}
	.st1{fill:#FFD066;}
	.st2{fill:#FFFFFF;}
</style>
<g>
	<polygon class="st0" points="16,2.4 20.5,0.4 23.2,4.4 28,5.2 28,10.1 31.7,13.3 29.1,17.4 30.4,22.1 26,24.2 24.6,28.9 19.8,28.2 
		16,31.4 12.3,28.2 7.5,28.9 6.1,24.2 1.6,22.1 3,17.4 0.4,13.3 4,10.1 4.1,5.2 8.9,4.4 11.6,0.4 	"/>
	<polygon class="st1" points="16,4.2 19.9,2.5 22.2,6 26.3,6.7 26.4,10.9 29.5,13.7 27.3,17.2 28.4,21.3 24.6,23 23.4,27.1 
		19.2,26.5 16,29.2 12.8,26.5 8.7,27.1 7.5,23 3.7,21.3 4.8,17.2 2.6,13.7 5.7,10.9 5.7,6.7 9.9,6 12.2,2.5 	"/>
	<g>
		<path class="st2" d="M20.1,10.8c0.3,0.3,0.7,0.7,1,1c-3,3-6,6-9,9c-0.3-0.3-0.7-0.7-1-1C14,16.9,17,13.8,20.1,10.8z"/>
		<path class="st2" d="M12.7,14.9c-1.2,0-2.3-1-2.3-2.3c0-1.2,1-2.3,2.3-2.3s2.3,1,2.3,2.3C15,13.8,14,14.9,12.7,14.9z M13.5,12.6
			c0-0.4-0.4-0.8-0.8-0.7c-0.4,0-0.7,0.4-0.7,0.8c0,0.4,0.4,0.7,0.8,0.7C13.2,13.3,13.5,13,13.5,12.6z"/>
		<path class="st2" d="M17.1,19.2c0-1.2,1-2.3,2.3-2.3s2.3,1,2.3,2.3c0,1.2-1,2.3-2.3,2.3C18.1,21.4,17.1,20.4,17.1,19.2z
			 M20.1,19.2c0-0.4-0.3-0.8-0.7-0.8c-0.4,0-0.8,0.4-0.8,0.8S19,20,19.4,20C19.8,19.9,20.1,19.6,20.1,19.2z"/>
	</g>
</g>
</svg>
