<?xml version="1.0" encoding="utf-8"?>
<!-- Generator: Adobe Illustrator 24.3.0, SVG Export Plug-In . SVG Version: 6.00 Build 0)  -->
<svg version="1.1" id="Layer_1" xmlns="http://www.w3.org/2000/svg" xmlns:xlink="http://www.w3.org/1999/xlink" x="0px" y="0px"
	 viewBox="0 0 256 256" style="enable-background:new 0 0 256 256;" xml:space="preserve">
<style type="text/css">
	.st0{fill:#56B4FC;}
	.st1{fill:#D4EEFF;}
	.st2{fill:#1652F0;}
	.st3{fill:#FFFFFF;}
</style>
<path class="st0" d="M0.2,0.3"/>
<path class="st1" d="M254.1,0.7H2v176h252.1V0.7z"/>
<path class="st0" d="M207.3,163.7l-26.6-8.6l13.1-25.2l-18.5-18.5L150.5,125L142,98h-26.1l-8.6,27L83,111.9l-18.5,18.5l13.1,25.2
	l-26.6,8.6v25.7l26.6,8.6l-13.1,25.2L83,242l24.8-13.1l8.6,27h26.1l8.6-27l24.8,13.1l18.5-18.5l-13.1-25.2l26.6-8.6v-26.1H207.3z"/>
<path class="st2" d="M204.1,162.8l-23.4-7.7l13.1-25.2l-18.5-18.5l-25.2,12.6L142,98l-27-0.5l-8.1,27l-24.3-13.1l-18.5,18.5
	l13.1,25.2l-26.6,8.6v13.1h157.1v-13.1L204.1,162.8z M254.1,0.7H2v31.5h252.1V0.7z"/>
<circle class="st3" cx="128.9" cy="176.8" r="19.8"/>
</svg>
