<svg width="256" height="256" viewBox="0 0 256 256" fill="none" xmlns="http://www.w3.org/2000/svg">
<path d="M70 1.1C67.8 1.95 66.15 3.3 61.45 7.95C54.25 15.1 53.3 16.8 53.25 22.25C53.25 25.15 53.5 26.8 54.2 28.25C54.85 29.6 70.85 46 103.95 79.15L152.75 128L103.9 176.9C65.9 214.9 54.8 226.25 54.05 228C53.35 229.5 53 231.35 53 233.5C53 238.65 54.45 241.15 61.4 248.05C66.3 252.9 67.75 254 70.15 254.9C73.8 256.3 76.7 256.3 80.35 254.95C83.15 253.95 85.75 251.4 141.85 195.3C206.7 130.5 203 134.6 203 128C203 121.4 206.7 125.5 141.85 60.7C85.7 4.54999 83.15 2.05 80.35 1.05C76.75 -0.249998 73.55 -0.249998 70 1.1Z" fill="black"/>
</svg>
