<?xml version="1.0" encoding="utf-8"?>
<!-- Generator: Adobe Illustrator 24.3.0, SVG Export Plug-In . SVG Version: 6.00 Build 0)  -->
<svg version="1.1" id="Layer_1" xmlns="http://www.w3.org/2000/svg" xmlns:xlink="http://www.w3.org/1999/xlink" x="0px" y="0px"
	 viewBox="0 0 32 32" style="enable-background:new 0 0 32 32;" xml:space="preserve">
<style type="text/css">
	.st0{fill:#D4EEFF;}
	.st1{fill:#56B4FC;}
	.st2{fill:#1652F0;}
	.st3{fill:#FFFFFF;}
</style>
<path class="st0" d="M16,0.1C10.3,0.1,5.7,4.5,5.7,11v13.9h20.7V11C26.3,4.5,21.7,0.1,16,0.1L16,0.1z"/>
<path class="st1" d="M30.5,12h-29v19.9h29V12z"/>
<path class="st2" d="M26.3,12H5.7V28h20.7V12z"/>
<path class="st3" d="M16,18l2.7,6h-5.5L16,18L16,18z"/>
<path class="st3" d="M16,20c1.2,0,2-0.9,2-2c0-1.1-1-2-2-2s-2,0.9-2,2S14.8,20,16,20z"/>
</svg>
