<?xml version="1.0" encoding="utf-8"?>
<!-- Generator: Adobe Illustrator 24.3.0, SVG Export Plug-In . SVG Version: 6.00 Build 0)  -->
<svg version="1.1" id="Layer_1" xmlns="http://www.w3.org/2000/svg" xmlns:xlink="http://www.w3.org/1999/xlink" x="0px" y="0px"
	 viewBox="0 0 32 32" style="enable-background:new 0 0 32 32;" xml:space="preserve">
<style type="text/css">
	.st0{fill-rule:evenodd;clip-rule:evenodd;fill:#55B4FC;}
	.st1{fill-rule:evenodd;clip-rule:evenodd;fill:#D4EEFF;}
	.st2{fill-rule:evenodd;clip-rule:evenodd;fill:#1752F0;}
	.st3{fill-rule:evenodd;clip-rule:evenodd;fill:#FFFFFF;}
</style>
<path class="st0" d="M29.7,5.3c3,3,3,7.9,0,11l-6.2,6.2l-11-11l6.2-6.2C21.8,2.2,26.7,2.2,29.7,5.3z"/>
<path class="st1" d="M2.3,5.3c3-3,7.9-3,11,0l7.2,7.2l-11,11l-7.2-7.2C-0.8,13.2-0.8,8.3,2.3,5.3z"/>
<path class="st2" d="M27,19L16,30L5,19L16,8L27,19z"/>
<path class="st3" d="M16,13.2l1.4,4.5l4.5,1.4l-4.5,1.4L16,24.8l-1.4-4.5L10.2,19l4.5-1.4L16,13.2L16,13.2z"/>
</svg>
