<?xml version="1.0" encoding="utf-8"?>
<!-- Generator: Adobe Illustrator 24.3.0, SVG Export Plug-In . SVG Version: 6.00 Build 0)  -->
<svg version="1.1" id="Layer_1" xmlns="http://www.w3.org/2000/svg" xmlns:xlink="http://www.w3.org/1999/xlink" x="0px" y="0px"
	 viewBox="0 0 256 256" style="enable-background:new 0 0 256 256;" xml:space="preserve">
<style type="text/css">
	.st0{fill:none;}
	.st1{fill:#BFE9FF;}
	.st2{fill:#1652F0;}
	.st3{fill:#56B4FC;}
	.st4{fill:#FFFFFF;}
</style>
<path class="st0" d="M177.7,0.1"/>
<path class="st1" d="M239.4,0.1H111.5V256h127.9V0.1z"/>
<g>
	<path class="st2" d="M111.5,32.5v190.7c52.4,0,94.8-42.8,94.8-95.2S163.9,32.9,111.5,32.5z"/>
	<path class="st3" d="M111.5,223.6V32.5c-52.4,0.4-94.8,43.2-94.8,95.6S59.1,223.2,111.5,223.6z"/>
</g>
<g>
	<path class="st4" d="M107.9,55.3c2.4,0,4.8,0,7.2,0c1.6,0,3.2,0.4,4.8,0.4c8.8,0.8,17.2,3.6,24.8,7.6c11.2,6,20,14,27.2,24.4
		c6,9.2,10,18.8,11.2,29.6c0.4,2.4,0.4,4.8,0.8,7.2c0,2.4,0,4.4,0,6.8c0,0.4,0,0.8-0.4,1.2c-0.4,10-3.2,19.6-8,28.8
		c-7.2,14-18,24.8-32,31.6c-15.6,7.6-32,9.6-48.8,6c-10.8-2.4-20.8-7.2-29.6-14.4c-9.2-7.6-16-16.4-20.8-27.2
		c-5.2-12-7.2-24.8-5.6-38c1.2-9.6,4-18.8,8.8-27.2c6-10.8,14.4-19.6,25.2-26c8.4-5.2,17.6-8.8,27.6-10
		C103.1,55.7,105.5,55.7,107.9,55.3z M51.5,110.9c-3.2,11.6-3.2,22.8,0,34.4c11.2,0,22,0,32.8,0c-0.8-11.6-0.8-22.8,0-34.4
		C73.5,110.9,62.7,110.9,51.5,110.9z M138.3,110.9c0.8,11.6,0.8,23.2,0,34.4c11.2,0,22,0,32.8,0c3.2-11.6,3.2-22.8,0-34.4
		C160.3,110.9,149.5,110.9,138.3,110.9z M127.9,110.9c-11.2,0-22,0-32.8,0c-1.2,11.6-1.2,22.8,0,34.4c11.2,0,22,0,32.8,0
		C129.1,133.7,129.1,122.5,127.9,110.9z M96.3,100.1c10.4,0,20.4,0,30.4,0c-1.6-9.2-3.6-18.4-7.6-26.4c-1.2-2.4-2.8-4.4-4.8-6.4
		c-1.6-2-3.6-2-5.6,0c-1.2,0.8-2,2-2.8,3.2C100.3,79.3,98.3,89.7,96.3,100.1z M96.3,155.6c0.4,6.4,4.4,20.4,7.6,26.4
		c1.2,2,2.4,4,3.6,5.6c2.8,3.2,5.2,3.2,8,0c1.2-1.2,2-2.8,3.2-4.4c3.2-5.6,4.8-11.6,6.4-18c0.8-3.2,1.2-6.4,2-9.6
		C116.7,155.6,106.3,155.6,96.3,155.6z M94.7,68.1c-17.6,5.2-30.4,15.6-39.2,32c0.4,0,0.4,0,0.8,0c9.6,0,18.8,0,28.4,0
		c0.8,0,1.2-0.4,1.2-1.2C87.5,88.5,89.9,78.1,94.7,68.1z M127.9,68.1c0.8,1.6,1.2,2.8,2,4c4,8.8,6,17.6,7.2,26.8
		c0,1.2,0.4,1.6,1.6,1.6c8.8,0,18,0,26.8,0c0.4,0,0.8,0,1.6,0C158.7,84.1,145.5,73.3,127.9,68.1z M95.1,188c-0.8-1.6-1.2-2.8-2-4
		c-4-8.8-6-17.6-7.2-26.8c0-1.2-0.8-1.6-2-1.6c-8.8,0-18,0-26.8,0c-0.4,0-0.8,0-1.6,0C64.3,172,77.1,182.8,95.1,188z M167.1,156
		c-0.4,0-0.8,0-1.2,0c-9.2,0-18.4,0-27.6,0c-1.2,0-1.2,0.4-1.2,1.2c-1.2,7.6-2.8,15.2-5.6,22.4c-1.2,2.8-2.4,5.6-3.6,8.8
		C145.5,182.8,158.7,172,167.1,156z"/>
</g>
</svg>
