<?xml version="1.0" encoding="utf-8"?>
<!-- Generator: Adobe Illustrator 24.3.0, SVG Export Plug-In . SVG Version: 6.00 Build 0)  -->
<svg version="1.1" id="Layer_1" xmlns="http://www.w3.org/2000/svg" xmlns:xlink="http://www.w3.org/1999/xlink" x="0px" y="0px"
	 viewBox="0 0 256 256" style="enable-background:new 0 0 256 256;" xml:space="preserve">
<style type="text/css">
	.st0{fill:#D4EEFF;}
	.st1{fill:#1652F0;}
	.st2{fill:#56B4FC;}
	.st3{fill:#FFFFFF;}
</style>
<g>
	<path class="st0" d="M128.6,256c70.4,0,127.1-57.1,127.1-127.1S199,1.9,128.6,1.9S1.5,58.5,1.5,128.9S58.2,256,128.6,256z"/>
	<path class="st1" d="M128.6,241.9c62.5,0,113-50.5,113-113s-50.5-113-113-113s-113,50.5-113,113S66.1,241.9,128.6,241.9z"/>
	<path class="st0" d="M186.5,100.2l-11.6-11.6l-68.1,68.5l11.6,11.6L186.5,100.2z"/>
	<path class="st2" d="M118.4,168.8l11.6-11.6l-39.8-39.8l-11.6,11.6L118.4,168.8L118.4,168.8z"/>
	<path class="st3" d="M118.4,146.1l-11.6,11.6l11.6,11.6l11.6-11.6C130,157.2,118.4,146.1,118.4,146.1z"/>
</g>
</svg>
