<?xml version="1.0" encoding="utf-8"?>
<!-- Generator: Adobe Illustrator 24.3.0, SVG Export Plug-In . SVG Version: 6.00 Build 0)  -->
<svg version="1.1" id="Layer_1" xmlns="http://www.w3.org/2000/svg" xmlns:xlink="http://www.w3.org/1999/xlink" x="0px" y="0px"
	 viewBox="0 0 64 64" style="enable-background:new 0 0 64 64;" xml:space="preserve">
<style type="text/css">
	.st0{fill:#56B4FC;}
	.st1{fill:#BFE9FF;}
	.st2{fill:#1652F0;}
	.st3{fill:#FFFFFF;}
</style>
<rect x="4" y="14.1" class="st0" width="56" height="37.2"/>
<path class="st1" d="M56,0H8v64h48V0z"/>
<path class="st1" d="M56,26.8H8v33h48V26.8z"/>
<path class="st2" d="M56,14.1h-48v37.2h48V14.1z"/>
<path class="st3" d="M56,22.9v-4L7.9,19.1v4L56,22.9z"/>
<path class="st3" d="M47.7,47.2c2,0,3.7-1.6,3.7-3.7c0-2-1.7-3.7-3.7-3.7S44,41.4,44,43.5C44,45.5,45.5,47.2,47.7,47.2z"/>
<path class="st3" d="M41.8,47.2c2,0,3.7-1.6,3.7-3.7c0-2-1.7-3.7-3.7-3.7S38,41.4,38,43.5C38,45.5,39.8,47.2,41.8,47.2z"/>
</svg>
