<?xml version="1.0" encoding="utf-8"?>
<!-- Generator: Adobe Illustrator 24.3.0, SVG Export Plug-In . SVG Version: 6.00 Build 0)  -->
<svg version="1.1" id="Layer_1" xmlns="http://www.w3.org/2000/svg" xmlns:xlink="http://www.w3.org/1999/xlink" x="0px" y="0px"
	 viewBox="0 0 56 64" style="enable-background:new 0 0 56 64;" xml:space="preserve">
<style type="text/css">
	.st0{fill:#D4EEFF;}
	.st1{fill:#FFFFFF;}
	.st2{fill:#1652F0;}
	.st3{fill:#56B4FC;}
</style>
<path class="st0" d="M28.2,55.8c15,0,27.1-12.1,27.1-27.1c0-15-12.1-27.1-27.1-27.1S1,13.7,1,28.7C1,43.6,13.2,55.8,28.2,55.8z"/>
<path class="st1" d="M27.9,7.3c-11.7,0-21.3,9.5-21.3,21.3c0,11.7,9.5,21.3,21.3,21.3c11.7,0,21.3-9.5,21.3-21.3
	C49.1,16.8,39.6,7.3,27.9,7.3z M27.9,45c-9.1,0-16.4-7.3-16.4-16.4s7.3-16.4,16.4-16.4s16.4,7.3,16.4,16.4S36.9,45,27.9,45z"/>
<path class="st1" d="M28.2,17.4c-6.2,0-11.2,5-11.2,11.2c0,6.2,5,11.2,11.2,11.2c6.2,0,11.2-5,11.2-11.2
	C39.4,22.4,34.4,17.4,28.2,17.4z M28.2,35.1c-3.6,0-6.5-2.9-6.5-6.5s2.9-6.5,6.5-6.5s6.5,2.9,6.5,6.5S31.7,35.1,28.2,35.1z"/>
<path class="st2" d="M1,28.7c0,15,12.2,27.1,27.1,27.1s27.1-12.2,27.1-27.1H1z"/>
<polygon class="st3" points="28.2,46 18.2,63.3 38.2,63.3 "/>
</svg>
