<?xml version="1.0" encoding="utf-8"?>
<!-- Generator: Adobe Illustrator 24.3.0, SVG Export Plug-In . SVG Version: 6.00 Build 0)  -->
<svg version="1.1" id="Layer_1" xmlns="http://www.w3.org/2000/svg" xmlns:xlink="http://www.w3.org/1999/xlink" x="0px" y="0px"
	 viewBox="0 0 332 332" style="enable-background:new 0 0 332 332;" xml:space="preserve">
<style type="text/css">
	.st0{fill:#1652F0;}
	.st1{fill:#D4EEFF;}
	.st2{fill:#56B4FC;}
</style>
<rect x="193.4" y="43.4" transform="matrix(-1.836970e-16 1 -1 -1.836970e-16 276.1944 -152.3911)" class="st0" width="41.8" height="37.1"/>
<rect x="88.1" y="43.1" transform="matrix(-1.836970e-16 1 -1 -1.836970e-16 170.9398 -47.1365)" class="st0" width="41.8" height="37.6"/>
<rect x="152.8" y="66.9" transform="matrix(-1.836970e-16 1 -1 -1.836970e-16 235.6088 -89.8898)" class="st0" width="19.9" height="11.9"/>
<path class="st0" d="M230.7,331H94.8c-8.6,0-15.6-7-15.6-15.6v-224c0-8.6,7-15.6,15.6-15.6h135.9c8.6,0,15.6,7,15.6,15.6v224
	C246.3,324,239.3,331,230.7,331z"/>
<path class="st1" d="M291,109.7H32.6v191.7H291V109.7z"/>
<path class="st0" d="M261.2,109.7H62.5v191.7h198.7V109.7z"/>
<path class="st0" d="M246.9,41H76.7c-2.1,0-3.7-1.7-3.7-3.7V17.4C72.9,8.9,79.8,2,88.3,2h147c8.5,0,15.4,6.9,15.4,15.4v19.9
	C250.7,39.3,249,41,246.9,41z"/>
<path class="st2" d="M62.5,109.7h198.7v-9.5c0-13.5-11-24.5-24.5-24.5H86.9c-13.5,0-24.5,11-24.5,24.5V109.7z"/>
<path class="st2" d="M261.2,301.4H62.5v5.1c0,13.5,11,24.5,24.5,24.5h149.8c13.5,0,24.5-11,24.5-24.5V301.4z"/>
</svg>
