<?xml version="1.0" encoding="utf-8"?>
<!-- Generator: Adobe Illustrator 24.3.0, SVG Export Plug-In . SVG Version: 6.00 Build 0)  -->
<svg version="1.1" id="Layer_1" xmlns="http://www.w3.org/2000/svg" xmlns:xlink="http://www.w3.org/1999/xlink" x="0px" y="0px"
	 viewBox="0 0 332 332" style="enable-background:new 0 0 332 332;" xml:space="preserve">
<style type="text/css">
	.st0{fill:#1652F0;}
	.st1{fill:#FFFFFF;}
	.st2{fill:#56B4FC;}
</style>
<path class="st0" d="M200,324.4c61.9-18.9,84.6-90.5,60.6-146C241.8,134.7,188.9,59,214,8c1.3-2.6-1.2-5.4-3.9-4.5
	c-21.8,7.7-80,35.1-61.9,104c0,0-16.7-19.8-31.6-26c-2.2-0.9-4.6,0.8-4.4,3.2c3.2,41.6-26.5,63.9-43.6,99.1
	c-15.4,31.5-8.8,62.3,7,89.7c15.4,26.9,41.1,45.4,69.9,52.2l19.5-2.1l15.1,4.6c6-0.6,12-1.6,18-3.2
	C198.7,324.8,199.3,324.6,200,324.4L200,324.4z"/>
<path class="st0" d="M260.6,178.5C241.8,134.7,188.9,59,214,8c1.3-2.6-1.2-5.4-3.9-4.5c-10.7,3.8-30.2,12.4-45.1,28.3v291.8
	l15.1,4.6c6-0.6,12-1.6,18-3.2c0.7-0.2,1.3-0.4,2-0.5C261.9,305.5,284.6,233.9,260.6,178.5L260.6,178.5z"/>
<path class="st1" d="M209,240.1c-7,8.9-9.5,9.6-9.5,9.6c5.6-22.4,7.5-47.3-4-68.3c-4.5-8.3-10.5-16.8-17.7-23.1
	c-2.9-2.5-7.6-6.7-11.8-5.7c-6.8,1.6-2.8,8.7-3.9,14c-5.9,29.4-28.9,48.1-43.3,72.8c-8,13.8-13,29.7-10.7,45.1
	c3,19.7,18.5,33.3,35.9,40.4c12.9,3,26.3,4,39.8,2.7c36.5-9.8,48.3-51.8,31.5-87.6C214.4,237.5,210.5,237.4,209,240.1z"/>
<g>
	<path class="st2" d="M207.8,248.5c-5.4,9.6-16.1,10.8-16.1,10.8c20.1-58.7-7.1-89-21.1-100.2c-2.3-1.8-5.6,0.1-5.1,3
		c5.7,35.7-48.7,71.2-52.8,106.3c-2.9,25.3,11.1,48.1,32.9,57.1c11.5,2.7,23.4,3.6,35.4,2.4c32.5-8.7,43.6-47,32.7-79.1
		C212.7,246.5,209.1,246.1,207.8,248.5z"/>
	<path class="st2" d="M213.6,249c-0.9-2.6-4.4-2.9-5.8-0.5c-5.4,9.6-16.1,10.8-16.1,10.8c20.1-58.7-7.1-89-21.1-100.2
		c-2.3-1.8-5.6,0.1-5.1,3c0.7,4.4,0.5,8.8-0.4,13.2v153c5.3,0.3,10.6,0.1,16-0.4C213.4,319.4,224.5,281.1,213.6,249L213.6,249z"/>
</g>
</svg>
