<?xml version="1.0" encoding="utf-8"?>
<!-- Generator: Adobe Illustrator 24.3.0, SVG Export Plug-In . SVG Version: 6.00 Build 0)  -->
<svg version="1.1" id="Layer_1" xmlns="http://www.w3.org/2000/svg" xmlns:xlink="http://www.w3.org/1999/xlink" x="0px" y="0px"
	 viewBox="0 0 56 64" style="enable-background:new 0 0 56 64;" xml:space="preserve">
<style type="text/css">
	.st0{fill:#BFE9FF;}
	.st1{fill:#56B4FC;}
	.st2{fill:#1652F0;}
	.st3{fill:#FFFFFF;}
</style>
<path class="st0" d="M56,0H24v64h32V0z"/>
<path class="st1" d="M0,8v28c0,13.3,24,24,24,24s24-10.8,24-24V8H0z"/>
<path class="st2" d="M24,8v52c0,0,24-10.8,24-24V8H24z"/>
<path class="st3" d="M7,15v21c0,4.9,8.6,11.7,16.5,16l0.5,0.3l0.5-0.3c8-4.3,16.5-11.1,16.5-16V15H7z M39,17v6H9v-6H39z M24,50
	C15.6,45.3,9,39.3,9,36V25h30v11C39,39.3,32.5,45.3,24,50z"/>
<g>
	<path class="st3" d="M29.4,37.8l0-2.5l-10.8,0.2l0,2.5L29.4,37.8z"/>
	<path class="st3" d="M25.1,31.3l-2.5,0l0.2,10.8l2.5,0L25.1,31.3z"/>
</g>
</svg>
