<?xml version="1.0" encoding="utf-8"?>
<!-- Generator: Adobe Illustrator 24.3.0, SVG Export Plug-In . SVG Version: 6.00 Build 0)  -->
<svg version="1.1" id="Layer_1" xmlns="http://www.w3.org/2000/svg" xmlns:xlink="http://www.w3.org/1999/xlink" x="0px" y="0px"
	 viewBox="0 0 64 64" style="enable-background:new 0 0 64 64;" xml:space="preserve">
<style type="text/css">
	.st0{fill:#BFE9FF;}
	.st1{fill:#1652F0;}
	.st2{fill:#56B4FC;}
	.st3{fill:#FFFFFF;}
</style>
<path class="st0" d="M64,9.2H0v45.3h64V9.2z"/>
<rect x="8.1" y="9.2" class="st1" width="47.8" height="45.3"/>
<rect x="5" y="5.2" class="st2" width="54.1" height="4"/>
<rect x="5" y="54.5" class="st2" width="54.1" height="4"/>
<circle class="st0" cx="23.1" cy="14.3" r="10.1"/>
<g>
	<path class="st3" d="M17.3,12.5l-0.1,2.9l11.6,0l0.1-2.9L17.3,12.5z"/>
	<path class="st3" d="M24.6,8.5l-2.9-0.1l0,11.6l2.9,0.1L24.6,8.5z"/>
</g>
<path class="st0" d="M27.7,5.2c-1.4-0.7-2.9-1.1-4.6-1.1s-3.2,0.4-4.6,1.1H27.7z"/>
<rect x="39.8" y="38.6" class="st0" width="9.5" height="15.9"/>
</svg>
