<svg width="56" height="64" viewBox="0 0 56 64" fill="none" xmlns="http://www.w3.org/2000/svg">
<path d="M56 0H24V64H56V0Z" fill="#BFE9FF"/>
<path d="M0 8V36C0 49.3 24 60 24 60C24 60 48 49.2 48 36V8H0Z" fill="#56B4FC"/>
<path d="M24 8V60C24 60 48 49.2 48 36V8H24Z" fill="#1652F0"/>
<path d="M7 15V36C7 40.9 15.6 47.7 23.5 52L24 52.3L24.5 52C32.5 47.7 41 40.9 41 36V15H7ZM39 17V23H9V17H39ZM24 50C15.6 45.3 9 39.3 9 36V25H39V36C39 39.3 32.5 45.3 24 50Z" fill="white"/>
<rect x="9" y="19" width="15" height="11" fill="#56B4FC"/>
<rect x="24" y="20" width="15" height="13" fill="#1652F0"/>
</svg>
