<svg id="Layer_1" data-name="Layer 1" xmlns="http://www.w3.org/2000/svg" viewBox="0 0 313.35 330.49"><defs><style>.cls-1{fill:#56b4fc;}.cls-2{fill:#d4eeff;}.cls-3{fill:#1652f0;}.cls-4{fill:#fff;}</style></defs><rect class="cls-1" x="111.09" y="296.09" width="90.3" height="15.1"/><rect class="cls-1" x="111.09" y="315.39" width="90.3" height="15.1"/><polygon class="cls-2" points="265.04 197.7 270.94 184.61 313.35 199.96 307.44 213.04 265.04 197.7"/><path class="cls-3" d="M268.6,151.4c0-56.8-47-102.8-105-102.8s-105,46-105,102.8c0,41,24.4,76.3,59.7,92.8v49.3h90.3V244.2C244.2,227.7,268.6,192.4,268.6,151.4Z" transform="translate(-7.41 -1.51)"/><rect class="cls-4" x="117.39" y="177.81" width="77.62" height="14.6"/><rect class="cls-4" x="149.38" y="192.42" width="14.6" height="100.47"/><rect class="cls-2" x="273.79" y="89.43" width="45.12" height="14.6" transform="translate(-22.46 109.66) rotate(-20.73)"/><rect class="cls-2" x="202.67" y="19.45" width="45.12" height="14.6" transform="matrix(0.52, -0.86, 0.86, 0.52, 78.8, 204.44)"/><rect class="cls-2" x="95.13" y="2.49" width="14.6" height="45.12" transform="translate(-8.49 43.67) rotate(-24.75)"/><rect class="cls-2" x="27.65" y="71.14" width="14.6" height="45.12" transform="translate(-72.43 89.49) rotate(-67.99)"/><rect class="cls-2" x="8.52" y="193.04" width="45.12" height="14.6" transform="translate(-77.34 23.05) rotate(-21.07)"/></svg>