<?xml version="1.0" encoding="utf-8"?>
<!-- Generator: Adobe Illustrator 24.3.0, SVG Export Plug-In . SVG Version: 6.00 Build 0)  -->
<svg version="1.1" id="Layer_1" xmlns="http://www.w3.org/2000/svg" xmlns:xlink="http://www.w3.org/1999/xlink" x="0px" y="0px"
	 viewBox="0 0 332 332" style="enable-background:new 0 0 332 332;" xml:space="preserve">
<style type="text/css">
	.st0{fill:#1652F0;}
	.st1{fill:#D4EEFF;}
	.st2{fill:#56B4FC;}
	.st3{fill:#FFFFFF;}
</style>
<path class="st0" d="M292.4,203.6v99.6c0,15.5-12.7,28.2-28.2,28.2H65c-15.5,0-28.2-12.7-28.2-28.2V201.9c0-6.8,2.5-13.4,7.1-18.5
	l75.6-84.2L92.3,34.1c-3.1-7.4-2.5-15.9,2-22.5c8.2-12,26.4-22,63.7,19c0,0,38.1-51.1,62.2-22.8c5.2,6.1,6.6,14.7,3.9,22.3
	l-22.8,64.4l82.7,87.8C289.4,188.1,292.4,195.7,292.4,203.6z"/>
<path class="st1" d="M228.1,92.8H90.9c-5.7,0-10.3-4.6-10.3-10.3v-8c0-5.7,4.6-10.3,10.3-10.3h137.3c5.7,0,10.3,4.6,10.3,10.3v8
	C238.4,88.2,233.8,92.8,228.1,92.8z"/>
<path class="st2" d="M228.1,121.4H90.9c-5.7,0-10.3-4.6-10.3-10.3v-8c0-5.7,4.6-10.3,10.3-10.3h137.3c5.7,0,10.3,4.6,10.3,10.3v8
	C238.4,116.7,233.8,121.4,228.1,121.4z"/>
<path class="st3" d="M121.5,180.3h84.2v13.8h-25.9c0,0,4.3,5.3,5.5,12.9h20.4v14h-20.6c0,0-2.9,26.6-35.9,26.4l48.6,49.4h-27.1
	l-49.1-49.4v-16.7l34.6,0.2c0,0,8-0.9,12.3-10.2h-46.8v-14l46,0.3c0,0-1.9-8.3-11.6-10.2l-34.4-0.3V180.3z"/>
</svg>
