<?xml version="1.0" encoding="utf-8"?>
<!-- Generator: Adobe Illustrator 24.3.0, SVG Export Plug-In . SVG Version: 6.00 Build 0)  -->
<svg version="1.1" id="Layer_1" xmlns="http://www.w3.org/2000/svg" xmlns:xlink="http://www.w3.org/1999/xlink" x="0px" y="0px"
	 viewBox="0 0 332 332" style="enable-background:new 0 0 332 332;" xml:space="preserve">
<style type="text/css">
	.st0{fill:#D4EEFF;}
	.st1{fill:#56B4FC;}
	.st2{fill:#1652F0;}
	.st3{fill:#FFFFFF;}
</style>
<path class="st0" d="M332,20.8H0v290.5h332V20.8z"/>
<path class="st1" d="M259.4,332H72.6c-2.7,0-5.4-1.1-7.3-3s-3-4.6-3-7.3V10.4C62.3,4.7,66.9,0,72.6,0h186.8
	c5.7,0,10.4,4.7,10.4,10.4v311.3C269.8,327.3,265.1,332,259.4,332z"/>
<path class="st2" d="M269.8,20.8H62.3v290.5h207.5V20.8z"/>
<path class="st1" d="M217.9,31.1H114.1c-2.7,0-5.4-1.1-7.3-3.1c-1.9-1.9-3-4.6-3-7.3V10.4h124.5v10.4
	C228.3,26.5,223.6,31.1,217.9,31.1L217.9,31.1z"/>
<rect x="90.9" y="106" class="st3" width="148.7" height="14.6"/>
<rect x="90.9" y="138.8" class="st3" width="148.7" height="14.6"/>
<rect x="98.9" y="171.6" class="st3" width="132.7" height="14.6"/>
</svg>
