<?xml version="1.0" encoding="utf-8"?>
<!-- Generator: Adobe Illustrator 24.3.0, SVG Export Plug-In . SVG Version: 6.00 Build 0)  -->
<svg version="1.1" id="Layer_1" xmlns="http://www.w3.org/2000/svg" xmlns:xlink="http://www.w3.org/1999/xlink" x="0px" y="0px"
	 viewBox="0 0 256 256" style="enable-background:new 0 0 256 256;" xml:space="preserve">
<style type="text/css">
	.st0{fill:none;}
	.st1{fill:#BFE9FF;}
	.st2{fill:#1652F0;}
	.st3{fill:#56B4FC;}
	.st4{fill:#FFFFFF;}
</style>
<path class="st0" d="M177.7,0.1"/>
<g>
	<path class="st1" d="M69.8,163.1H1.2V249h68.6C69.8,249,69.8,163.1,69.8,163.1z"/>
	<path class="st2" d="M69.8,179.9H1.2v51.4h68.6C69.8,231.3,69.8,179.9,69.8,179.9z"/>
	<path class="st3" d="M121.2,94.5c23.6,0,42.7-19.1,42.7-42.7S144.8,9,121.2,9S78.4,28.1,78.4,51.7S97.5,94.5,121.2,94.5z"/>
	<path class="st2" d="M207.1,163.1c23.6,0,42.7-19.1,42.7-42.7s-19.1-42.7-42.7-42.7s-42.7,19.1-42.7,42.7S183,163.1,207.1,163.1z"
		/>
	<path class="st4" d="M223.9,115.8h-12.7v-12.7h-8.6v12.7h-12.7v8.6h12.7v12.7h8.6v-12.7h12.7V115.8z"/>
	<path class="st3" d="M69.8,180.8v49.5H138c5.9,0,11.8-0.9,17.3-3.2l99.1-35c0,0,6.8-19.1-18.2-18.2l-67.3,8.2c0,0,0-0.9,0-1.8
		c0-6.4-4.1-11.8-9.5-13.6c-19.5-6.8-40.5-15.9-60-4.1C99.3,162.2,69.8,180.8,69.8,180.8z"/>
	<g>
		<path class="st4" d="M136.6,31.7c1.4,1.4,2.7,2.7,3.6,3.6c-11.4,11.4-23.2,23.2-34.5,34.5c-1.4-1.4-2.7-2.7-3.6-3.6
			C113.4,55.4,124.8,43.5,136.6,31.7z"/>
		<path class="st4" d="M108.4,47.6c-4.5,0-8.6-3.6-8.6-8.6c0-4.5,3.6-8.6,8.6-8.6c5,0,8.6,3.6,8.6,8.6
			C117.1,43.5,113.4,47.6,108.4,47.6z M111.2,39c0-1.4-1.4-3.2-3.2-2.7c-1.4,0-2.7,1.4-2.7,3.2c0,1.4,1.4,2.7,3.2,2.7
			C110.2,41.3,111.2,40.4,111.2,39z"/>
		<path class="st4" d="M125.2,64c0-4.5,3.6-8.6,8.6-8.6s8.6,3.6,8.6,8.6c0,4.5-3.6,8.6-8.6,8.6C128.9,72.6,125.2,68.5,125.2,64z
			 M136.6,64c0-1.4-1.4-3.2-2.7-3.2s-3.2,1.4-3.2,3.2c0,1.4,1.4,3.2,3.2,3.2C135.7,66.7,136.6,65.8,136.6,64z"/>
	</g>
</g>
</svg>
